<svg class="svg svg-desert-left" xmlns="http://www.w3.org/2000/svg" viewBox="0 0 492.47 454.4">
    <path class="bird" id="Layer_15" d="M31.35 19.34a.53.53 0 01-.75-.71c.27-.51.6-1.12.91-1.82s.69-1.14 1-1.81.21-1.35.49-2 .43-1.29.72-1.92.9-1.07 1.21-1.68.52-1.26.85-1.85.79-1.11 1.16-1.68a19.5 19.5 0 011-1.82 12.82 12.82 0 011.59-1.29c.5-.49.83-1.16 1.39-1.51a7.3 7.3 0 011.8-.81 6.64 6.64 0 012-.44 18.94 18.94 0 012 .56 16.87 16.87 0 012.06.22 17.27 17.27 0 012 .61 17.55 17.55 0 011.78 1.08 19.48 19.48 0 011.63 1.26A20.08 20.08 0 0155.87 5c.56.47 1.32.68 1.77 1.14a16 16 0 011.11 1.77c.8 1 .31 1.75 1.31 1.54s.21-.79.78-1.93a12.74 12.74 0 011-1.87 14 14 0 011.38-1.6 13 13 0 011.62-1.37 11.19 11.19 0 011.76-1.14 12.25 12.25 0 011.93-.91 15.62 15.62 0 012.16 0 7.47 7.47 0 012-.08 8.16 8.16 0 011.93.71 11.25 11.25 0 011.75 1.09 16.67 16.67 0 011.83 1c.51.46 1 .95 1.5 1.47s.89 1.08 1.33 1.63.7 1.22 1.11 1.78.86 1.2 1.21 1.77.89 1.11 1.26 1.68.75 1.2 1.12 1.76.86 1.15 1.23 1.69.64 1.35 1 1.83-.1.87-.52.53a10.76 10.76 0 01-1.64-1.35c-.42-.49-.52-1.32-1-1.9s-1-.92-1.5-1.49-1-1-1.42-1.54-.7-1.21-1.18-1.74A21 21 0 0079.22 8a13.25 13.25 0 00-1.79-1.12A8.24 8.24 0 0075.52 6a6.08 6.08 0 00-2.06-.4 14.74 14.74 0 00-2 .4 12.1 12.1 0 00-1.93.6 11.11 11.11 0 00-1.89.75A10.5 10.5 0 0066.1 8.7a12.63 12.63 0 00-1.36 1.49 15.88 15.88 0 00-1.19 1.65 16.83 16.83 0 00-.77 1.87c-.29.69-.76 1.25-1 1.83-.28.87-.32 1.61-.44 2a.34.34 0 01-.62 0A13.28 13.28 0 0159.39 16c-.32-.51-.42-1.27-.84-1.89s-.75-1.11-1.17-1.67-.85-1.07-1.3-1.6-1-1-1.47-1.44a16.84 16.84 0 00-1.44-1.48 12 12 0 00-1.75-1.11 8.94 8.94 0 00-2-.65 7.17 7.17 0 00-2-.56 10.39 10.39 0 00-2 .54 9 9 0 00-1.81.75 10.68 10.68 0 00-1.87.68A15.49 15.49 0 0040.4 9a18.86 18.86 0 00-1.6 1.18c-.46.48-.68 1.17-1.1 1.68s-1.07.85-1.45 1.37-.87 1-1.24 1.57-.45 1.35-.81 1.85-1.13.88-1.52 1.34a6.46 6.46 0 01-1.33 1.35z" />
    <g class="scene">
      <path d="M94 292.25a3.5 3.5 0 00-3.69 3.67 3.76 3.76 0 003.69 4 3.68 3.68 0 003.59-4 3.42 3.42 0 00-3.59-3.67zM442.67 60a3.5 3.5 0 00-3.67 3.63 3.76 3.76 0 003.69 4 3.68 3.68 0 003.59-4 3.43 3.43 0 00-3.61-3.63z" class="cls-1" />
      <path d="M169.08 453.81a2 2 0 01-2-2 1.55 1.55 0 00-.06-.51 5.26 5.26 0 01-.21-1.54 7.15 7.15 0 01.12-1.38 2.94 2.94 0 00.06-.67 10.1 10.1 0 01.07-1.25 6.38 6.38 0 00.05-.8 3.57 3.57 0 00-.06-.67 6.31 6.31 0 01-.13-1.38v-1.13-.92a6.38 6.38 0 000-.8 9.58 9.58 0 01-.08-1.25c0-.61 0-.92.06-1.22a5.32 5.32 0 00.05-.83v-1-1.08a2.85 2.85 0 00-.06-.66 6.5 6.5 0 01-.13-1.39 8.43 8.43 0 01.09-1.31 4.38 4.38 0 00.06-.74 6.74 6.74 0 01.14-1.44 2 2 0 00.07-.61.31.31 0 000-.1.61.61 0 00-.12-.13 4.19 4.19 0 01-.39-1.83v-1.06-1a5.56 5.56 0 01.19-1.51 1.69 1.69 0 00.07-.54 3.66 3.66 0 00-.06-.67 6.59 6.59 0 01-.13-1.37 6.37 6.37 0 01.15-1.43 2.12 2.12 0 00.17-.59v-1.18a8.11 8.11 0 000-.87v-2.05-1-1.09-1.06-1-1.1-1a4.67 4.67 0 000-.65 8.12 8.12 0 01-.09-1.29 1.19 1.19 0 00-.07-.48 5.15 5.15 0 01-.22-1.57 6.64 6.64 0 01.12-1.37 3.14 3.14 0 00.06-.69v-.91-1.14-1.16-.89-1.16-.89a7.4 7.4 0 01.11-1.36 3.18 3.18 0 00.06-.7 1.24 1.24 0 00-.07-.49 5.51 5.51 0 01-.21-1.56 5.42 5.42 0 01.19-1.5 1.78 1.78 0 00.06-.55 2.81 2.81 0 00-.06-.65 7.28 7.28 0 01-.13-1.4v-1.15-.91a2.72 2.72 0 00-.06-.64 6.4 6.4 0 01-.14-1.41c0-.61 0-.91.05-1.21a7.67 7.67 0 000-.85v-.92-1.14a2 2 0 014 0v3.26a7.89 7.89 0 000 .86 2.72 2.72 0 00.06.64 6.4 6.4 0 01.14 1.41v2.06a2.81 2.81 0 00.06.65 6.53 6.53 0 01.13 1.4 5.63 5.63 0 01-.18 1.51 1.65 1.65 0 00-.07.54 1.47 1.47 0 00.07.5 5.48 5.48 0 01.21 1.55 7.4 7.4 0 01-.11 1.36 3.18 3.18 0 00-.06.7V402.6a6.64 6.64 0 01-.12 1.37 3.14 3.14 0 00-.06.69 1.37 1.37 0 00.07.47 5.29 5.29 0 01.22 1.58 4.53 4.53 0 00.05.75 8.38 8.38 0 01.09 1.3v10.29a6.37 6.37 0 01-.15 1.43 2.52 2.52 0 00-.07.62 2.86 2.86 0 00.07.67 7.61 7.61 0 01.12 1.37 5.59 5.59 0 01-.19 1.52 1.62 1.62 0 00-.07.53v2.18a.37.37 0 010 .11 4.07 4.07 0 01.4 1.83 6.37 6.37 0 01-.15 1.43 2.59 2.59 0 00-.06.62 8.33 8.33 0 01-.1 1.31 4.48 4.48 0 000 .74 2.91 2.91 0 00.06.66 7.06 7.06 0 01.13 1.39v2.08a10.76 10.76 0 01-.06 1.22 6.68 6.68 0 00-.05.83 6.33 6.33 0 00.05.79 9.77 9.77 0 01.08 1.26v2.05a2.94 2.94 0 00.06.67 6.93 6.93 0 01.13 1.38 10 10 0 01-.07 1.24 6.43 6.43 0 000 .81 7.12 7.12 0 01-.12 1.37 3 3 0 00-.06.68 1.51 1.51 0 00.07.5 5.34 5.34 0 01.2 1.55 2 2 0 01-2.24 1.92z" />
      <path d="M170.74 426.69a14.77 14.77 0 01-1.65-.07 12.21 12.21 0 00-1.3-.06 6.61 6.61 0 01-2-.35 5.26 5.26 0 00-.53-.15 5 5 0 00-.56-.07 5.36 5.36 0 01-2-.43 6.66 6.66 0 01-1.63-1.14 5 5 0 00-.43-.37 8.42 8.42 0 01-1.42-1.47l-.3-.36a10.8 10.8 0 01-1.35-2.09l-.17-.32a8.85 8.85 0 01-.86-1.95 5.21 5.21 0 00-.2-.5 5.8 5.8 0 01-.55-2 4.33 4.33 0 01.31-1.86.49.49 0 00.06-.27c0-.45 0-.68-.06-.9s-.05-.58-.06-1.16a3.3 3.3 0 00-.08-.67 6.44 6.44 0 01-.16-1.38 3.8 3.8 0 00-.08-.72 7.43 7.43 0 01-.14-1.34 4.58 4.58 0 01.28-1.75.63.63 0 00.14-.31v-1.1-1a2.89 2.89 0 00-.07-.68 6.85 6.85 0 01-.16-1.37c0-.44 0-.67-.05-.89s0-.58-.07-1.16a8.4 8.4 0 01.05-1.29 5.05 5.05 0 000-.77 8.4 8.4 0 010-1.29 5.05 5.05 0 000-.77 2 2 0 012-2.05 2 2 0 012 2 9.69 9.69 0 010 1.28 5.28 5.28 0 000 .78 8.18 8.18 0 01-.05 1.28 5.28 5.28 0 000 .78c0 .45 0 .67.05.89s0 .58.07 1.16a2.8 2.8 0 00.08.68 7 7 0 01.15 1.37v2.05a4.33 4.33 0 01-.29 1.75.56.56 0 00-.05.32 3.73 3.73 0 00.07.71 6.6 6.6 0 01.14 1.34 3.3 3.3 0 00.08.67 6.44 6.44 0 01.16 1.38c0 .46 0 .68.06.9s.05.58.06 1.17a4.16 4.16 0 01-.31 1.79.58.58 0 000 .14.33.33 0 000 .12 4.36 4.36 0 00.22.54 8.45 8.45 0 01.38 1 5.38 5.38 0 00.52 1.11l.2.36a7.36 7.36 0 00.85 1.38c.13.14.25.29.37.44a5.43 5.43 0 00.73.8c.22.17.44.35.65.54a3.72 3.72 0 00.67.52 3.5 3.5 0 00.6.08 7.75 7.75 0 011.09.14 7.84 7.84 0 01.83.23 3.67 3.67 0 00.81.18 14.42 14.42 0 011.65.08 12.76 12.76 0 001.3.05 3.21 3.21 0 00.74-.19c.31-.1.62-.2.93-.27l.45-.09a6.22 6.22 0 001.19-.33 8.82 8.82 0 001.51-.83 5.56 5.56 0 00.67-.76c.14-.19.28-.38.43-.55a7.74 7.74 0 00.91-1.42l.21-.4a6.07 6.07 0 00.52-1.13 5 5 0 00.07-1.1v-.6a3.77 3.77 0 000-.66 7 7 0 01-.1-1.38c0-.61 0-.92.08-1.23a7 7 0 00.05-.84v-2.08a9 9 0 01.11-1.3 4.64 4.64 0 00.06-.78c0-.61 0-.91.07-1.21a5.69 5.69 0 00.05-.86 11.35 11.35 0 01.09-1.26 6.17 6.17 0 00.06-.82v-1.09-1a4 4 0 000-.77 9.48 9.48 0 01-.07-1.32 9.3 9.3 0 01.09-1.26 6.32 6.32 0 00.06-.82v-.89-1.2a2 2 0 012-2 2 2 0 012 2v2.08a11.38 11.38 0 01-.09 1.27 6.17 6.17 0 00-.06.82 4 4 0 000 .77 8 8 0 01.07 1.31v2.09a9.3 9.3 0 01-.09 1.26c0 .2-.05.41-.06.83a10 10 0 01-.07 1.21c0 .22 0 .43-.05.86a9.45 9.45 0 01-.1 1.3 4.53 4.53 0 00-.07.78v2.08c0 .61 0 .92-.07 1.23a6.55 6.55 0 00-.06.84 4.12 4.12 0 000 .7 6.64 6.64 0 01.09 1.4v.52a8.13 8.13 0 01-.2 2.07 9 9 0 01-.86 2l-.18.35a11.41 11.41 0 01-1.4 2.15l-.33.42a7.71 7.71 0 01-1.4 1.5 11.26 11.26 0 01-2.25 1.28 8.82 8.82 0 01-2.08.62l-.39.09a5 5 0 00-.55.16 6.16 6.16 0 01-2.03.5zM449.5 452.89a2 2 0 01-2-2 5.23 5.23 0 01.23-1.59 1.39 1.39 0 00.07-.48 4.91 4.91 0 00-.05-.77 8.38 8.38 0 01-.09-1.3 10 10 0 01.08-1.28 4.83 4.83 0 00.05-.79 7.25 7.25 0 000-.81 10.3 10.3 0 01-.07-1.26 2.89 2.89 0 00-.07-.68 7.77 7.77 0 01-.12-1.39c0-.6 0-.9.05-1.2a8.11 8.11 0 000-.87 6 6 0 01.16-1.47 2 2 0 00.07-.6 1.55 1.55 0 00-.07-.5 5.15 5.15 0 01-.22-1.57 10.86 10.86 0 01.05-1.19v-.88a10.24 10.24 0 01.07-1.25 7.17 7.17 0 000-.82 1.09 1.09 0 00-.07-.45 5.12 5.12 0 01-.25-1.62 8.38 8.38 0 01.09-1.3 4.82 4.82 0 000-.77 7.47 7.47 0 01.1-1.34 4.48 4.48 0 00.05-.74 7.1 7.1 0 000-.81 10.3 10.3 0 01-.07-1.26 4.88 4.88 0 00-.05-.8 10.3 10.3 0 01-.07-1.26 4.8 4.8 0 01.25-1.62 1.29 1.29 0 00.07-.45 2.27 2.27 0 00-.07-.64 6.58 6.58 0 01-.14-1.44 11 11 0 01.06-1.24 6.78 6.78 0 00.05-.82 1.85 1.85 0 00-.07-.57 5.42 5.42 0 01-.19-1.5 7.43 7.43 0 01.12-1.38 3.14 3.14 0 00.06-.69 4.67 4.67 0 000-.76 8.43 8.43 0 01-.09-1.31 6.52 6.52 0 01.15-1.45 2.59 2.59 0 00.07-.62 10.9 10.9 0 01.06-1.24 7.53 7.53 0 000-.83 1.24 1.24 0 00-.07-.49 5.26 5.26 0 01-.22-1.59 5.92 5.92 0 01.15-1.44 2.68 2.68 0 00.06-.63 4.72 4.72 0 00-.05-.75 8.25 8.25 0 01-.1-1.32v-1.14-.93-1.23a5.44 5.44 0 00.05-.85 2.43 2.43 0 00-.07-.61 6 6 0 01-.16-1.46 4.6 4.6 0 01.32-1.74.62.62 0 00.07-.33.59.59 0 00-.06-.21 4.16 4.16 0 01-.42-1.87 4.1 4.1 0 01.44-1.89l.06-.12v-.16l-.05-.11a4.16 4.16 0 01-.41-1.86 8.43 8.43 0 01.09-1.31 4.91 4.91 0 00.05-.77v-1-1.11a11 11 0 01.05-1.21 8.26 8.26 0 000-.87v-1-1.07a6.37 6.37 0 01.15-1.43 2.81 2.81 0 00.06-.65 2.5 2.5 0 00-.06-.61 6 6 0 01-.16-1.47 2 2 0 014 0 2.12 2.12 0 00.07.62 6.71 6.71 0 01.15 1.46 6.58 6.58 0 01-.14 1.44 2.7 2.7 0 00-.07.64v2.06c0 .53 0 .91-.05 1.21a8.11 8.11 0 000 .87V380.46a8.43 8.43 0 01-.09 1.31 4.91 4.91 0 000 .77.47.47 0 000 .21 4.3 4.3 0 010 3.75l-.06.12v.16l.05.11a4.13 4.13 0 01.42 1.87 4.5 4.5 0 01-.32 1.73.63.63 0 00-.07.34 2.52 2.52 0 00.07.62 5.82 5.82 0 01.16 1.45 10.69 10.69 0 01-.06 1.23 7.67 7.67 0 000 .85v2.07a3.64 3.64 0 00.06.75 8.59 8.59 0 01.09 1.32 6 6 0 01-.15 1.45 2.59 2.59 0 00-.06.62 1.26 1.26 0 00.07.49 5.26 5.26 0 01.22 1.59 11 11 0 01-.06 1.24 7.24 7.24 0 000 .83 5.79 5.79 0 01-.16 1.44 2.68 2.68 0 00-.06.63 4.72 4.72 0 00.05.75 8.7 8.7 0 01.09 1.32 7.44 7.44 0 01-.11 1.37 3.08 3.08 0 00-.07.7 2.13 2.13 0 00.07.56 5.51 5.51 0 01.19 1.51 10.48 10.48 0 01-.07 1.24 7.32 7.32 0 000 .82 2.78 2.78 0 00.06.64 6.41 6.41 0 01.15 1.44 4.9 4.9 0 01-.25 1.62 1.25 1.25 0 00-.07.45 6.38 6.38 0 00.05.8 10.3 10.3 0 01.07 1.26 7.17 7.17 0 000 .82 8.51 8.51 0 01.07 1.25 7.47 7.47 0 01-.1 1.34 4.48 4.48 0 00-.05.74 8.34 8.34 0 01-.09 1.29 5 5 0 00-.05.78 1.07 1.07 0 00.07.44 4.92 4.92 0 01.25 1.63 10.83 10.83 0 01-.06 1.25 5.08 5.08 0 000 .82 10.72 10.72 0 01-.05 1.19v.88a1.55 1.55 0 00.07.5 5.15 5.15 0 01.22 1.57 6.57 6.57 0 01-.16 1.47 2 2 0 00-.07.6c0 .6 0 .9-.05 1.2a8.26 8.26 0 000 .87 3.91 3.91 0 00.06.69 6.7 6.7 0 01.13 1.38 7 7 0 000 .81 10.3 10.3 0 01.07 1.26 8.58 8.58 0 01-.08 1.29 6.14 6.14 0 000 .78 4.73 4.73 0 000 .77 8.38 8.38 0 01.09 1.3 5.17 5.17 0 01-.23 1.59 1.43 1.43 0 00-.07.48 2 2 0 01-2.06 2.01z" />
      <path d="M447.71 447.05a6.51 6.51 0 01-.75 0 7.54 7.54 0 01-2.59-.67 11.82 11.82 0 01-2.1-1.25 6.43 6.43 0 01-1.17-1.26 4.72 4.72 0 00-.41-.5 16.54 16.54 0 01-1.42-1.81l-.25-.35a12.12 12.12 0 01-1-1.54 21 21 0 01-.93-2.05 14.11 14.11 0 01-.51-1.65l-.13-.49c-.06-.19-.14-.37-.22-.56a7.25 7.25 0 01-.5-1.55 11.25 11.25 0 01-.14-1.13 8.21 8.21 0 00-.1-.93 3.67 3.67 0 00-.16-.56 8 8 0 01-.37-1.43 7.54 7.54 0 010-1.33 4.18 4.18 0 000-.72c-.05-.35-.09-.71-.13-1.08s-.07-.62-.11-.94-.07-.74-.1-1.12 0-.59-.07-.89l-.16-.37a5.21 5.21 0 01-.51-1.59l-.48-4a11.73 11.73 0 01-.07-1.2 7.49 7.49 0 000-.82 8.25 8.25 0 010-1.29 6.05 6.05 0 000-.74 4 4 0 00-.17-.62 8.1 8.1 0 01-.31-1.36 6 6 0 01.05-1.5 4.39 4.39 0 000-.55c0-.32-.08-.64-.12-1s-.1-.7-.14-1.05l-.12-1-.12-1a5.32 5.32 0 00-.16-.68 6.08 6.08 0 01-.28-2.7 2.74 2.74 0 00-.14-1.36 8.39 8.39 0 01-.26-1.29 8.14 8.14 0 010-1.4 3.66 3.66 0 000-.64 3.06 3.06 0 00-.17-.52 5 5 0 01-.32-3 4.08 4.08 0 00.05-.51 6.23 6.23 0 00-.17-.62 6.13 6.13 0 01-.34-1.36c0-.43-.05-.85-.06-1.25s0-.53 0-.77a8.18 8.18 0 00-.17-.92 7.82 7.82 0 01-.19-1.07 4.11 4.11 0 01.23-2.07 2 2 0 011.8-2.14 2 2 0 012.18 1.76 3.58 3.58 0 01-.24 1.81.86.86 0 000 .23 5.44 5.44 0 00.12.61 11.6 11.6 0 01.25 1.38c0 .34 0 .7.05 1.07s0 .62.05.95a4.09 4.09 0 00.15.51 6.87 6.87 0 01.36 1.47 5.6 5.6 0 01-.07 1.46 3.64 3.64 0 00-.05.58 4.38 4.38 0 00.16.47 5.87 5.87 0 01.4 1.51 6.69 6.69 0 010 1.35 5.8 5.8 0 000 .69 5.42 5.42 0 00.16.69 8.29 8.29 0 01.26 1.3 6.84 6.84 0 010 1.36 4.1 4.1 0 000 .68 6.06 6.06 0 00.16.66 8.05 8.05 0 01.29 1.33c0 .32.07.64.11 1s.09.69.13 1l.12.94c.04.31.1.71.14 1.07a6.34 6.34 0 01-.05 1.48 3.43 3.43 0 00-.05.56 4.38 4.38 0 00.17.63 7.74 7.74 0 01.31 1.35 9.68 9.68 0 010 1.3 5.52 5.52 0 000 .72 9.81 9.81 0 01.06 1.21v.81l.48 4c0 .06.11.27.18.41a5.29 5.29 0 01.49 1.53c0 .39.08.77.1 1.15s0 .58.07.85l.12 1c0 .34.07.67.12 1a7.49 7.49 0 010 1.4v.62a5.08 5.08 0 00.21.74 7.06 7.06 0 01.32 1.19c.06.43.1.84.13 1.22s0 .51.08.74a3.63 3.63 0 00.26.73 8 8 0 01.38 1l.14.53c.13.46.24.86.37 1.21a15.35 15.35 0 00.75 1.65 10.26 10.26 0 00.7 1.07l.29.4a13.23 13.23 0 001.06 1.36c.25.27.47.55.68.82a3.91 3.91 0 00.42.51 7.79 7.79 0 001.42.83 3.69 3.69 0 001.22.28 2 2 0 013.54 1.13 2.56 2.56 0 01-.78 2 3.41 3.41 0 01-2.43.89zm-.77-2.6z" />
      <path d="M431.69 423.22a6.82 6.82 0 01-1.06-.1 6.83 6.83 0 00-.68-.07 10.88 10.88 0 01-1.65-.09h-.57l-.44.06a4.26 4.26 0 01-3.73-.92 4.44 4.44 0 00-.38-.26l-.36-.17a6.09 6.09 0 01-1.91-1.21 7.5 7.5 0 01-1.59-2.29 13 13 0 01-.64-2.33 7.85 7.85 0 01-.12-1.47 5.78 5.78 0 000-.72 3.37 3.37 0 00-.15-.46 5.93 5.93 0 01-.38-1.63 11.53 11.53 0 010-1.35v-.75a9.16 9.16 0 01.09-1.35c0-.25.05-.49.06-.73a10.52 10.52 0 01.11-1.34c0-.24.06-.48.07-.71a3.62 3.62 0 00-.08-.75 6 6 0 01-.09-1.32 10.17 10.17 0 01.14-1.39 5.76 5.76 0 00.09-.67 2 2 0 114 .35 9.06 9.06 0 01-.12 1 5.89 5.89 0 00-.1.95 4.62 4.62 0 00.06.5 7.83 7.83 0 01.12 1.48c0 .34-.06.7-.1 1.06a6.55 6.55 0 00-.08.9c0 .37-.05.75-.09 1.12a6.9 6.9 0 00-.06.85c0 .36 0 .73-.05 1.11a6.32 6.32 0 000 .84 2.82 2.82 0 00.15.5 6.16 6.16 0 01.36 1.37c0 .37 0 .73.05 1.08a5.32 5.32 0 000 .77 9.58 9.58 0 00.42 1.57 3.31 3.31 0 00.74 1 3 3 0 00.72.38l.46.22a6.3 6.3 0 011 .61l.37.26.4-.06a6.14 6.14 0 011.36-.09l.66.06a7.71 7.71 0 001.12.07 9 9 0 011.38.11l.5.06a1.22 1.22 0 00.46-.11 4.7 4.7 0 011.26-.46 2 2 0 01.89 3.9 1 1 0 00-.35.13 4.91 4.91 0 01-1.81.51zM453.3 399.68h-.07a8.27 8.27 0 01-1.72-.17l-.63-.12a2 2 0 11.61-3.95c.39.06.63.11.83.15a3.81 3.81 0 001 .09 4.79 4.79 0 00.6-.14 7.31 7.31 0 011.15-.26 7.61 7.61 0 011-.07 3.85 3.85 0 00.54 0 .63.63 0 00.25-.26 16.74 16.74 0 00.19-1.68 6.64 6.64 0 000-.78v-1.16c0-.41.08-.73.14-1.12a5.67 5.67 0 00.11-.84v-1-1-.8a11.73 11.73 0 010-1.19 6.16 6.16 0 01.24-1.44 3.21 3.21 0 00.11-.54 2.57 2.57 0 00-.09-.58 6.27 6.27 0 01-.17-1.42 7.54 7.54 0 00-.06-.82c0-.4-.07-.79-.07-1.17a7.14 7.14 0 01.22-1.49 4.32 4.32 0 00.1-.5 5 5 0 00-.1-.78 7.24 7.24 0 01-.13-1.21 14.76 14.76 0 01.21-2.47 2 2 0 013.93.78 10.94 10.94 0 00-.14 1.71c0 .08 0 .32.07.5a8.62 8.62 0 01.16 1.5 6.42 6.42 0 01-.2 1.37 4.44 4.44 0 00-.12.63c0 .24 0 .49.05.74a12 12 0 01.08 1.27 4.09 4.09 0 00.09.55 6.68 6.68 0 01.17 1.47 5.85 5.85 0 01-.24 1.46 3.21 3.21 0 00-.11.54 7.31 7.31 0 000 .81 9.69 9.69 0 010 1.2v2.02a9.7 9.7 0 01-.16 1.33 5.43 5.43 0 00-.09.69v.87a11.56 11.56 0 010 1.19 16.12 16.12 0 01-.3 2.3 4.47 4.47 0 01-2.37 2.87 4.83 4.83 0 01-2.18.45h-.54a4.66 4.66 0 00-.62.15 6 6 0 01-1.74.32zM378.59 453.93c-2.41 0-2.41-.21-4.82-.21s-2.41.3-4.82.3h-4.82c-2.41 0-2.41.29-4.82.29s-2.41-.83-4.82-.83-2.41.08-4.82.08-2.41-.14-4.82-.14-2.41.24-4.82.24-2.41.67-4.82.67-2.41-.13-4.82-.13-2.39-.2-4.82-.2-2.41.08-4.82.08-2.41-.07-4.82-.07-2.41-.51-4.82-.51-2.41.39-4.82.39-2.41.46-4.82.46-2.41-.14-4.82-.14-2.41-.4-4.82-.4-2.41.42-4.82.42-2.41-.49-4.82-.49-2.41.25-4.82.25-2.42-.08-4.83-.08-2.41-.28-4.82-.28-2.41.48-4.82.48-2.41-.62-4.82-.62-2.41.35-4.82.35-2.41-.12-4.82-.12-2.41.13-4.82.13-2.41-.23-4.82-.23H234c-2.42 0-2.42.36-4.83.36s-2.41-.46-4.82-.46-2.41.68-4.82.68-2.41-.21-4.82-.21-2.41-.15-4.82-.15-2.41.34-4.83.34-2.41-.43-4.82-.43-2.41-.28-4.82-.28h-4.82c-2.41 0-2.41.07-4.82.07h-4.81c-2.4 0-2.41.43-4.82.43h-4.82c-2.41 0-2.41-.19-4.82-.19s-2.41.32-4.82.32-2.41.21-4.82.21-2.41-.43-4.82-.43-2.41-.32-4.82-.32-2.42.39-4.83.39-2.41.08-4.82.08h-4.82c-2.41 0-2.41.28-4.82.28h-9.66c-2.41 0-2.42-.19-4.83-.19s-2.41-.16-4.82-.16h-4.82c-2.41 0-2.41-.16-4.83-.16s-2.41.39-4.82.39h-4.82c-2.41 0-2.41-.07-4.83-.07s-2.41-.43-4.82-.43-2.41.3-4.82.3H70c-2.41 0-2.41.08-4.83.08s-2.41-.42-4.82-.42-2.41.86-4.82.86-2.41-.56-4.83-.56-2.41-.34-4.82-.34-2.41-.06-4.82-.06h-4.79c-2.41 0-2.41.11-4.83.11s-2.44.34-4.82.34h-4.83c-2.42 0-2.41.21-4.82.21s-2.42-.1-4.83-.1S9.72 454 7.3 454s-2.41.07-4.83.07A2.58 2.58 0 010 451.91a2.76 2.76 0 012.47-2.34c2.41 0 2.41.82 4.82.82s2.41-.87 4.82-.87 2.41.69 4.82.69 2.41-.09 4.82-.09 2.41-.48 4.82-.48 2.41.76 4.82.76 2.41-.66 4.82-.66 2.41-.19 4.82-.19 2.41.54 4.82.54 2.41-.41 4.82-.41 2.41.66 4.82.66 2.41-.66 4.82-.66 2.41-.18 4.82-.18 2.41.23 4.82.23 2.41.61 4.82.61 2.41-.43 4.82-.43 2.41-.06 4.82-.06 2.41-.42 4.82-.42 2.41.43 4.82.43h4.82c2.41 0 2.41.33 4.82.33s2.42-.25 4.83-.25 2.41.48 4.82.48 2.41-.89 4.82-.89h4.82c2.41 0 2.41.56 4.82.56s2.41.3 4.82.3 2.41-.75 4.82-.75 2.41.43 4.82.43 2.41-.29 4.82-.29 2.42.36 4.83.36h4.82c2.41 0 2.41-.47 4.82-.47s2.41.82 4.82.82 2.41-.64 4.82-.64 2.41-.28 4.83-.28 2.41.83 4.82.83 2.41-.7 4.82-.7 2.41.45 4.82.45h4.82c2.41 0 2.41-.1 4.81-.1s2.41-.52 4.82-.52 2.41.19 4.82.19 2.41.51 4.82.51 2.41-.52 4.82-.52 2.41.71 4.82.71 2.41-.24 4.82-.24 2.41.2 4.82.2h9.65c2.41 0 2.41.09 4.82.09s2.41-.4 4.82-.4 2.41-.21 4.82-.21 2.41-.07 4.82-.07 2.42.54 4.83.54 2.41.16 4.82.16 2.41-.36 4.82-.36 2.41.23 4.83.23 2.41-.26 4.82-.26 2.41.38 4.82.38 2.41-.45 4.83-.45h4.82c2.41 0 2.41.21 4.83.21s2.41-.07 4.82-.07 2.41.13 4.83.13 2.41-.13 4.82-.13 2.41-.58 4.82-.58 2.41.88 4.83.88 2.41-.81 4.82-.81 2.41.83 4.82.83 2.42-.14 4.83-.14 2.41-.66 4.83-.66 2.41.38 4.82.38 2.41-.49 4.83-.49 2.41.75 4.82.75 2.42-.69 4.83-.69 2.42.66 4.84.66 2.41-.66 4.83-.66a2.64 2.64 0 012.27 2.42 2.27 2.27 0 01-2.27 1.87zM490.39 453.9c-2.47 0-2.47.38-4.93.38s-2.47-.19-4.93-.19-2.47-.57-4.93-.57-2.47.5-4.94.5-2.46.15-4.93.15-2.47-.74-4.93-.74-2.47.48-4.93.48-2.47.28-4.93.28-2.47-.55-4.93-.55-2.47-.06-4.93-.06h-4.94c-2.47 0-2.46.58-4.93.58s-2.47-.22-4.93-.22-2.47-.47-4.94-.47-2.46.8-4.93.8-2.47.07-4.94.07-2.47-.51-4.94-.51-2.47.39-4.94.39a2.19 2.19 0 01-1.92-2.27 2.23 2.23 0 011.92-2.32c2.47 0 2.47.13 4.93.13s2.47.1 4.94.1 2.46.32 4.93.32 2.46.07 4.93.07 2.47-.16 4.93-.16 2.47-.24 4.93-.24 2.47-.34 4.93-.34h4.93c2.46 0 2.47.76 4.93.76s2.47-.43 4.93-.43 2.47.44 4.94.44 2.46-.76 4.93-.76h4.93c2.46 0 2.47.63 4.94.63s2.47.26 4.93.26 2.47-.82 4.94-.82 2.47.18 4.94.18h4.94a2.26 2.26 0 012.08 2.21 2.07 2.07 0 01-2.08 1.92z" />
    </g>
</svg>