<svg class="svg svg-desert-right" xmlns="http://www.w3.org/2000/svg" viewBox="0 0 584.38 561.65">
    <g class="sun">
      <path d="M87.32 43.88c0 .69-.1 1.37-.13 2.06s.62 1.44.55 2.13-.34 1.37-.44 2-.66 1.3-.79 2-.45 1.3-.62 2 .36 1.53.16 2.19-.6 1.28-.83 1.93-.48 1.3-.74 1.94-.65 1.24-.94 1.86-.58 1.26-.9 1.87-.79 1.14-1.14 1.74-.87 1.08-1.24 1.66-.24 1.51-.64 2.08-1.12.89-1.55 1.43-.58 1.33-1 1.85-1.18.8-1.66 1.3-1 1-1.48 1.45-.72 1.27-1.24 1.72-1 1-1.56 1.41-1.36.51-1.93.91-1 1.07-1.53 1.45-1.18.76-1.78 1.1-1.6 0-2.22.27-1 1-1.67 1.28-1.2.7-1.84 1-1.26.6-1.92.83-1.44 0-2.11.21-1.13 1.02-1.85 1.19-1.49-.29-2.17-.16-1.35.25-2 .35-1.37.18-2.06.24-1.35.53-2 .57-1.4-.06-2.09-.06-1.45-.68-2.14-.68-1.41.43-2.1.36-1.39-.08-2.07-.18-1.32-.53-2-.66-1.49.31-2.16.15-1.23-.82-1.89-1-1.45 0-2.11-.25-1.24-.67-1.88-.93-1.07-1-1.7-1.27-1.38-.31-2-.63-1.3-.5-1.9-.85-1.06-.91-1.64-1.28-1.28-.58-1.84-1-.94-1-1.49-1.48-1.2-.71-1.72-1.16-1.39-.55-1.89-1-.38-1.59-.86-2.09-1.58-.43-2-1-.43-1.45-.85-2S8.41 70 8 69.41s-.67-1.23-1-1.81-.79-1.15-1.14-1.75-.37-1.38-.69-2-.92-1.11-1.17-1.74-.51-1.3-.76-2S3.27 58.67 3 58s-1-1.12-1.2-1.79 0-1.44-.11-2.12S1 52.86.84 52.17s-.39-1.34-.49-2-.16-1.42-.23-2.11 0-1.4 0-2.1v-2.08c0-.69.17-1.39.2-2.08s-.38-1.43-.32-2.11.45-1.36.55-2 .07-1.41.2-2.08.53-1.32.69-2 .56-1.31.76-1.97.3-1.35.53-2 0-1.48.26-2.12.78-1.19 1.07-1.82.84-1.13 1.15-1.75.31-1.41.66-2 1-1 1.41-1.58.39-1.41.79-2 1.31-.75 1.74-1.29.3-1.56.75-2.08 1.51-.51 2-1 .61-1.35 1.11-1.83 1-1 1.52-1.43 1.41-.45 2-.88.81-1.08 1.41-1.48 1.26-.59 1.84-1 1.25-.57 1.85-.92 1.14-.76 1.76-1.08 1.17-.71 1.8-1S27 3.49 27.6 3.23s1.3-.51 1.95-.74 1.28-.58 1.94-.78 1.39-.21 2.06-.37 1.41-.06 2.09-.19 1.33-.44 2-.54S39 .46 39.72.39s1.39.14 2.09.11 1.37.17 2.07.17S45.28 0 46 0h2.06c.68 0 1.28 1 2 1.13s1.36.15 2 .28 1.5-.38 2.17-.22 1.38.25 2.05.44 1.35.37 2 .6 1.33.44 2 .7 1 1.26 1.6 1.54 1.49.1 2.11.42 1.18.73 1.78 1.08 1 1 1.58 1.39 1.06.88 1.63 1.28 1.21.67 1.75 1.1 1.44.43 2 .88 1 1 1.5 1.46.89 1.08 1.37 1.58.75 1.19 1.21 1.71.75 1.16 1.18 1.7.61 1.23 1.01 1.8 1.35.75 1.72 1.33 1 1 1.37 1.62.14 1.51.45 2.12 1 1 1.31 1.68.43 1.33.69 2 .12 1.43.35 2.08.33 1.33.53 2 1.1 1.14 1.27 1.81.22 1.38.35 2.07.34 1.36.44 2-.55 1.46-.49 2.15.25 1.35.28 2.05.05 1.4.05 2.1zM442.32 51.19a4.08 4.08 0 00-3.9 4.16c0 2.19 1.71 4.44 3.9 4.44a4.59 4.59 0 004.19-4.44 4.33 4.33 0 00-4.19-4.16zM436.84 393.12a3.5 3.5 0 00-3.69 3.68 3.76 3.76 0 003.69 4 3.68 3.68 0 003.59-4 3.43 3.43 0 00-3.59-3.68z" />
    </g>
    <g class="birds">
      <path d="M56.63 190.53c-.7.44-1.84-.62-1.45-1.34.29-.54.72-1.09 1.09-1.74s.75-1.1 1.12-1.71.81-1.07 1.2-1.66.5-1.28.9-1.86.91-1 1.32-1.57.82-1.08 1.25-1.62.89-1 1.33-1.56 1-.93 1.47-1.42.8-1.13 1.29-1.6 1-1 1.48-1.42 1.09-.85 1.63-1.25 1-.93 1.62-1.27a19.75 19.75 0 012-.68 15.81 15.81 0 011.88-.77 11.55 11.55 0 012-.45 10.6 10.6 0 012-.22c.71 0 1.44-.16 2.13-.07s1.34.6 2 .75 1.45.06 2.11.27 1.37.41 2 .68 1.13.93 1.74 1.25 1.38.44 2 .81 1.27.68 1.82 1.08 1.08 1 1.6 1.4 1 1 1.51 1.49.85 1.2 1.28 1.68 1 1.09 1.39 1.57c.8 1 .22 1.7 1.26 1.58s.21-.67.71-1.8c.23-.52.54-1.13.91-1.78a19.16 19.16 0 011.1-1.68 18.9 18.9 0 011.24-1.57 18.73 18.73 0 011.57-1.25c.48-.43.71-1.23 1.28-1.62a18.36 18.36 0 011.84-.86 15.69 15.69 0 011.94-.54 14.72 14.72 0 011.84-.84 17.21 17.21 0 012-.33 13.44 13.44 0 012.09-.2 16.62 16.62 0 012.1.22c.67.14 1.27.61 1.94.82s1.23.6 1.88.89 1.44.19 2 .52 1 1 1.64 1.33 1.2.68 1.77 1.08 1 .93 1.58 1.35 1.12.81 1.65 1.26 1.09.86 1.61 1.32 1.21.74 1.71 1.21.86 1.12 1.34 1.61 1.1.89 1.58 1.38.91 1.08 1.36 1.57.86 1.13 1.31 1.63.91 1.09 1.34 1.58 1.2.88 1.61 1.34-.19 1-.66.75a16.4 16.4 0 01-1.81-1.07c-.53-.37-1.11-.77-1.73-1.23s-1.16-.75-1.75-1.2-1.16-.76-1.75-1.2-1-1-1.57-1.45-1.08-.92-1.67-1.32-1.44-.39-2-.76-1.05-1-1.66-1.37-1.37-.45-2-.76-1.17-.88-1.81-1.14-1.35-.55-2-.74a15.71 15.71 0 00-2.14-.18 12 12 0 00-2.11-.27c-.72 0-1.45 0-2.11.06s-1.29.71-1.94.89a19.71 19.71 0 00-2.06.42 12.64 12.64 0 00-1.75 1.16 14.76 14.76 0 00-1.77 1.11 16.81 16.81 0 00-1.65 1.33 17.8 17.8 0 00-1.11 1.8 16.86 16.86 0 00-1.13 1.76c-.36.62-.56 1.3-.84 1.91s-.76 1.24-1 1.85-.34 1.45-.52 2c-.27.88-.6 1.53-.74 2a.42.42 0 01-.76.16 18.45 18.45 0 01-1.35-1.55c-.33-.49-.5-1.2-.93-1.82s-.67-1.14-1.09-1.73-.76-1.09-1.18-1.65-.87-1-1.3-1.57-1-1-1.41-1.48-.73-1.17-1.2-1.67-.91-1-1.4-1.5-1.09-.83-1.61-1.27-1.14-.77-1.67-1.17-1.06-.89-1.63-1.23a14 14 0 00-1.87-.83 10.61 10.61 0 00-2-.49 9.24 9.24 0 00-2-.4 18.46 18.46 0 00-2.12.07 17.11 17.11 0 00-2 .68 16.92 16.92 0 00-2 .58 18.14 18.14 0 00-1.77 1.18c-.61.34-1.32.52-1.9.92s-1.13.84-1.68 1.28-1 1-1.54 1.44-1 1-1.45 1.53-1.26.76-1.73 1.27-.78 1.22-1.24 1.73-1 1-1.48 1.52-.85 1.17-1.3 1.66-1.07 1-1.53 1.45-.99 1.24-1.49 1.55zM24.6 218.65c-.38.23-1.15-.48-.94-.87s.69-1 1.08-1.67.75-1 1.14-1.62.84-1 1.25-1.53.58-1.22 1-1.72 1-.88 1.49-1.34a18.11 18.11 0 011.49-1.29 12.91 12.91 0 011.67-1.05 8.58 8.58 0 011.86-.6 6.7 6.7 0 011.9-.43 13.61 13.61 0 012 .17 13.83 13.83 0 011.89.56 14.69 14.69 0 011.87.66c.59.33 1 1 1.48 1.34a15.07 15.07 0 011.53 1.2 18.85 18.85 0 011.35 1.41c.77.9.31 1.8 1.23 1.49s0-1 .67-2.1c.32-.56 1.06-.95 1.59-1.55a8.88 8.88 0 011.44-1.66A8.57 8.57 0 0153.5 207a10.45 10.45 0 012.21-.11 7.26 7.26 0 012.12-.19 10.57 10.57 0 012.11.49 17 17 0 011.89 1.06c.6.36 1.16.81 1.74 1.24s1 1.05 1.52 1.52 1.12.89 1.62 1.38 1.15.9 1.62 1.4 1 1.13 1.39 1.62 1 1.16 1.41 1.59a.25.25 0 01-.31.39 15.8 15.8 0 01-1.76-1.12c-.51-.36-1-1-1.57-1.39s-1.4-.38-2-.77-1.06-.92-1.67-1.26a20.93 20.93 0 00-1.77-1.18 12.92 12.92 0 00-2.08-.4 7.78 7.78 0 00-2.06-.22 9.29 9.29 0 00-2.15.47 7.73 7.73 0 00-2 .85 8.83 8.83 0 00-1.92 1.09 11.1 11.1 0 00-1.52 1.66 10.88 10.88 0 00-.61 2.18c-.38.93-.9 1.59-1 2-.06.21-.19.27-.32.09s-.54-1-1.12-1.75c-.38-.49-.87-1-1.36-1.58s-1-1-1.46-1.48-1.18-.75-1.72-1.18a13.31 13.31 0 00-1.57-1.4 8.81 8.81 0 00-1.92-.73 6.1 6.1 0 00-2-.41 11.14 11.14 0 00-2.19.15 11.84 11.84 0 00-2.09.66 13.47 13.47 0 00-1.75 1.33 20.9 20.9 0 00-1.94 1c-.59.48-1.11 1-1.61 1.5s-1.07 1.07-1.55 1.53a16.64 16.64 0 01-1.51 1.62z" />
    </g>
    <g class="scene">
      <path d="M582.11 561.18c-2.41 0-2.41-.21-4.82-.21s-2.41.3-4.82.3h-4.82c-2.41 0-2.41.29-4.82.29s-2.41-.83-4.82-.83-2.41.08-4.82.08-2.41-.14-4.82-.14-2.41.24-4.82.24-2.41.67-4.82.67-2.41-.13-4.82-.13-2.41-.24-4.82-.24-2.41.08-4.82.08-2.41-.07-4.82-.07-2.41-.51-4.82-.51-2.41.39-4.82.39-2.41.46-4.83.46-2.41-.14-4.82-.14-2.41-.4-4.82-.4-2.41.42-4.82.42-2.41-.49-4.82-.49-2.41.25-4.82.25-2.41-.08-4.82-.08-2.41-.28-4.82-.28-2.41.48-4.82.48-2.41-.62-4.82-.62-2.41.35-4.82.35-2.41-.12-4.82-.12-2.42.13-4.83.13-2.41-.23-4.82-.23h-4.82c-2.41 0-2.41.36-4.82.36s-2.41-.45-4.82-.45-2.41.67-4.82.67-2.41-.21-4.82-.21-2.42-.15-4.83-.15-2.41.34-4.82.34-2.41-.43-4.82-.43-2.41-.28-4.82-.28h-4.82c-2.41 0-2.41.08-4.82.08h-4.82c-2.41 0-2.41.43-4.82.43h-4.81c-2.41 0-2.42-.19-4.83-.19s-2.41.32-4.82.32-2.41.21-4.82.21-2.41-.43-4.82-.43-2.41-.32-4.82-.32-2.41.39-4.82.39-2.41.08-4.82.08h-4.82c-2.41 0-2.41.28-4.82.28h-9.65c-2.41 0-2.41-.19-4.82-.19s-2.41-.16-4.82-.16h-4.83c-2.41 0-2.41-.17-4.82-.17s-2.41.39-4.82.39h-4.83c-2.42 0-2.41-.07-4.82-.07s-2.41-.43-4.82-.43-2.42.3-4.83.3h-4.82c-2.42 0-2.42.08-4.83.08s-2.41-.42-4.82-.42-2.41.86-4.82.86-2.42-.56-4.83-.56-2.41-.34-4.82-.34-2.41-.06-4.83-.06h-4.82c-2.42 0-2.42.11-4.83.11s-2.41.41-4.82.41h-4.83c-2.41 0-2.41.21-4.83.21s-2.41-.1-4.83-.1-2.41-.07-4.83-.07-2.42.07-4.83.07a2.57 2.57 0 01-2.47-2.13 2.75 2.75 0 012.47-2.34c2.41 0 2.41.82 4.82.82s2.41-.87 4.82-.87 2.41.69 4.82.69 2.41-.08 4.81-.08 2.41-.49 4.82-.49 2.41.76 4.82.76 2.41-.66 4.82-.66 2.41-.19 4.83-.19 2.41.54 4.82.54 2.41-.41 4.82-.41 2.41.66 4.82.66 2.41-.66 4.81-.66 2.41-.18 4.82-.18 2.41.23 4.83.23 2.41.61 4.82.61 2.41-.43 4.82-.43 2.41-.06 4.82-.06 2.41-.42 4.82-.42 2.41.43 4.82.43h4.82c2.41 0 2.41.33 4.82.33s2.41-.25 4.82-.25 2.41.48 4.82.48 2.41-.89 4.82-.89h4.82c2.42 0 2.42.56 4.83.56s2.41.3 4.82.3 2.41-.75 4.82-.75 2.41.43 4.82.43 2.41-.29 4.82-.29 2.41.36 4.82.36h4.83c2.42 0 2.41-.47 4.82-.47s2.41.82 4.82.82 2.41-.64 4.82-.64 2.41-.28 4.82-.28 2.41.83 4.82.83 2.41-.7 4.82-.7 2.42.45 4.83.45h4.81c2.41 0 2.41-.1 4.82-.1s2.41-.52 4.82-.52 2.41.19 4.82.19 2.41.51 4.82.51 2.41-.52 4.82-.52 2.41.71 4.82.71 2.41-.23 4.82-.23 2.41.19 4.82.19H447c2.41 0 2.41.09 4.82.09s2.42-.4 4.83-.4 2.41-.21 4.82-.21 2.41-.07 4.82-.07 2.41.54 4.82.54 2.42.16 4.83.16 2.41-.36 4.82-.36 2.41.23 4.82.23 2.41-.26 4.83-.26 2.41.38 4.82.38 2.41-.45 4.82-.45h4.83c2.41 0 2.41.22 4.82.22s2.41-.08 4.83-.08 2.41.13 4.82.13 2.41-.13 4.83-.13 2.41-.58 4.82-.58 2.41.88 4.82.88 2.41-.81 4.82-.81 2.42.83 4.83.83 2.41-.14 4.83-.14 2.41-.66 4.82-.66 2.41.38 4.83.38 2.41-.49 4.82-.49 2.42.75 4.83.75 2.41-.69 4.83-.69 2.42.66 4.83.66 2.42-.66 4.84-.66a2.64 2.64 0 012.27 2.42 2.27 2.27 0 01-2.26 1.77zM180.39 561.15c-2.46 0-2.46.38-4.93.38s-2.47-.19-4.93-.19-2.47-.57-4.93-.57-2.47.5-4.94.5-2.46.16-4.93.16-2.46-.75-4.93-.75-2.46.48-4.93.48-2.46.28-4.93.28-2.46-.55-4.93-.55-2.46-.06-4.93-.06h-4.93c-2.46 0-2.47.58-4.94.58s-2.46-.22-4.93-.22-2.47-.46-4.94-.46-2.46.79-4.93.79-2.47.07-4.94.07S99 561 96.53 561s-2.47.39-4.94.39a2.19 2.19 0 01-1.92-2.27 2.23 2.23 0 011.92-2.32c2.47 0 2.47.13 4.94.13s2.46.1 4.93.1 2.46.33 4.93.33 2.46.07 4.93.07 2.47-.17 4.93-.17 2.47-.24 4.94-.24 2.46-.34 4.92-.34h4.94c2.47 0 2.46.75 4.92.75s2.47-.43 4.94-.43 2.46.44 4.93.44 2.47-.75 4.93-.75h4.94c2.46 0 2.46.63 4.93.63s2.47.26 4.93.26 2.47-.82 4.94-.82 2.47.18 4.94.18h4.94a2.24 2.24 0 012.08 2.2 2.06 2.06 0 01-2.08 2.01z" />
      <path d="M512.87 559.9a2.5 2.5 0 01-2.5-2.5 7.14 7.14 0 01.16-1.55 1.8 1.8 0 00.06-.5 11.19 11.19 0 01.06-1.28 6.29 6.29 0 000-.77.76.76 0 00-.05-.32 5.94 5.94 0 01-.24-1.73 6.52 6.52 0 01.16-1.54 1.8 1.8 0 00.06-.5 3.69 3.69 0 00-.05-.66 7.53 7.53 0 01-.11-1.39v-1.15-.9a11.1 11.1 0 01.07-1.27 6.29 6.29 0 000-.77 1.77 1.77 0 00-.06-.49 6.56 6.56 0 01-.17-1.56 5 5 0 01.36-1.91v-.09a4.75 4.75 0 01-.48-2.1 4.57 4.57 0 01.47-2.06 4.68 4.68 0 01-.44-2 9.11 9.11 0 01.09-1.37 3.94 3.94 0 00.05-.68v-.92-1.13c0-.56 0-.93.05-1.24a7.1 7.1 0 000-.81v-1-1.06a6.93 6.93 0 01.16-1.53 1.9 1.9 0 00.06-.52 1.7 1.7 0 00-.06-.48 6.54 6.54 0 01-.17-1.57v-2a7 7 0 01.15-1.53 2 2 0 00.05-.52 11 11 0 01.06-1.24v-.8a4.62 4.62 0 01-.44-2 6.73 6.73 0 01.15-1.5 2.19 2.19 0 00.05-.55 3.12 3.12 0 00-.05-.6 7.84 7.84 0 01-.13-1.45 10.8 10.8 0 01.07-1.27 6.63 6.63 0 000-.78 7.61 7.61 0 01.14-1.5 2.12 2.12 0 00.06-.54.41.41 0 000-.12v-.1a5.23 5.23 0 01-.31-1.83 5.81 5.81 0 01.24-1.72.78.78 0 00.05-.33 1.1 1.1 0 00-.05-.41 5.83 5.83 0 01-.21-1.64 4.8 4.8 0 01.39-2v-.1a4.28 4.28 0 00-.07-.63 9.18 9.18 0 01-.1-1.4 1.77 1.77 0 00-.06-.49 6.51 6.51 0 01-.17-1.56 5 5 0 01.35-1.9v-.11a2.09 2.09 0 00-.06-.48 6 6 0 01-.2-1.61v-1.16-.89a4.07 4.07 0 00-.05-.69 9.06 9.06 0 01-.09-1.36v-1.21-.84a7.89 7.89 0 01.1-1.38 4 4 0 000-.67c0-.61 0-.92.05-1.22a8.28 8.28 0 000-.84v-1.16-.89a3.69 3.69 0 000-.66 8.91 8.91 0 01-.1-1.39 9.11 9.11 0 01.09-1.37 3.94 3.94 0 000-.68 8.7 8.7 0 000-.87v-1.18a1.36 1.36 0 000-.41 5.83 5.83 0 01-.21-1.64 7.89 7.89 0 01.12-1.45 3.24 3.24 0 00.05-.61.68.68 0 00-.05-.3 5.62 5.62 0 01-.26-1.75c0-.62 0-.93.05-1.24a7.17 7.17 0 000-.82v-1-1.07a11 11 0 01.07-1.3 6.23 6.23 0 000-.76 2.5 2.5 0 015 0 10.92 10.92 0 01-.07 1.29 6.29 6.29 0 000 .77V462.4a7.17 7.17 0 000 .82.68.68 0 00.05.3 5.62 5.62 0 01.26 1.75 7.89 7.89 0 01-.12 1.45 2.57 2.57 0 000 .61 1.07 1.07 0 000 .4 6.31 6.31 0 01.21 1.65v2.05a9.32 9.32 0 01-.09 1.37 3.08 3.08 0 000 .68 2.94 2.94 0 000 .66 9 9 0 01.1 1.39V478.8a7.6 7.6 0 000 .84 9.22 9.22 0 01-.09 1.37 3.86 3.86 0 000 .68v1.2a8.37 8.37 0 000 .85 4 4 0 000 .68 9.09 9.09 0 01.1 1.37v2.05a1.18 1.18 0 00.06.43 6.74 6.74 0 01.19 1.62 5.18 5.18 0 01-.34 1.89v.11a1.54 1.54 0 00.06.53 7.12 7.12 0 01.17 1.57 3.52 3.52 0 000 .64 9.23 9.23 0 01.1 1.41 4.9 4.9 0 01-.38 2v.11a1.76 1.76 0 00.06.39 5.83 5.83 0 01.21 1.64 5.74 5.74 0 01-.24 1.71.83.83 0 000 .34V502.44a5.24 5.24 0 01.31 1.84 6.8 6.8 0 01-.15 1.5 2.06 2.06 0 000 .54 10.8 10.8 0 01-.07 1.27 6.63 6.63 0 000 .78 2.41 2.41 0 00.06.6 7.89 7.89 0 01.12 1.45 7.69 7.69 0 01-.14 1.5 2 2 0 00-.06.54 4.66 4.66 0 01.43 2v1.23a7.32 7.32 0 000 .82 7 7 0 01-.15 1.52 2 2 0 000 .53v2a1.76 1.76 0 000 .49 6.37 6.37 0 01.18 1.56 6.93 6.93 0 01-.16 1.53 2 2 0 00-.06.52v2.06a11 11 0 01-.06 1.24V530.82a7.85 7.85 0 01-.1 1.37 3.67 3.67 0 000 .64 14.34 14.34 0 00.45 6.16 5 5 0 01-.35 1.91v.11a1.86 1.86 0 00.06.52 6.56 6.56 0 01.17 1.56 9.16 9.16 0 01-.07 1.27 6.43 6.43 0 000 .77v2.05a3.69 3.69 0 000 .66 7.53 7.53 0 01.11 1.39 6.37 6.37 0 01-.17 1.54 1.88 1.88 0 00-.05.5.78.78 0 00.05.33 5.81 5.81 0 01.24 1.72 11.4 11.4 0 01-.06 1.29 6.23 6.23 0 000 .76 6.46 6.46 0 01-.17 1.55 1.83 1.83 0 000 .5 2.5 2.5 0 01-2.76 2.48z" />
      <path d="M519.41 531c-.42 0-.81 0-1.16-.07h-.58a15.78 15.78 0 01-1.82-.2l-.41-.06a7.79 7.79 0 00-.79-.08 5.24 5.24 0 01-1.49-.26 2 2 0 111.08-3.85 1.46 1.46 0 00.59.11c.24 0 .56 0 1.17.12l.47.07a10 10 0 001.35.15c.27 0 .54 0 .82.07a6.9 6.9 0 001 0 8.1 8.1 0 011 0 4.53 4.53 0 00.79 0 5.48 5.48 0 00.5-.31 8 8 0 011-.56c.23-.11.48-.21.72-.31a3.38 3.38 0 00.71-.34l.22-.18a6 6 0 00.88-.84c0-.11.09-.35.13-.53.08-.34.16-.7.27-1.06s.17-.47.26-.71a9.11 9.11 0 00.35-1.09c.05-.26.12-.52.18-.79s.19-.76.26-1.16a5.87 5.87 0 000-.77 9.44 9.44 0 01.06-1.26c.05-.43.09-.86.13-1.31l.07-.73c0-.37.1-.75.17-1.13s.11-.6.14-.91a7.69 7.69 0 000-.83v-1.24a5.76 5.76 0 000-.81 10.11 10.11 0 010-1.27c0-.37.07-.75.11-1.13s.07-.62.09-.93c0-.7.05-1.39.07-2.08a12.09 12.09 0 01.11-1.21c0-.29.07-.58.08-.87s0-.77.07-1.15.06-.62.06-.93 0-.81.08-1.2.06-.6.06-.89v-1-1.08a8.67 8.67 0 00-.06-.89c0-.41-.08-.8-.08-1.19s0-.84.06-1.25 0-.57 0-.84 0-.71-.05-1 0-.71 0-1.05v-1.29-.79a1.51 1.51 0 00-.07-.6 4.66 4.66 0 01-.25-1.46 2 2 0 011.94-2.06h.06a2 2 0 012 1.93.92.92 0 000 .33 5 5 0 01.28 1.78v2.88c0 .28.06.84.06 1.28s0 .78-.05 1.19 0 .61 0 .92a7.36 7.36 0 00.06.8 12.62 12.62 0 01.08 1.31v2.11c0 .32 0 .81-.08 1.22s-.06.6-.06.9 0 .8-.07 1.21-.06.6-.06.9-.06.84-.11 1.27a8 8 0 00-.08.84c0 .7 0 1.41-.08 2.11 0 .42-.06.83-.11 1.24s-.07.58-.08.87a7 7 0 000 .8 11.51 11.51 0 010 1.33v.82a9.25 9.25 0 01-.19 2.63c0 .27-.1.53-.12.8l-.07.7c0 .48-.08 1-.14 1.43a7.13 7.13 0 000 .8 9.62 9.62 0 01-.08 1.37c-.09.55-.22 1.06-.33 1.51-.05.22-.11.44-.15.65a13.16 13.16 0 01-.51 1.65l-.2.54c-.07.24-.12.48-.17.7a5.22 5.22 0 01-.69 1.87 8.51 8.51 0 01-1.67 1.71l-.2.16a5.8 5.8 0 01-1.81 1l-.47.2c-.16.08-.31.19-.47.29a5.65 5.65 0 01-1.74.86 6.71 6.71 0 01-1.82.15 5.56 5.56 0 00-.58 0zM505.26 501.8a13.15 13.15 0 01-1.48-.11h-.69a6 6 0 01-2.27-.47 6.38 6.38 0 01-1.82-1.43c-.11-.11-.21-.22-.32-.32a6.84 6.84 0 01-1.18-1.65c-.09-.15-.18-.31-.28-.46a14.33 14.33 0 01-1.11-2.14 4.63 4.63 0 00-.3-.55 6.71 6.71 0 01-.65-1.34c-.22-.66-.42-1.33-.61-2-.07-.25-.15-.49-.23-.73-.14-.42-.28-.85-.38-1.27a6 6 0 01-.13-1.56 4.37 4.37 0 000-.54 3.33 3.33 0 00-.21-.53 6.35 6.35 0 01-.46-1.45 6.11 6.11 0 010-1.52 3.65 3.65 0 000-.56 3.85 3.85 0 00-.17-.6 6.2 6.2 0 01-.34-1.41 9.37 9.37 0 010-1.38v-.69a10.72 10.72 0 010-1.4 3.86 3.86 0 00-.1-1.42 6.1 6.1 0 01-.17-1.28 8.47 8.47 0 01.08-1.5 4.62 4.62 0 00.05-.6 2 2 0 012.09-1.9 2 2 0 011.91 2.09 8.19 8.19 0 01-.09 1 4.24 4.24 0 000 .9 3.7 3.7 0 00.09.51 8.08 8.08 0 01.2 1.41 9.51 9.51 0 010 1.06 6.68 6.68 0 000 .88v1.1a5.91 5.91 0 000 .85 4.27 4.27 0 00.15.54 6.58 6.58 0 01.35 1.35 7.44 7.44 0 010 1.33 4.47 4.47 0 000 .62 3.69 3.69 0 00.2.51 7.21 7.21 0 01.45 1.34 6.24 6.24 0 01.09 1.38 3 3 0 000 .56 8.76 8.76 0 00.29 1c.09.29.19.58.27.88.18.6.36 1.22.56 1.82a3.8 3.8 0 00.31.58 7.62 7.62 0 01.57 1.11 9.32 9.32 0 00.8 1.51c.12.2.24.39.34.58a4.22 4.22 0 00.49.75l.39.4a5.4 5.4 0 00.68.61 3 3 0 00.78.09l.68.05h.25a5.74 5.74 0 001.32.07h.21a9.57 9.57 0 001.51-.3 5.13 5.13 0 00.9-.46c.25-.15.48-.29.71-.4.5-.25.79-.37 1-.46a1.86 1.86 0 00.58-.34 2 2 0 012.34 3.24 5.2 5.2 0 01-1.41.8c-.16.07-.37.15-.72.33-.16.08-.31.17-.47.27a8.87 8.87 0 01-1.66.81 12.5 12.5 0 01-2.21.47h-.21a6.73 6.73 0 01-.97-.03zM247.13 559.93a2 2 0 01-2-2 1.53 1.53 0 00-.07-.51 5.34 5.34 0 01-.21-1.55 6.9 6.9 0 01.13-1.37 2.94 2.94 0 00.06-.67 10.1 10.1 0 01.07-1.25 6.9 6.9 0 000-.8 2.88 2.88 0 00-.06-.67 7.24 7.24 0 01-.12-1.38v-1.13-.92a4.88 4.88 0 00-.05-.8 10.1 10.1 0 01-.07-1.25 10.62 10.62 0 01.06-1.22 7.53 7.53 0 000-.83v-1-1.08a2.85 2.85 0 00-.06-.66 7.24 7.24 0 01-.13-1.39 8.1 8.1 0 01.1-1.31 4.48 4.48 0 00.05-.74 6.48 6.48 0 01.15-1.44 2.44 2.44 0 00.06-.61v-.1a.61.61 0 000-.12 4.19 4.19 0 01-.39-1.83v-1.06-1a5.63 5.63 0 01.18-1.51 1.69 1.69 0 00.07-.54 2.94 2.94 0 00-.06-.67 7.52 7.52 0 01-.12-1.37 6.56 6.56 0 01.15-1.44 2.44 2.44 0 00.06-.61c0-.59 0-.88.05-1.18s0-.43 0-.87V521v-1-1.09-1.06-1-1.1-1a4.67 4.67 0 00-.05-.76 8.12 8.12 0 01-.09-1.29 1.39 1.39 0 00-.07-.48 5.15 5.15 0 01-.22-1.57 6.64 6.64 0 01.12-1.37 3.91 3.91 0 00.06-.69v-.91-1.14-1.16-.89-1.16-.89a7.17 7.17 0 01.12-1.36 4 4 0 00.06-.7 1.45 1.45 0 00.09-.38 5.41 5.41 0 01-.21-1.56A6 6 0 01245 497a1.75 1.75 0 00.07-.55 2.81 2.81 0 00-.06-.65 6.53 6.53 0 01-.13-1.4v-1.15-.91a2.22 2.22 0 00-.07-.64 7.41 7.41 0 01-.13-1.41 11 11 0 01.05-1.21 7.82 7.82 0 000-.85v-.92-1.14a2 2 0 014 0v2.06a10.34 10.34 0 01-.06 1.2v.86a2.72 2.72 0 00.06.64 6.4 6.4 0 01.14 1.41v2.06a2.81 2.81 0 00.06.65 7.18 7.18 0 01.13 1.4 6.07 6.07 0 01-.18 1.51 1.65 1.65 0 00-.07.54 1.26 1.26 0 00.07.5 5.34 5.34 0 01.21 1.55 7.17 7.17 0 01-.12 1.36 4 4 0 00-.06.7V508.76a7.64 7.64 0 01-.12 1.38 3 3 0 00-.06.68 1.24 1.24 0 00.07.48 5.5 5.5 0 01.22 1.57 4.62 4.62 0 00.05.75 8.38 8.38 0 01.09 1.3V524.41a8.11 8.11 0 000 .87 5.82 5.82 0 01-.15 1.43 2.59 2.59 0 00-.06.62 2.94 2.94 0 00.06.67 6.78 6.78 0 01.12 1.37 5.59 5.59 0 01-.19 1.52 1.65 1.65 0 00-.06.53v2.18l.05.11a4.23 4.23 0 01.39 1.83 6.54 6.54 0 01-.14 1.43 2.12 2.12 0 00-.07.62 8.66 8.66 0 01-.09 1.31 4.28 4.28 0 00-.06.74 2.83 2.83 0 00.07.66 7.28 7.28 0 01.12 1.39v2.08a10.41 10.41 0 01-.06 1.21 7.6 7.6 0 000 .84 6.33 6.33 0 000 .79 10.3 10.3 0 01.07 1.26V549.92a2.94 2.94 0 00.06.67 7.15 7.15 0 01.12 1.38 10 10 0 01-.07 1.24 7 7 0 000 .81 7.52 7.52 0 01-.12 1.37 2.86 2.86 0 00-.07.67 1.53 1.53 0 00.07.51 5.34 5.34 0 01.21 1.55 2 2 0 01-2.23 1.81z" />
      <path d="M248.78 532.82c-.82 0-1.26 0-1.65-.08a12.06 12.06 0 00-1.3-.06 6.54 6.54 0 01-2-.35l-.53-.15a5.54 5.54 0 00-.57-.07 5.35 5.35 0 01-1.95-.43 6.47 6.47 0 01-1.63-1.14c-.14-.13-.29-.26-.43-.37a8.15 8.15 0 01-1.43-1.47l-.29-.36a10.64 10.64 0 01-1.35-2.09l-.18-.33a8.56 8.56 0 01-.85-1.94 5.21 5.21 0 00-.2-.5 5.36 5.36 0 01-.55-2 4.33 4.33 0 01.31-1.86.42.42 0 00.05-.27c0-.45 0-.68-.05-.9s0-.58-.07-1.16a2.71 2.71 0 00-.08-.67 7.2 7.2 0 01-.16-1.39 3.92 3.92 0 00-.07-.71 6.6 6.6 0 01-.14-1.34 4.22 4.22 0 01.28-1.75.65.65 0 00.06-.32v-1.1-.95a3.42 3.42 0 00-.08-.68 7 7 0 01-.15-1.37c0-.45 0-.67-.06-.89s-.05-.58-.06-1.16a8.4 8.4 0 010-1.29 5.05 5.05 0 000-.77 10.21 10.21 0 010-1.28 6.63 6.63 0 000-.78 2 2 0 114-.1 8.18 8.18 0 01-.05 1.28 5.28 5.28 0 000 .78 10.3 10.3 0 010 1.28 4.1 4.1 0 000 .77v.9c0 .22.05.58.07 1.16a2.89 2.89 0 00.07.68A6.85 6.85 0 01238 509v2.05a4.19 4.19 0 01-.28 1.75.65.65 0 00-.06.32 3.67 3.67 0 00.08.71 8.51 8.51 0 01.14 1.34 3.3 3.3 0 00.08.67 7.2 7.2 0 01.16 1.39c0 .44 0 .67.05.89a11.62 11.62 0 01.07 1.16 4.51 4.51 0 01-.31 1.8.58.58 0 00-.05.14.45.45 0 000 .12c0 .06.14.35.22.54a8 8 0 01.39 1A5.74 5.74 0 00239 524l.2.37a7.9 7.9 0 00.86 1.38l.36.44a5.43 5.43 0 00.74.8c.22.17.43.35.65.54a3.72 3.72 0 00.67.52 3.5 3.5 0 00.6.08 10.19 10.19 0 011.09.14 8.56 8.56 0 01.83.23 3.6 3.6 0 00.8.18 14.49 14.49 0 011.66.08 12.06 12.06 0 001.3.06 3.63 3.63 0 00.74-.2c.31-.1.62-.2.92-.27l.44-.09a6.26 6.26 0 001.21-.33 8.82 8.82 0 001.51-.83 4.66 4.66 0 00.66-.77c.15-.18.29-.37.44-.54a8.31 8.31 0 00.9-1.42l.22-.4a5.39 5.39 0 00.51-1.13 4.94 4.94 0 00.08-1.1v-.6a2.65 2.65 0 00-.05-.67 7.92 7.92 0 01-.09-1.36 10 10 0 01.08-1.24c0-.21 0-.42.05-.84v-2.08a9.45 9.45 0 01.1-1.3 4.53 4.53 0 00.07-.78c0-.61 0-.91.07-1.21a7.5 7.5 0 00.05-.87 9.25 9.25 0 01.09-1.25 6.63 6.63 0 00.05-.82v-1.09-1a3.91 3.91 0 000-.76 8.11 8.11 0 01-.07-1.32 9.3 9.3 0 01.09-1.26 6.63 6.63 0 00.05-.82 7.49 7.49 0 000-.9v-1.19a2 2 0 012-2 2 2 0 012 2v2.09a9.3 9.3 0 01-.09 1.26 6.63 6.63 0 00-.05.82 4.08 4.08 0 000 .77 9.2 9.2 0 01.07 1.31v2.09a12 12 0 01-.08 1.25 6.17 6.17 0 00-.06.82c0 .61 0 .92-.07 1.22a7.45 7.45 0 00-.05.86 9 9 0 01-.11 1.3 6 6 0 00-.06.78v2.08a9.92 9.92 0 01-.08 1.23 7 7 0 000 .84 2.74 2.74 0 000 .7 7.36 7.36 0 01.09 1.39v.53a8.21 8.21 0 01-.21 2.07 8.87 8.87 0 01-.86 2l-.18.34a11.39 11.39 0 01-1.39 2.15l-.33.42a7.71 7.71 0 01-1.4 1.5 12.34 12.34 0 01-2.25 1.28 9.09 9.09 0 01-2.1.62l-.38.09a3.68 3.68 0 00-.54.16 6.43 6.43 0 01-1.97.47z" />
    </g>
</svg>