<svg xmlns="http://www.w3.org/2000/svg" viewBox="0 0 1871.3 405.8">
  <path d="M317.1 0a42.4 42.4 0 004.2 1.5 55 55 0 0136 28.6c5.7 10.4 11 20.9 16.4 31.4l2.6 4.4c11.8-9.6 24.4-18.2 30.4-33.2l.5 6 4.1-6v10.6c0 2.4.5 3.9 3.3 4.5 8.4 2 15.7 5.1 17.8 15.1.4 2 5 3.4 7.8 4.4 9.3 3.3 9.6 4.5 6 14-3.7 10.1-12.6 11.3-21.1 13.2-3.9.9-8 .2-12 .6-1.5.2-3.8 1.4-4.3 2.7a39 39 0 005 40c.7 1 2.5 1.3 4 1.5a34 34 0 0130.4 31.7c.8 12.7.4 25.6.5 38.4v67.3c0 15.6-6.7 27.2-20.8 34-4.2 2.1-9.2 2.6-14.5 3.9 0 1.1-.3 2.9-.3 4.6v60.4c0 16.5-9.6 26-26 26h-24.6c-16.7 0-26.2-9.4-26.3-26.3v-65.5H113.4l-.3 5.4c0 19.8-.2 39.6 0 59.3.3 14.5-8.8 28.5-27.1 27.2-8.3-.5-16.6 0-25 0-14.6 0-24.6-9.7-24.7-24.4-.2-20.6 0-41.2 0-61.8v-5.1a15 15 0 00-2.6-.8 35.7 35.7 0 01-33.5-36Q0 226.3.2 175.2a37.2 37.2 0 0124.6-34.8c1.4-.5 3-1.8 3.3-3q4.8-20.9 9-41.8a63.8 63.8 0 00.9-11c.1-3.9-2-6.2-5.9-6.6-5.1-.6-10.2-1.4-15.3-1.8C6.5 75.5-2 64.5.4 54.5c.4-1.4 2.8-3.1 4.4-3.3 3.1-.3 6.3.4 9.4.8 6 .8 11.4-.6 16.8-3.4 4.6-2.4 10-3.7 15.1-4.7 3.4-.6 5.4-1.5 7-5 1.9-4 5-7.7 8-11.2 1.2-1.5 3.4-2.2 5.6-3.6l1 6 6.2-.6c0 8.8-.1 17.2 0 25.6 0 1.3 1.5 2.5 2.8 4.6 3.3-6.4 6.4-12 9.1-17.7 5.2-10.9 10.5-21.8 20.4-29.1 5.8-4.3 12.6-7.3 19-10.6 2.2-1.1 4.7-1.5 7-2.3zm15.6 126.3a8.8 8.8 0 001.3-1c7.6-12.4 15.2-24.9 22.6-37.4a4.8 4.8 0 00-.2-4c-7-13.6-13.8-27.3-21.3-40.6a28.6 28.6 0 00-26.6-15.5h-167a29.8 29.8 0 00-28.2 17C103.7 63 94.3 81.3 85 99.7c-3.4 6.6-3.5 9.6 1.8 14.4 9 8.2 18.5 15.8 27.8 23.5a8.8 8.8 0 005 1.6H142c1.2 0 3-.5 3.4-1.2 2.5-5.6 4.8-11.2 6.7-17 2-6 3.4-12.4-.9-18.3a1.7 1.7 0 01-.1-1c0-3-1.7-4.2-4.3-5.2a26.1 26.1 0 01-15.2-15c-2.3-5.8 0-9 6-8 4.5 1 8.8 3 13 5 3.5 1.8 6.5 4 11 1.9a15.7 15.7 0 019.8-.4c4.7 1.3 8.2 0 12.2-2.2a36.6 36.6 0 0111-4.1c6-1 8.4 2.1 6 7.5-1.2 3-2.7 6.5-5.2 8.3a38 38 0 00-13.8 19.5c-.3 1-1.2 2.3-.8 3 3.6 7.3 2.6 16 7.7 23 2.2 3.1 4 4.4 7.7 4.4q26-.3 52 0c5 0 9.3.2 9.6-6.5 0-1.8 1.6-3.6 2.4-5.4 1.3-3.4 3-6.8 3.7-10.3s2.4-4.2 5.4-4.2a10.3 10.3 0 004.1-.7c7.3-3.2 10.4-10 14.8-16.4a45.7 45.7 0 01-26.6-12.7l-12.3 7-.7-1 8.7-6.8-10.7-.9v-1.1l13-1-11.2-6.9.5-1 7.2 2.7c2.7-4.8 5.2-9.1 7.4-13.5a70.3 70.3 0 003.6-8.2c.8-2.3 1.2-4.6 1.9-6.9 2.3.9 5.1 1.3 6.8 2.8 3 2.7 5.8 2.7 9.6 2.3a86.7 86.7 0 0119.8-.2c4.6.6 7.8.3 10.9-3.3s4.9-3 6.2 1.8c.8 3 .9 7 2.9 8.7 5.3 4.7 9.1 9.8 9.2 17.4l9.5-3.9.5 1.1-11.8 7 13.2 1v1.3l-10.4.8 8 6.6-.7.8-12.4-7a41 41 0 01-26.6 12.9 33 33 0 0022.8 17.8c1.4.3 2.6 2.8 3.4 4.6a85.5 85.5 0 012.8 8.2zm-220.9 84.8a93.7 93.7 0 00-1.7-10.2c-4-15-13.4-25.3-28.9-28.5-14.9-3.1-26.8 3-35.8 14.6a45.8 45.8 0 00-.1 51.2 35.4 35.4 0 0057.7 1 46 46 0 008.8-28.1zm300 .1c-.1-1.3-.3-4-.7-6.6a38.8 38.8 0 00-29.4-32.3 35.6 35.6 0 00-37.4 16.6 45.6 45.6 0 00-2.5 43c6.5 16 27.2 25.8 43.5 20 16.6-5.8 26.6-20.6 26.5-40.7zM1446.5 28.1l48.6-13.4v239h-48.2l-.4-8.3a14.6 14.6 0 00-2.4.9c-40.7 24.9-82.6 6.4-101.4-31.2-33.2-66.3 25.4-128.6 82.4-125.3 7.1.4 14.1 2 21.4 3zm.1 152.5c0-12.3.2-24.6 0-37a36 36 0 00-13-28.4c-9.5-8-21.2-8-30.3.5a45 45 0 00-9 11.8 89.1 89.1 0 00-7.2 58.2 72 72 0 0017.1 38c11.9 13 27.6 13.2 39.8.7a9.5 9.5 0 002.5-6c.3-12.6.1-25.2.1-37.8zM812.5 257.6c-27.7-.9-51-8.7-69.3-28.6a76.7 76.7 0 01-20.4-45.6A83 83 0 01795 90.8c27-4 52.1.4 74.4 16.7a74.6 74.6 0 0131.4 52.8 83 83 0 01-29 75.3 83 83 0 01-45.7 20.7c-5 .6-10 1-13.6 1.3zm-1.3-119l-1.1-1c-19-16.8-44.3-4.3-48.4 16.4a43 43 0 006.8 31.5c9.9 16.5 25 27.6 41.2 37.2 1.4.8 4.3.5 5.8-.4 13.7-8 26.4-17.3 36-30 8.7-11.5 14.5-24 11.4-39-3-14.4-19.4-27.3-34.2-22.7-5.8 1.8-11.2 5.1-17.5 8zM907.5 89.9c17.1 0 33.4-.1 49.6.2 1.5 0 3.4 2.2 4.3 3.8 9.9 19 19.6 38 29.4 57.1l19.6 38 2.6-5.1c13.6-30 27.2-59.8 40.6-89.8 1.4-3.3 3-4.4 6.6-4.3 9.6.2 19.3 0 29.6 0a36.6 36.6 0 01-1.3 4c-26.6 58.5-52.9 117.3-80 175.7a69 69 0 01-54 41.2 38.8 38.8 0 01-28.6-6c-6.2-4.2-10-9.8-8.5-17.7 1.4-8.1 6.8-12.1 14.4-14s14.3-.8 20.6 4.4c8.2 6.7 12.6 6.2 18-3.1 5.7-9.6 10.1-19.8 14.8-29.8.6-1.4.1-3.7-.6-5.1Q947.5 167.2 910 95.2l-2.6-5.3zM1685.2 158.5h-111.6c.8 17.6 4.2 34 14 48.3 4 5.9 9.3 11.6 15.4 15.1 12.6 7.5 25.4 4 37.5-2.3a51.6 51.6 0 0025.4-29.2l25.5 3.9c-3 6.4-5.1 12.6-8.4 18-14.7 23.6-35.3 39.7-63.3 44.3-47.5 7.8-95-29.7-94.3-79 .4-25 7.6-47.4 26-65.3 19.3-18.9 43-25 69.3-22a71.2 71.2 0 0154.8 33 62.2 62.2 0 019.7 35.2zm-56.1-16.8c-.7-9-3.6-16.4-9.1-22.7-7.4-8.6-20-11.7-28.8-6.7-11.3 6.3-15.6 16.9-17.2 29.4zM690.7 88.6l.3 3.7c0 56.3.1 112.7-.4 169 0 9.5-2.1 19.2-5 28.2a41.4 41.4 0 01-33 28.9c-17.5 3.6-35.3 5-52.8-.4a39.5 39.5 0 01-13.4-7.1c-8.3-6.9-7.3-18.5 1.4-24.9a23.8 23.8 0 0131.3 3.1c2.5 2.7 4.2 6.2 7 8.4 2.5 2 6.3 3.8 9 3.4 2.2-.3 4.6-4.2 5.2-6.9a73.4 73.4 0 001.5-15.8q.2-85.5 0-171c0-4.3 1.2-6 5.4-7.1 13.2-3.3 26.3-7.1 39.4-10.7 1.3-.4 2.6-.5 4.1-.8zM1713.6 219.7l27.3-10.5c1.8 3.7 3.3 7.2 5.1 10.5 8 14.5 22.4 20.6 37 15.8 13-4.2 17.3-15.4 10.4-27.2a40.6 40.6 0 00-17.6-15c-8.2-4.1-16.6-7.6-24.6-12a129.6 129.6 0 01-20-13.2c-24.3-20.2-21-55.5 7.2-70a78.1 78.1 0 0169.3-1.3 55 55 0 0124.8 24.6l-27.3 9.6c-2.8-4.8-4.8-9.6-8-13.5-7.9-10-28.2-10.4-37-1.1a13.3 13.3 0 00-.2 18.2 61.3 61.3 0 0015 12.7c7.7 4.5 16.2 7.6 24.4 11.4 10.7 5 20.7 11 29.5 19.2 23.2 21.4 14.3 59.8-10 71a91 91 0 01-76 1.7c-13.8-5.8-22.2-17.4-29.3-31zM1157.8 253.8h-48.4V93.1h48.2v11.4l4.8-3.7c13-11.2 27.6-17.2 45-12.8a39.7 39.7 0 0111.4 5c8.1 5.1 11 12.6 8.8 20.7-2.1 7.5-9.7 13.2-18.3 14-6.6.5-12.4-1.5-17.8-5.3-14.3-10-20-8.5-28.9 6.6a34 34 0 00-5 18.3c.3 33.4.2 66.8.2 100.2zM1299.4 88.3v165.5h-48.7v-5.4-141.6c0-3.8.8-5.5 4.7-6.5 14.6-3.8 29.1-8 44-12zM1275 17.7c17.4 0 30 14.8 25.6 30-3.8 12.9-19.7 20.6-33.7 16.3s-21.1-16.5-17.2-29a26 26 0 0125.3-17.3zM666.2 65.1c-16.9-.4-27.9-12.1-26.2-26.8 1-9.2 8.3-16.8 18.7-19.7 14.8-4.2 30.7 4.8 33.3 18.8 2.4 12.8-7 25.1-20.7 27.3-2 .3-4 .3-5.1.4zM935.9 362.6c-74.4 3.7-322.7 3.4-383.8 0 77.6-4.4 316.8-4.2 383.8 0zM1871.3 362.7q-191.7 5.3-383.8 0c41-4.1 323-4.7 383.8 0zM1283.8 338.3h9.7V371c0 6.3 4.5 10.8 10.6 10.6 5.6-.1 11.6-5.6 11.6-10.8v-32.6h9.5v48.3h-9.4l-.3-7c-3.5 2.4-6.6 5-10.2 6.9-10.7 5.6-21.2-4-21.5-12.5-.2-11.7 0-23.5 0-35.7zM1120.9 357.9h-36.2c.3 8.3 2 15.8 8.9 19.9 11.7 7 20.1.3 27.3-9.3l1.1 1.1c-.6 1.8-1 3.8-1.9 5.5-5.3 9.2-18.1 16.3-29.2 11.4a24.8 24.8 0 01-14.7-30.2c4.5-18 24-25.2 37.6-14 4.6 3.7 7 8.6 7 15.6zm-12.4-4.2c0-7.7-5.2-12.9-12-12.8-6.4 0-11.2 5.4-11.2 12.7zM1399.6 357.8h-36.8a24.3 24.3 0 005.5 17.3c4.5 5.3 10.7 7 16.7 4.4 5.3-2.2 9.6-6.5 15.1-10.3a25.3 25.3 0 01-1.2 4.2c-5 10.3-17 17.3-27.2 14.1-14.4-4.4-21-16.6-17.6-31 2.6-10.6 9.8-17.8 19.3-19.2a21.8 21.8 0 0122.7 10.2c1.6 2.8 2.2 6.3 3.5 10.3zm-12.4-3.4c-1.7-9.5-7-14.4-14.1-13.5-6 .7-10.8 7.2-10.1 13.5zM1254.5 367.5c.3 1 1 2 1 3-1.7 11-16.4 20.9-27 17.3-14.4-5-19.6-16.5-17.4-29.1a25.5 25.5 0 0133.8-20.2 20.1 20.1 0 018.5 6.3c1.1 1.3 1 5 0 6.6a6.7 6.7 0 01-6 2.2 8 8 0 01-4.5-5c-1.9-7.3-6.8-10.3-13.5-6.6a16.8 16.8 0 00-7.5 8 24.3 24.3 0 004.8 25.5c7.3 8.3 18.9 6.3 24.4-3.8l2-4zM1180 348.3c-4.5-2.9-8.2-5.7-12.3-7.5-2-.8-5-.3-7.2.5-5 1.9-6 7.2-1.9 10.7 2.2 1.9 5 3.2 7.6 4.5 4.1 2.2 8.6 3.8 12.4 6.4 8.8 6 7.7 18-1.8 22.8-10.2 5.1-20.7 2.8-28.9-6.6l3.4-3.6c1.6 1.6 2.7 3.4 4.3 4.4 3.2 1.8 6.6 4 10.1 4.5a7.8 7.8 0 008.7-5.2c1.5-4-.8-6.9-3.9-8.8-3.3-2.1-7-3.7-10.5-5.5-10.5-5.4-14-13-9.5-20.5 4.8-7.8 18.3-9.9 26.3-4l3 2.6c2.6 2.2 2.5 4.1.3 5.3zM1032 386.7h-9.2v-48.2h9l.6 8.5a71.3 71.3 0 015.3-6c3.4-3 7.4-5.4 11.7-3 2 1.2 2.7 4.3 4 6.6l-7.1 3c-.4 0-1-.3-1.4-.5-7.3-2.3-12.7 1.6-12.8 9.3v30.3z"/>
</svg>
