<svg xmlns="http://www.w3.org/2000/svg" viewBox="0 0 1472.4 299">
  <path d="M57.4 299c-4.2-.8-8.4-1.5-12.6-2.5A54.2 54.2 0 011 245.1a399.3 399.3 0 01.8-64.2c2.7-28.6 25.6-48.4 54.4-50.4 11.8-.9 23.3-.2 34.2 4.5 22.7 9.7 33 28.2 34.8 51.6 1 12.6.2 25.2.2 38.5H43.5c0 7.2-.5 13.9.2 20.4.7 6.8 5 11.9 12 13a52.3 52.3 0 0016.7 0c7.4-1.3 11.2-6.7 12.3-14h40.4A50.2 50.2 0 0188.2 295c-6.1 1.8-12.5 2.7-18.8 4zm27.3-102.5c.6-11-.1-20.7-10.4-26.6-7.2-4-17.4-3.2-23.5 1.8-8 6.7-8.3 15.5-7.2 24.8zM134.3 299v-36.5c3.4-.3 6.6-.5 9.6-1 10-1.6 14.1-6.3 14.2-16.5.2-12.3 0-24.6 0-36.9v-76H201l.3 4.3v113.1a76.2 76.2 0 01-1.8 15.8c-4.2 19.7-16.8 30.6-37 32.7-1.7.2-3.4.7-5.2 1zM1472.4 89.7l-29.9.5h-28.3c-1 12.7 6.3 20 17.4 17.5a12.6 12.6 0 007-4.9c1.7-2.4 3.1-3.2 5.9-3.2h27c-.7 9.6-4.8 17.2-12.7 21.5a59 59 0 01-58.2 1.2c-12.4-6.5-17.1-18.6-18.6-31.9-1.7-16 .8-31 13.5-42.4 15.2-13.7 45.8-14.4 61.8-1.7a40.2 40.2 0 0114.1 26.1l1 4.3zm-58.8-16.2h25.6c.6-10-4.3-16.8-12-17.1-8.1-.4-12.8 5.3-13.6 17.1zM1065.2 296.5a38.1 38.1 0 01-26.6-33.4c-2.6-18.2 0-35 15.7-47a53.8 53.8 0 0158-.5 38.9 38.9 0 0115.2 27.5c.8 5.5.8 11 1.2 17.2h-58.5c-.6 12.4 5.2 18.7 16 18a10.9 10.9 0 009.2-5.8c.7-1 2-2.4 3.1-2.4 8.4-.2 16.7-.1 25-.1l4.3.3c-1.3 10.3-6.2 18.2-15.3 22.5-15 9.4-44.5 4.7-47.3 3.7zm4.8-52.8h25.5c.3-10.2-4.6-17-12.2-17.3-8.1-.3-13.2 6.2-13.3 17.3zM414 3.8h82v23.5h-49v26.4h47.3v23.4H447v25.6h50.9v23.6H414zM573.1 48.7V40h30v116.6h-31.4V118c-2.7 2.4-4.4 4-6.4 5.5-15.9 11.7-43.6 4.6-51-13.6-7-17.2-7-34.8.8-51.8a35 35 0 0144-18.2c4.9 2 9.1 5.6 14 8.8zM571 70.5c-1.3-7-5.8-11.2-11.8-11.7-6.7-.5-11.8 2.4-14.4 9.2a43.9 43.9 0 00-.1 31.6 13 13 0 0013.5 8.9A13.3 13.3 0 00570.7 98c1-4.5 1.1-23.1.2-27.6zM275.4 296.6h-42.7V132h42.7zM977.8 40h31.1v48.5a46.6 46.6 0 00.7 8c1 5.6 4 8.6 9 9.3 6.5.8 11.4-1.3 13.5-6.7a33.8 33.8 0 002-11.2c.2-14 0-28.2 0-42.3v-5.7h31.8v86.4h-30.4V114c-2.4 2.7-4 4.8-5.9 6.5-10.2 9.8-32.7 10.5-43.6 1.5a25.7 25.7 0 01-8.6-20.5c-.3-20-.1-39.8 0-59.8a7.3 7.3 0 01.4-1.6zM465.2 296.5v-86.7h30.3v11.9l1.4-.1c10.2-14.2 24.4-15.5 39.8-12 10.2 2.3 15.2 10 17.2 19.8a50.3 50.3 0 011 9.4v57.6H523v-5.3l-.1-47.8c0-4.9-1-9.8-6.3-12-4.9-2-9.9-1.8-14.2 1.4-4.6 3.4-5.6 8.4-5.6 13.8v50zM676.8 39.7h29.1a19.2 19.2 0 012.6.4v86h-30.4V114c-2.7 2.9-4.6 5.4-6.9 7.3-9.9 8.5-30.6 9.3-41.3 1.7a23 23 0 01-9.7-18.9c-.4-21.2-.1-42.4-.1-64h31.4V88.3a59.7 59.7 0 00.4 7.5c.8 5.7 4 9.2 9 10 6.4 1 11.5-1 13.6-6.5a34.2 34.2 0 002.2-11.6c.2-15.8.1-31.6.1-48zM736 236.7c.5-10.5 5-18.3 13.6-22.8 17.1-8.8 35-8.6 52.4-1 11.2 4.7 14.1 15.3 14.6 26.3.5 9.6.4 19.3.2 28.9-.1 4.4.6 7.6 6 7.7v21.3c-12-1.8-25.6 4.3-34.2-10.3-9 10.3-20.6 12.1-33.1 10.2-18.6-2.9-26.3-17.6-21.5-34.4 2.8-9.7 10.8-14.3 19.9-16.1 8.8-1.8 17.8-2.2 26.7-3l5.4-.4c-.2-3 0-5.9-.6-8.6-1-4.4-4-6.8-8.5-7s-8.5 1.1-10 5.8c-.7 2.8-2 3.6-4.8 3.6-8.6-.3-17.2-.2-26.2-.2zm49.6 21.8c-4.7.6-9.1 1-13.4 1.9-4.5 1-8 3.4-8.3 8.6-.3 4 1.3 7.1 5 8.9 4.6 2.1 8.9 1 12.3-2.4 4.6-4.5 5.5-10.2 4.4-17zM752.5 66.4h-29.6c0-8 2.7-15 9-19.2a57.5 57.5 0 0118.8-8.3 63 63 0 0131.5 1c12.5 3.5 19.6 11.6 20.6 24.6.9 11.2.8 22.5.8 33.8 0 4.4.6 7.7 6.2 7.3v20.2c-15 4-27.8.6-34.4-9-11.4 12-25.2 13.1-40 8.1-10.4-3.5-15.4-11.5-16-22.3s3.7-19.7 14-23.6c7.6-2.8 16-3.7 24.2-5.1a57.2 57.2 0 0111-.6c3.1 0 4.3-1 4.2-4.3-.2-6.7-2.7-10.7-8-11.5-6.3-1-9.6 1.4-12.3 8.9zm20 21.6c-5.3 1-10.3 1.6-15 2.7a8.1 8.1 0 00-6.7 7.3c-.5 4.2.6 7.7 4.6 9.6a10.3 10.3 0 0012-1.7c5-4.5 6-10.4 5.2-17.9zM1372 73.3H1341l-1.5-6.5c-1.7-5.6-5.1-8.5-10.2-8.9-5.4-.4-9.9 2.2-12.2 7.7A52.7 52.7 0 001315 92a29.3 29.3 0 002 7.6c2.4 6 6.9 8.5 13 8 5.5-.6 9.1-3.9 10.6-9.8l1.1-5.4h30.8c0 10.7-3.6 19.6-11.7 26.6-15.2 13.2-52.8 13.9-67.8-3.3a47.7 47.7 0 01-11-37.1c2.4-28 21.4-43.3 50-41.3 12 1 23.1 3.5 31.6 12.7 6 6.4 8.4 14.1 8.3 23.2zM1155.8 65.3l-24.4-.1a5.1 5.1 0 01-3.6-2.4c-2.9-5.3-8.1-7.7-13.8-5.3-2.1 1-4.5 3.9-4.6 6-.2 1.8 2.5 5 4.4 5.5 5.6 1.5 11.5 2 17.2 2.8 7.2 1 14.2 2.4 19.7 7.5 13.5 12.4 9 36.9-8.7 45-16 7.4-32.7 7-49 .3-9.8-4-14.2-12.4-15.1-23.2h28.4c3 7.9 11 11.2 18.8 7 2-1 4.1-4 4-6s-2.7-4.7-4.7-5.2c-5-1.4-10.2-1.7-15.3-2.5-2.6-.4-5.3-.6-7.9-1.2-10.6-2.6-18.4-8.2-20.6-19.6-2.4-12.3.9-23 11.6-29.5 16.5-10 34-9.7 51-1.2 8.5 4.2 12.1 12.2 12.6 22zM942.3 209.5c9.6 0 19.2-.2 28.8.2 1.3 0 3 2.5 3.6 4.1 5.4 17.8 10.6 35.6 15.6 52.5 4.7-16.2 9.8-33.2 14.3-50.4 1.4-5.2 3.5-7 8.8-6.6 7.6.5 15.3.2 23.6.2-.4 1.8-.7 3.2-1.2 4.5l-28.4 78.5c-1.2 3.4-2.8 4.6-6.4 4.4-8.1-.2-16.3 0-24.4-.2-1.6 0-3.9-1.4-4.4-2.7l-30-82.7a6.7 6.7 0 010-1.8zM275.4 3.8v37.9H158.6V3.8zM901.2 102c5.5-.5 10.5-.6 15.4-1.4 6.6-1 10.2-5 11.2-11.6a61 61 0 00.5-8.5V4h32.2l.2 4.3V87a61.2 61.2 0 01-1.2 11.9 31.5 31.5 0 01-24.5 25.9c-11 3-22.3 2.5-33.8 2.2zM275.5 68v37.5h-117V68zM837.9 231.2H827v-21.4l4.4-.3c7.6-.2 10-2.4 10.4-10.2.2-4.3 0-8.6 0-13.8h26.8v23.7h18V231h-17.3v21.2c0 4.2-.1 8.4.1 12.5.5 7.3 4 10.3 11.3 10.3h5.7V297c-10 0-19.8 1-29.4-.3-11.8-1.6-18.4-10.7-19-24.6-.4-11.6-.1-23.2-.1-34.8v-6zM630.7 185.8h26.6v23.5h18.3V231h-17.1c0 12.4-.3 24.3 0 36.1.2 5 4 7.5 8.8 7.9 2.5.2 5 0 7.8 0v22.8c-7.8 0-15.5.4-23 0-16.3-1.1-24.9-10.2-25.2-26.3-.2-11.5 0-23 0-34.4v-5.9h-11.4v-21.4l3-.3c10-.3 11.5-1.6 12.2-11.6.3-3.9 0-7.8 0-12zM1164.2 40l3-.4c10.4-1.1 11.4-2 12-12.4.3-3.6 0-7.3 0-11.3h26.8v23.6h18.2v21.4H1207c0 12.3-.4 24.2.2 36 .2 5.4 3.6 7.6 9.2 7.9h7.3v21.7c-10.7 1.3-21.4 2.6-32-.6-10.4-3.1-16-11.7-16.3-24.2-.2-11.6 0-23.3 0-34.9v-5.7h-11.2zM446.3 296.6H414V173.8h32.4zM853.3 126.4h-31.1V.2h31.1zM603.2 296.6h-31.4v-86.9h31.4zM720.7 296.7h-31.2v-86.9h31.2zM932 296.6h-31v-86.8h31zM1238.1 39.9h31.1v86.3h-31zM572 169.7H603v26.8H572zM720.9 169.7v26.8h-31.5v-26.8zM932 196.6h-31.1v-26.8H932zM1238 0h31.2v26.8h-31.1z"/>
</svg>
