<svg xmlns="http://www.w3.org/2000/svg" viewBox="0 0 1499 369">
  <path d="M575.6 369c-6.5-1.1-13-2-19.4-3.5a115.3 115.3 0 01-86.6-82.7c-14.4-47.3-7.4-92 25.7-129.8 60-68.9 173.1-45.4 202 41.8 15.8 47.5 9.5 92.3-22.4 131.9a111.4 111.4 0 01-79.1 41.4 19 19 0 00-3.2.9zm85.5-125.2c-.1-16.9-2.5-30.6-8.5-43.4-13.4-28.3-35.8-43.9-67.1-44.4-30-.6-53.1 12.8-67.3 39.4a95.3 95.3 0 00-5.3 79.1 74.8 74.8 0 00118 35.4c21.6-17.8 29.5-41.8 30.2-66.1zM1499 2c-4.3 7.2-9 14.2-13 21.6a881.1 881.1 0 00-78.8 211 42.9 42.9 0 01-3.1 9.4c-3.8 7.5-11.5 10.5-20.4 8.4-8.2-1.9-12.8-6.9-12-15.8 1.6-15.3 3.5-30.7 7-45.7 5.8-25 13-49.7 19.5-74.4l-2.9 1.2-73.5 29.2a27.4 27.4 0 01-4.8 1.3c-10.4 2-18-2.3-21-12-3-9.2.9-17.1 10.4-21.3 15.5-6.9 31.3-13 46.5-20.6 50.7-25 99.1-53.5 141.8-91C1496 2 1497.5 1 1499 0zM784.6 272.4v84.4c0 7.6-.4 8-7.8 8h-26.4c-7.4 0-8-.6-8-7.9V117.2h95.4a77.6 77.6 0 0135.5 147.2L870 266l3.1 4.4L924 338c4 5.3 3.8 6.4-1.5 10.4l-22 16.4c-5.4 4-6.6 4-10.5-1.3l-65.6-87.3c-2-2.6-4-3.8-7.4-3.7-10.5.2-21 0-32.3 0zm.3-41.3c19.4 0 38.6 1 57.6-.2s32.7-19.5 31.4-38.6a36.2 36.2 0 00-35.8-33.9h-53.2zM1167.9 367.3l-152.4-149.4v138.9c0 7.5-.6 8-8 8h-28.4c-4 0-6-1.5-6-5.9q.1-120.8 0-241.7l.4-2.7 152.6 149.8V258 124.8c0-7.3.2-7.6 7.5-7.6h29c4 0 5.8 1.4 5.8 5.5V365a16.8 16.8 0 01-.5 2.3zM280.6 218h103v-93.8c0-6.6.4-7 7-7h29c4.5-.1 6.2 1.5 6.2 6.1v235.3c0 5-2.1 6.4-6.6 6.3h-29c-5.7 0-6.6-1-6.6-6.7v-98.5h-103V357c0 7-.9 8-8 8h-28c-5.5 0-6.6-1.1-6.6-6.8V123.8c0-5.8.8-6.6 6.7-6.6h29c6 0 7 1 7 7V212zM77 159.6H8.3c-8.2 0-8.3-.2-8.3-8.5v-26.9c0-6.6.4-7 7.1-7h184.4c4.6 0 6.6 1.4 6.5 6.3-.3 9.6-.1 19.3-.1 29 0 6.5-.6 7.1-7 7.1h-70v196.2c0 8.8-.2 9-9.3 9h-27c-6.8 0-7.6-.8-7.6-7.8V159.6z"/>
</svg>
