<svg xmlns="http://www.w3.org/2000/svg" viewBox="0 0 1642.4 271.8">
  <path d="M119.6 244.3A119.6 119.6 0 010 125.3a119.7 119.7 0 01239.2-2c.9 63.6-50 120.7-119.6 121zM120 89l-6 .3c-22.8.8-44.5 5.5-64.8 16-15.7 8.2-29 18.9-36.6 35.4-3 6.5-5.4 13.3-3 20.7a116 116 0 00225-20.4 109 109 0 00-2.1-42.7c-.7.8-1.2 1-1.3 1.5-3.8 17.8-15.5 29.7-30.1 39.2a137.3 137.3 0 01-60 20c-6.9.8-13.8 1.2-21.1 1.7v22.9l-53-35 53.4-35.6v23.3l51.8-34.5L120 67.2zM319.4 42.9v105.4H294V7.4c10.8 0 21.4-.1 32 .2 1.3 0 3 2.3 3.9 3.8q27.6 48.2 55 96.5l3.6 6V7.7h25.9v141c-8.3 0-16.7-.6-24.9.2-7.5.6-11.3-2-15-8.7-17-31-34.7-61.6-52.1-92.3l-3-5zM1265.7 84c-5.4 4.2-10.6 7.9-15.4 12-1.2 1-1.9 3.4-1.9 5.1v47.2h-29.6V7.7h29.3v63.7l14.2-14.1 47.1-47.4a7.7 7.7 0 014.6-2.4c10.5-.2 21-.1 30.8-.1l-58.4 59.8 65.4 81.4c-12.1 0-23 .1-34-.1-1.4 0-3-2-4-3.3l-45.3-57.6-2.8-3.5zM586 120.5l21-80.2c9.8 0 19.4 0 29 .2 1 0 2.3 2.4 2.7 4 6.7 25 13.2 50.3 19.9 76l18-80H703l-28.4 108c-9.4 0-18.6.2-27.7-.1-1.2 0-3-2.3-3.3-3.9-6.8-26.3-13.3-52.7-20-79a23.4 23.4 0 00-1.2-2.7l-8.7 34.3c-4 15.7-8.4 31.4-12.4 47.2-.8 3.3-2.3 4.5-5.8 4.3-7.3-.2-14.6.1-22-.2-1.4 0-3.8-1.5-4-2.7-9.2-34.5-18-69-27-103.6a7.5 7.5 0 010-1.6h26.2l17.3 80zM1493.5 53.7V0h28.4v148.5c-8.1 0-16.4.1-24.7-.2-1 0-2.4-2.3-2.7-3.7-.6-3.8-.7-7.7-1.1-13.1a34.7 34.7 0 01-29.5 18.8c-19.5 1.7-33.3-6.1-39.9-24.4a89.3 89.3 0 01.1-62.9c9.8-26.4 36-29.1 53.8-21.3 5.8 2.5 10.3 7.8 15.6 11.9zm-3.9 17c-3.2-9.3-10.8-13.6-19.6-13.3s-15.7 5.3-18.5 14.8a76 76 0 000 44.2c2.7 9.2 9.2 14.3 17.4 14.8 9.3.5 16.8-3.7 20.3-13 2.8-7.7 3-40.2.4-47.6zM900.7 44.7c-8.2 2.3-16 4.5-23.8 6.4-1 .3-3-1.4-3.7-2.6-7.2-14.4-19.8-19.7-34.9-19.8-15.4 0-28 5.7-35 20.3a63.8 63.8 0 00-5 35c.9 7.7 2.5 15.5 5.5 22.5 6 13.7 17.7 19.8 32.3 20.6 14.8.8 27.2-4 35.4-17 1.8-3 3.3-6.1 5.3-9.7l25.7 9.6a58 58 0 01-35.3 36c-21 7.2-42 6.8-62.4-2-22.9-10-33-29.2-36.2-53a102.6 102.6 0 012.4-40c7.2-27 27.8-43.4 57-45.4 14.2-.9 28.3-.5 41.7 5a52 52 0 0131 34zM1044.5 191v-21l8.5.4c9 .5 15.8-3.2 19.9-11.3 1.1-2.2 2-4.6 3.2-6.8 1.8-3.1 1.5-6 .1-9.4l-39-97.4-2-5h30.2l27 81.9c1.7-6 3.2-11.8 5-17.6q9.2-30.5 18.7-60.9c.4-1.4 2-3.4 3.2-3.4 9-.3 17.9-.1 27.4-.1l-1.8 5.2c-13.4 35.7-26.7 71.4-40.5 107a136.9 136.9 0 01-13 24.5 31 31 0 01-26.3 14c-6.7.2-13.5 0-20.6 0zM535.7 100.2h-69.5c0 8 1 15.4 5 22.2 7.7 13.3 30.7 11.6 35.1-1 .4-1 2-2.4 3-2.3 8.1.4 16.2 1.2 24.8 1.9a42.3 42.3 0 01-30.4 27.8 66.7 66.7 0 01-33.2-.1 40.9 40.9 0 01-30-27.9 81 81 0 01-.7-51 43.3 43.3 0 0140.1-31.3 77.7 77.7 0 0118 .5c19.1 3.3 31.5 16.5 35.7 37.4 1.1 5.8 1.5 11.8 2 17.7.3 1.8.1 3.6.1 6zM508 81.9c-.6-9.8-2.5-18.6-11.4-23.4-7-3.8-14.7-3.6-21.2 1.2-7.2 5.5-8.7 13.5-9 22.2zM1639.1 67.5l-24.4 2.6c-1.8-5.6-4.6-10.4-10.8-11.8-8.6-2-17.4-2.5-25.4 1.6a10.1 10.1 0 00-4.4 8 11.6 11.6 0 005 8c4 2.4 9 3 13.7 4.4 11 3.3 22.8 5.3 33.2 10.2 20.3 9.4 22 37.4 3.9 50.7-7 5-14.8 7.6-23.1 8.6a98 98 0 01-37.2-1.8 34.5 34.5 0 01-26.4-26.6l24.7-3.7c2.3 6.1 5.3 11.4 12.2 12.7 10 2 20.2 2.5 30-1.5 3.8-1.6 5.7-5 5.8-9s-2-7.8-5.8-9.2c-5.8-2.2-12-3.7-18-5.4-8.2-2.3-16.6-3.8-24.5-6.7-13.4-4.7-20-14.2-20.3-27.2s6.5-23.8 19.3-28.7a71.5 71.5 0 0152.6 0 30.5 30.5 0 0120 24.8zM981.3 59.4h-13.5V40.3h11.3c2.6.1 3.9-.8 4.7-3.3 2-6.3 4.5-12.5 6.4-18.8.9-2.7 2-3.8 5-3.6 4.5.2 9.1 0 14.1 0V40h20.4v19.2h-20l-.2 4.7v50.8c0 13.2 4.4 17.1 17.4 15.5l4-.5c.2 1.2.4 2.2.4 3.2v14a63.3 63.3 0 01-32.3 2.6c-11-2-17.3-10.2-17.5-22.3-.4-20.5-.2-40.9-.2-61.3v-6.5zM1367.7 148.2V40.6h28.1v107.6zM950.3 148.4h-27.6V40.6h27.6zM515.3 221.8c2.1-1.5 4-3.3 6.3-4.3a40.7 40.7 0 019.7-2.5c1-.2 3.2 1.4 3.3 2.3a5.3 5.3 0 01-2.1 4c-3.5 2.4-7.2 4.5-11 6.7l18.7 16.6c2.2 1.9 4 3.9 1.3 6.6-2.5 2.6-5.2 3.4-8.3.7-5.4-4.8-11-9.5-17.7-15.3l.5 9.5c.1 1.9 1 4 .3 5.4-.7 1.7-2.5 3.7-4.1 4-1.5.2-4.4-1.4-4.7-2.7-1.6-6.1-3.2-12.3-3.5-18.5-.5-12.7-.5-25.5-.2-38.2a11 11 0 013.8-7.8c4.2-3 7.4-.8 7.3 4.4-.2 7.8-.7 15.6-1 23.4v4.8zM957.2 232.3c-10 4-14.9 2.8-18.5-4.3s-1.4-15 6-19.8c6.6-4.3 13.6-7 21.6-4 2.5 1 4.4 2.5 3 5.7-5 11.6-3.5 23.7-2.3 35.8.4 4.6 1 9.2 1 13.8 0 7.9-4.3 12-12 12.2-7 .3-14.5-3.8-16.6-9.7-.5-1.6.1-4.7 1.2-5.4s4.1-.2 5.6.8c2 1.3 3.2 4 5.1 5.3 1.6 1.2 4 2.2 5.8 1.8 1.1-.3 2.3-3.2 2.3-4.9 0-6.7-.6-13.5-1-20.3l-1.2-7zm-11.4-11.6a34 34 0 001.8 5.4c1.3 2.6 3.8 2.8 5.2.6a55.7 55.7 0 005.3-12.1c.2-1-2.2-3.9-3.5-4-4-.1-8.9 5.4-8.8 10.1zM470.2 232l-1.7.8c-7.6 3.3-12.2 2.5-15.9-3-4.1-6.1-3.8-13.9 1.4-18.6 7.1-6.5 15.3-10.4 25-6.8 1.6.6 3.7 3.8 3.2 4.9-5.5 13.2-3.2 26.8-2 40.3a88.8 88.8 0 01.6 11c-.2 6-3.2 9.3-9.1 10.7-7.3 1.8-16.2-2-19-8.5-.8-1.7-.6-4.8.5-6 2-2.3 4.5-1.2 6.4 1a37.9 37.9 0 005.4 5.8c3.7 2.8 6.8 1.7 7-2.8.3-6.7-.4-13.5-.7-20.3-.2-2.7-.7-5.4-1.1-8.5zm-11.4-10.9a30.8 30.8 0 001.5 4.7c1.2 2.5 3.7 3.3 5 1a63.4 63.4 0 005.4-13c.2-.7-1.9-3.2-3-3.2-4.1-.3-9 5.2-9 10.5zM597.9 194.5c2.8.9 5.4 2 4.1 5.8a102 102 0 00-2.6 49.1c.2 1.6-1.2 4.8-2.2 5-1.9.3-5-.6-5.7-2-1.8-3.4-4-4-7.6-3.8-6.4.5-16.4-6.1-18.8-11.9s-.5-12.5 5.4-16.5a100.3 100.3 0 0112.7-7c4.6-2.2 7.8-5 7.8-10.8 0-4.1 2.1-7.3 6.9-7.9zm-9.7 26.5c-8.3.3-13.4 4-13 8.8.3 5.1 5.4 9 11.3 8.5l1.7-17.3zM887.3 222.4c.6-6.2-.2-7.2-5.4-6.4-3.4.5-6.6 2.3-10 2.9-1.6.2-4.3-.5-5.1-1.8-1.4-2-2.4-5 .9-6.9 6.3-3.4 13-5 20.2-3 6.7 2 9.7 9 8.3 18.2-1.4 8.2-2.5 16.4-3.8 24.6a29.4 29.4 0 01-1 4.8c-1.6 4.6-3.6 4.9-7 1.5a10.2 10.2 0 00-4.6-2.5c-3-.8-6.2-.9-9.3-1.8-10.4-3-13.6-13.7-6.7-22 4.2-5.1 9.8-7.3 16.2-7.6h7.3zm-.3 7.9c-5.8 1.2-10 1.5-13.4 3a9.7 9.7 0 00-4.7 6.1c-.3 1.2 2.7 3.6 4.7 4.6a20 20 0 007.2 1.6c1 0 3-.7 3.2-1.5 1.1-4.1 1.9-8.3 3-13.8zM366.6 230.1l9.2-27.6c2-5.7 6.5-7.7 11.5-4.3a5.2 5.2 0 011.4 4.7c-2 6-4.5 12-7 17.8-3.1 7.7-6.2 15.4-9.7 22.9-3.1 6.4-8 7.2-11.6 1.2-5.9-10-10.7-20.5-15.5-31-.6-1.3 1-4.6 2.5-5.4 2.8-1.6 6.4-1.8 8.3 1.6 2.1 3.8 3.6 7.8 5.3 11.8l3.6 8zM674.8 228l14-5.3c2.6-.8 6-1.6 6.6 1.9.3 1.7-2 4.6-4 5.8-2.7 1.8-6.1 2.5-9.2 3.7-3.6 1.4-4 3.7-2 6.6 1 1.7 2.7 3 3.5 4.9s.9 4 1.3 6c-2.8 0-6 .7-8.2-.4-2-.9-3-3.8-4.3-6-1.9-3.3-4-6-8.5-5.5a4.1 4.1 0 01-3.4-2c-.3-1 1-2.4 1.5-3.7.8-2 2.3-4.1 2.3-6.2.1-2.8-1-5.5-1.5-8.3-2.6-15 9-29.7 23.4-29.7 4.8 0 8.6 1.6 10.4 6.2.5 1.2.6 3.1 0 4s-2.6 1-4 1.2a7.7 7.7 0 01-2.4-.4c-13.2-2.6-20.8 5-18 18.5.6 3 1.6 5.7 2.5 8.8zM835.7 228.3c3-2.6 5.4-5.4 8.3-7.4 5.6-3.9 10-2.3 11 4.1 1.5 8.7 2.4 17.4 3.5 26 .4 3-1 5.4-3.9 5.2-2-.1-5-1.7-5.5-3.4-1.2-3.5-1.2-7.4-1.6-11.2l-.8-10.5-2-.6c-3 4.7-6 9.5-9.2 14.2a12.2 12.2 0 01-4.8 4.5c-3.6 1.4-6-.5-6-4.4q.3-18 .9-35.8c0-1.4.2-3.4 1.1-4.2a14.2 14.2 0 016.4-3.2c.7-.1 2.7 3.3 2.8 5.2 0 5-.7 9.9-.8 14.9a50.7 50.7 0 00.6 6.6zM619.3 256.7c-6-.3-10.5-2-13.6-6.6-1.8-2.8-1.5-5.3 1.4-7.2 2.7-1.8 4.8-1.2 6.1 1.6 2.6 5.1 12.7 3.5 14.6-1.6.5-1.4-.5-4.3-1.8-5.3-2.3-1.7-5.3-2.7-8-4l-3.6-1.5c-8.2-3.9-11.6-9-9.6-14.2 2.6-6.7 13.7-12.3 20.4-9.9a65 65 0 0110.8 5c2.8 1.7 4.2 4.5 2.3 7.7s-4.8 2-7.4.7-4.8-3.3-7.5-3.8c-2.4-.5-5.1.7-7.7 1.2 1.5 2.1 2.5 4.8 4.5 6.3 2.1 1.7 5.3 2 7.7 3.5 5 3 11.5 4.6 10.9 12.5-.5 6.4-5.7 12-13.4 14.4a58.3 58.3 0 01-6 1.2zM986.4 241.6c4.4 5.8 6.3 6 16.7 1.6 3.7 4.2 2.6 8.4-2.7 9.8-13.8 3.6-23.6-2.2-26.9-16a54.4 54.4 0 01-1.4-11.8c0-8.5 5-15 12.4-16.3a18.6 18.6 0 0120.4 11.5c2.4 5.9 1.9 8.2-3.4 11.8-4.8 3.2-9.8 6-15 9.4zm-4.7-14.5c.7.6 2.2 3.3 4 3.5 4.9.5 10.2-4 9.8-7.9-.5-4-3.8-4.7-7-4.8-4.5-.2-6.9 2.5-6.8 9.2zM805.2 253c-7.2-.3-15.7-2.3-20-11.3-4.3-9.2-3-18.5 3.4-26a72.4 72.4 0 0116-13.3c4-2.6 9.7-1.3 10.8 1.2 1.2 2.8-1.8 6.7-6.1 9.2s-8.9 5.3-12.4 8.8c-4.2 4.3-4.2 9.9-2 15.4s7.5 6.3 12.2 7.3c1.6.4 3.7-1 5.4-2s3-2.4 4.6-3a6.3 6.3 0 014.5 0c.6.3.6 2.7.3 4-1.8 6.5-6.9 9.7-16.7 9.7zM910.2 223.5a69.6 69.6 0 015-6.6c4.7-4.9 10.1-4.1 11.5 2.3 2 9.8 2.8 20 3.5 30 .1 1-3.2 2.9-5.2 3.4-1 .2-3.4-2-3.5-3.2-.9-7-1.3-14.2-1.8-21.3 0-.6-.2-1.1-1.4-2l-4.4 9c-1.6 3.5-2.7 7.2-4.6 10.4a6 6 0 01-4.8 2.5c-1.4-.2-3.5-2.4-3.5-3.8-.4-9.1-.4-18.2-.1-27.3 0-3 2.2-4.8 5.5-4.3s4.3 2.7 3.7 5.9l-.9 4.8zM743 215.8c2.4-2.2 4.1-4.1 6.1-5.4s4.6-3 7-3c2 0 4.3 1.6 5.7 3.2.5.6-1.2 3.5-2.4 4.8-2.5 2.7-5.5 4.9-8.1 7.4-6.8 6.1-8.1 12-4.8 20.6 1.6 4 0 9.5-3.6 11.4-4 2.4-8.8-.4-9-5.4-.5-7.3-.6-14.6-1.2-21.8A62 62 0 00730 216c-1.7-5.8-.5-9.4 3.9-10.6 3.6-.9 6.7 1.7 8 7l1 3.4zM430.7 226.3c-2 4.8-3.9 9.7-6.1 14.4-1.6 3.4-2.3 8.7-7.8 7.3-5-1.2-3-6-3.1-9.3-.3-6.4-.4-12.9-.3-19.3.1-3.6.7-7.4 5.8-6.7s3.7 4.6 3.4 7.8a5.5 5.5 0 00.2 3.3c1.5-2 2.9-4.2 4.5-6 5-6 10.9-5.3 12.5 2.2 2 9.4 2.8 19.2 3.5 29 0 1-3.2 3-5.2 3.7-2.7 1-4-1-4-3.5-.5-6.1-.8-12.2-1.2-18.4l-.6-4.2zM308 216.9c0 9.1.2 18.2 0 27.3-.2 2.7-1.2 5.5-2 8.1-1.2 3.4-3.8 4.1-7 3.2-3.2-.9-4.3-3.3-3.6-6.5 3.5-15.9 3.4-31.8 1-47.9a17 17 0 011.4-10c1-2 4.7-3 7.3-3.2.8-.1 2.7 3.6 2.8 5.7.4 7.8.2 15.6.2 23.3zM315.7 225.8c-.3-8.2 4.9-14 9.6-19.6 1.3-1.5 6.5-1.3 9 0 6.8 3.8 9.2 10.8 9.2 18.1a19.6 19.6 0 01-9.8 17.4c-2.5 1.4-7.3.7-10.2-.8-5.6-3-7.6-8.8-7.8-15zm15.6-9.5l-2.5-.4c-1.8 2.8-4 5.4-5 8.5-1.4 3.7 1 6 4.7 6.5s6-1.5 5.6-5c-.3-3.3-1.8-6.4-2.8-9.6zM727.7 223.1a24 24 0 01-8.4 18c-2.9 2.7-8.3 2.5-12-.2a18.4 18.4 0 01-6.3-21.7 56.5 56.5 0 017.7-12.7c2.3-3 6-2.4 9-.7 7.3 4 9.2 10.8 10 17.3zm-12.6-6.9l-1.8-.4c-1.7 2.3-4 4.4-4.9 7-.6 1.9-.3 5.3 1 6.5s5.1 1.8 6.6.9 2.4-4.3 2.2-6.4c-.3-2.6-2-5-3.1-7.6zM1367.8 0h28v20.3h-28zM922.6 20.4V0h27.8v20.4zM547 232.2c.3-4 .3-8 1-12s2.4-7 7-6.7 5.6 2.8 4.7 7.2a102.4 102.4 0 00-2 21c0 6.3-.6 8.6-5.3 8-1.8-.1-4.4-2.1-4.7-3.7-.9-4.5-.8-9.2-1-13.8zM393.3 232.9c.5-4.8.6-9.6 1.7-14.3s6-6.7 9.6-4.2c1.2.9 2.5 3.5 2 4.8a52.9 52.9 0 00-2.5 23.8c.5 5.4-.7 7.4-5 6.8-2-.3-4.7-2.4-5-4-.7-4.2-.3-8.6-.3-12.9zM401.1 207.1c-2.7-.4-5.5-1.5-5.3-5.6s3-6.1 7-6.1c3 0 5.5 1.2 5.7 4.7.2 3.7-3.1 7-7.4 7zM558 195.2c.8 1.1 3.2 2.9 3.6 5 .8 3.7-2.4 6.9-6 7-3.4 0-6-1.4-6.3-5-.3-4 2.7-6.9 8.6-7z"/>
</svg>
