<svg xmlns="http://www.w3.org/2000/svg" viewBox="0 0 858.8 420.3">
  <path d="M40.9 379.8h2.5q-4 13.4-19.6 13.4a23 23 0 01-17-6.9q-6.8-6.8-6.8-18 0-11.6 7.4-18.8a24.4 24.4 0 0117.6-7.2 23.9 23.9 0 0111.2 2.7c3.4 1.8 5 4 5 6.5a4.4 4.4 0 01-1 2.7 3.2 3.2 0 01-2.6 1.3c-2.6 0-4.1-1.5-4.7-4.4a8.7 8.7 0 00-2.1-4.7c-1-.9-3-1.3-5.8-1.3-5.2 0-9 1.8-11.6 5.3s-3.9 9-3.9 16.1q0 11.1 4.2 17.4t12.6 6.3q11.5 0 14.6-10.4zM80.5 352a24.3 24.3 0 017.7-7.2 18.8 18.8 0 019.4-2.5 17.7 17.7 0 019.6 2.5 11.1 11.1 0 015 6q1.2 3.4 1.2 11.4v13a87 87 0 00.3 10 3.5 3.5 0 001.9 2.7c1 .5 3 .8 5.7.8v2.6H97v-2.6h1.1q4.2 0 5.4-1.2a4.7 4.7 0 001.5-2.9q.2-1.6.2-9.4V361a39.7 39.7 0 00-.7-8.7 8 8 0 00-3.3-4.7 10.7 10.7 0 00-6.4-1.8 13.3 13.3 0 00-8 2.6 22.1 22.1 0 00-6.2 7.9V375c0 5.3 0 8.6.2 9.8a3.7 3.7 0 001.8 2.8c1 .7 2.8 1 5.4 1v2.6H64v-2.6h1.2c2.8 0 4.5-.4 5.4-1.2a4.5 4.5 0 001.4-2.8c.2-1.1.2-4.3.2-9.5v-47q0-7.1-1.3-9c-1-1.3-3-1.9-6.5-1.9v-2.6a39.5 39.5 0 0014.8-2.4h1.2zM192.2 382.7h2.1q-.5 9.8-9.6 9.8a8.8 8.8 0 01-6.2-2 10.4 10.4 0 01-3-6.2 60.8 60.8 0 01-10.5 6.1 21.8 21.8 0 01-8.5 2.1 12.8 12.8 0 01-8.2-2.8 8.9 8.9 0 01-3.5-7.3c0-4 2-7.4 5.8-10.3a71.1 71.1 0 0116-8.6l9-3.7v-2.3a28.6 28.6 0 00-.7-7 7.2 7.2 0 00-3.3-4 12.6 12.6 0 00-7-1.7c-5.8 0-9 2-9.6 5.8s-2.3 5.8-4.9 5.8c-2.3 0-3.5-1-3.5-3.3s1.6-4.5 4.7-7 8-3.8 14.5-3.8q7.3 0 11.3 2.3a12 12 0 015.3 5.2q1.3 3 1.3 9v19q0 6.7.7 8.6a2.9 2.9 0 003 2q3.9-.1 4.8-5.7zm-16.6-20.2l-6.3 2.6q-14.9 6-14.9 15.1a8.6 8.6 0 002 5.9 6.2 6.2 0 005 2.2 14.5 14.5 0 006.2-1.8 46.1 46.1 0 008-5.3zM231.6 354.3a19.6 19.6 0 016.3-8.6q4.4-3.4 8.6-3.4a7.8 7.8 0 016 2.4 7 7 0 012.2 4.8 4 4 0 01-1.1 2.9 3.6 3.6 0 01-2.8 1.2c-1.9 0-3.3-1.5-4.3-4.3-.7-1.9-1.8-2.9-3.1-2.9-1.7 0-3.7 1.2-6 3.4a15.7 15.7 0 00-4.4 7 39.9 39.9 0 00-1 10v8.3c0 5 0 8.2.2 9.5a4 4 0 001.7 3q1.4 1 5.1 1h1.6v2.7h-25v-2.7h1.3c2.2 0 3.9-.3 4.9-1a3.7 3.7 0 001.7-2.6 94 94 0 00.3-10V362c0-5.1 0-8.3-.2-9.6a4 4 0 00-1.6-3c-1-.7-2.7-1-5.1-1h-1.3v-2.6a81.3 81.3 0 0014.1-3.4 38.2 38.2 0 011.9 12zM290.4 342.3v32.8q0 7.6.3 9.5a4 4 0 001.6 3c1 .7 2.7 1 5.1 1h1.2v2.7h-25.3v-2.7h2c2.7 0 4.5-.4 5.3-1.2a4.6 4.6 0 001.4-2.8c.2-1 .2-4.2.2-9.5v-14.2c0-5.5-.2-9-.7-10.1a3.8 3.8 0 00-2.1-2.4 15.4 15.4 0 00-4.5-.4h-1.6v-2.6a70.4 70.4 0 0015.9-3.1zm-11-24a5.8 5.8 0 011.7-4.3 5.7 5.7 0 014.2-1.7 5.7 5.7 0 014.2 1.7 6.2 6.2 0 010 8.6 5.7 5.7 0 01-4.2 1.8 5.7 5.7 0 01-4.2-1.8 5.9 5.9 0 01-1.8-4.3zM349.7 346.8h-14.2v28.4a42.9 42.9 0 00.6 8.9 6.4 6.4 0 002.4 3.6 6.6 6.6 0 004 1.4q4.1 0 7.2-4.7l1.8 1a12.4 12.4 0 01-5.2 5.8 14.5 14.5 0 01-7 2 11.5 11.5 0 01-7.3-2.5 10.3 10.3 0 01-4-5.7 58 58 0 01-.8-11.5v-26.7h-6.8v-2.6a11.9 11.9 0 008.5-4q3.7-3.9 4.7-10.8h1.8V344h14.3zM398.7 382.4l11-26.2a43.8 43.8 0 002.3-6.4q0-2.8-6.4-3v-2.6h16.6v2.6c-2.6.2-4.5.8-5.6 2s-2.7 4-4.5 8.3l-21 50.6c-2 4.9-3.7 8.2-5.3 10a6.7 6.7 0 01-5 2.5c-2.5 0-3.8-1.1-3.8-3.4q0-3.9 6-6.6a19 19 0 004.7-2.6 11.5 11.5 0 002.3-4l4.5-11.2-17.6-38c-1.6-3.3-2.9-5.4-4-6.3s-2.7-1.3-5.2-1.3v-2.6h21.6v2.6c-3.8.2-5.7 1-5.7 2.4q0 .9 2.3 5.6zM447.3 347.1a6.1 6.1 0 011.8-4.3 5.8 5.8 0 014.4-1.9 6.2 6.2 0 016.2 6.2 5.9 5.9 0 01-1.8 4.4 6 6 0 01-4.4 1.8 5.8 5.8 0 01-4.4-1.9 6 6 0 01-1.8-4.3zm0 39.9a6.2 6.2 0 116.2 6.2 5.8 5.8 0 01-4.4-1.9 6.1 6.1 0 01-1.8-4.3zM587.1 393.2h-2.6l-14-37.4-14.4 37.4h-2.4l-14.5-37.4c-1.6-4.3-2.9-6.9-3.7-7.7s-2.4-1.3-4.8-1.3v-2.6h21.5v2.6a12.6 12.6 0 00-5 .7 2.4 2.4 0 00-1.3 2.3c0 .8.7 3 2.2 6.7l9.6 25.3 14.6-37.6h2.2l14.2 37.6 10.4-26.8a24.2 24.2 0 001.7-5.1c0-2-2-3-5.8-3v-2.7h15.3v2.6a8.4 8.4 0 00-4.4 1.1q-1.6 1-2.9 4.5l-1.3 3.4zM678.6 382.7h2.1q-.5 9.8-9.6 9.8a8.8 8.8 0 01-6.2-2 10.4 10.4 0 01-3-6.2 60.8 60.8 0 01-10.5 6.1 21.9 21.9 0 01-8.4 2.1 12.8 12.8 0 01-8.2-2.8 8.9 8.9 0 01-3.5-7.3c0-4 2-7.4 5.8-10.3a71.1 71.1 0 0116-8.6l9-3.7v-2.3a28 28 0 00-.7-7 7.3 7.3 0 00-3.3-4 12.6 12.6 0 00-7-1.7q-8.6 0-9.6 5.8c-.6 3.9-2.3 5.8-4.9 5.8q-3.5 0-3.5-3.3c0-2.2 1.6-4.5 4.7-7s8-3.8 14.5-3.8q7.3 0 11.3 2.3c2.7 1.5 4.5 3.3 5.3 5.2s1.3 5 1.3 9v19q0 6.7.7 8.6a2.9 2.9 0 003 2q3.8-.1 4.7-5.7zM662 362.5l-6.3 2.6q-14.9 6-14.9 15.1a8.6 8.6 0 002 5.9 6.2 6.2 0 005 2.2 14.5 14.5 0 006.2-1.8 46.9 46.9 0 008-5.3zM729.6 346.8h-14.2v28.4a43.6 43.6 0 00.6 8.9 6.4 6.4 0 002.4 3.6 6.6 6.6 0 004 1.4q4.2 0 7.2-4.7l1.8 1a12.4 12.4 0 01-5.2 5.8 14.6 14.6 0 01-7 2 11.5 11.5 0 01-7.3-2.5 10.3 10.3 0 01-3.9-5.7 57.9 57.9 0 01-.8-11.5v-26.7h-6.8v-2.6a11.9 11.9 0 008.5-4q3.7-3.9 4.7-10.8h1.8V344h14.2zM795.1 360.2h-32.9l-.2 5q0 12.4 3.9 18.6t11.6 6.2q10.5 0 14.9-9.3h2.7a16 16 0 01-7.3 9.1 23 23 0 01-23.2.3 24 24 0 01-8.7-8.5 25 25 0 01-3.4-13.4q0-11.2 6.5-18.5a21 21 0 0116.4-7.4q9.3 0 14.4 5.6a19.4 19.4 0 015.3 12.3zm-10-2.4a19.7 19.7 0 00.2-2.3c0-3.4-1-6-3-7.9a10.2 10.2 0 00-7.3-2.8q-10.5 0-12.5 13zM835.6 354.3a19.7 19.7 0 016.4-8.6q4.4-3.4 8.6-3.4a7.8 7.8 0 016 2.4 7.1 7.1 0 012.2 4.8 4.1 4.1 0 01-1.1 2.9 3.6 3.6 0 01-2.8 1.2c-1.9 0-3.3-1.5-4.3-4.3-.7-1.9-1.8-2.9-3.1-2.9-1.7 0-3.7 1.2-6 3.4a15.5 15.5 0 00-4.4 7 39.8 39.8 0 00-1 10v8.3q0 7.6.2 9.5a4 4 0 001.7 3c1 .7 2.6 1 5.1 1h1.6v2.7h-25v-2.7h1.2c2.3 0 4-.3 5-1a3.8 3.8 0 001.7-2.6 94 94 0 00.3-10V362c0-5.1 0-8.3-.2-9.6a4 4 0 00-1.6-3c-1-.7-2.7-1-5.2-1h-1.2v-2.6a81.6 81.6 0 0014.1-3.4 38.2 38.2 0 011.9 12zM448.4 106.8h-35a5.6 5.6 0 00-5.6 5.6v15.2a5.6 5.6 0 005.6 5.6h35a5.6 5.6 0 005.6-5.6v-15.2a5.6 5.6 0 00-5.6-5.6zm57.1-78.3L497.7 13l3.8-2.2c1.2-.6 2-1.3.4-4.3-1.7-3.2-3.4-2.3-3.4-2.3l-4.8 2.6A14.5 14.5 0 00482 0h-8.6c-1.8 0-3.4.2-4.1 1.2a5.5 5.5 0 01-4.3 1.7h-59.2c-.6 0-.7-.3-1-.6a8.5 8.5 0 00-9.3 1c-1 1-4.7 5.6-6.9 8.1A10.5 10.5 0 01383 15a2.2 2.2 0 00.2-2.4l-.8-1.8 1.2-3.3 1-.6-.6-1.5-2 1c-1.3.6-1.3 1.2-1.3 1.2-.6 2-2 2.2-2 2.2l-4-7.3c-.4-.9-1.3-3.3-12.6 2.7s-8.7 8.4-8.7 8.4l4 7.5-1.2 1 2.8 5.5a34.4 34.4 0 00-3.2 2c-2.4 1.7-5.1 3.3-5.1 7.7V200c0 12.3 3.5 17.8 17.1 17.8h124.6c8 0 15.7-4.2 15.7-18.2V38.8c0-8-1.5-8.2-2.6-10.3zm-89.4-13.6h41.5a6.4 6.4 0 110 12.8H416a6.4 6.4 0 110-12.8zM468.7 143s13.9 24.3 16.8 29.8c3.8 7.4-1.4 10.5-1.4 10.5s-7 3.5-10.5-2.8c-3-5.3-12.7-22.4-16.1-27.7-4.4-6.8-6.3-9.1-12.3-9.1H416c-6 0-7.9 2.3-12.3 9.1a753 753 0 00-16.3 27.7c-3.5 6.3-10.5 2.8-10.5 2.8s-5.3-3.1-1.4-10.5c2.9-5.6 16.9-29.8 16.9-29.8s3.5-5.4 3.5-9.8V106c0-4.4-3.5-9.8-3.5-9.8s-14-24.2-17-29.7C371.7 59.2 377 56 377 56s7-3.5 10.5 2.8c3 5.3 12.8 22.4 16.3 27.6 4.4 6.8 6.3 9 12.3 9h29.3c6 0 7.8-2.2 12.2-9 3.5-5.2 13.1-22.3 16.1-27.6 3.5-6.3 10.5-2.8 10.5-2.8s5.3 3.1 1.4 10.5l-16.8 29.7s-3.5 5.4-3.5 9.8v27a22 22 0 003.5 9.9z"/>
</svg>
