<svg xmlns="http://www.w3.org/2000/svg" viewBox="0 0 732.6 258">
  <path d="M285.4 0h13.3l3 .3A139.4 139.4 0 01335 5.7a62.9 62.9 0 0143.5 40.2c1.5 4.2 2.8 8.5 4.2 12.8a13.8 13.8 0 00.6 1.4h.5V5.3h68.8c2.6 0 2.4-.3 2.4 2.4V187h85.2V5.4h71V8q0 82.4.3 164.7a48.7 48.7 0 001 9c1.7 8.8 6.6 13.1 15.5 13.4 6 .2 12.2 0 18.2-.3 7-.5 11.4-4 13-10.8a55.6 55.6 0 001.7-13l.2-163.4v-2h71.5V165a169 169 0 01-2.6 33.4 71 71 0 01-43.4 54.3 60 60 0 01-25.5 5.3c-14-.3-28 0-42-.1-4.8 0-9.7.3-14.4-.2a69.4 69.4 0 01-36-15 72 72 0 01-18.1-21.3 49.7 49.7 0 00-3.2-4.4l-.6.3v36.5c0 1.5-.4 2-2 2h-161v-56.5l-.6-.1a51.5 51.5 0 00-2 5.1 69.5 69.5 0 01-25.9 40 88.9 88.9 0 01-31.8 13.5 6.2 6.2 0 01-1.5 0l-55.4.1a57.3 57.3 0 01-19-3 66.1 66.1 0 01-29.8-19c-2.8-3.2-5.2-6.7-7.9-10a26.4 26.4 0 00-2.3-2.4l-.4.3 6.4 31.9h-70l-.4-1.4-7.4-39.2c-.3-1.7-.8-2.3-2.7-2.3H76l-.4 1.6-7.6 40c-.3 1.3-.7 1.6-2 1.6H0v-.7a5.4 5.4 0 00.2-.7l12.4-59.7L31 105.6l18-87.4L52 5.4h110l33.7 162.9h.7a35 35 0 00.8-4.9c.2-5.4.3-11 .3-16.4.2-18.8.1-37.6.4-56.4.2-10.4.2-20.8 2.3-31 5-24 18.4-41.3 41.1-51 11.6-4.9 23.9-7 36.4-8l7.8-.6zm34 154.1h63.4v-47.7h-63.2l-.1-1.7-.8-23.6c-.4-7.7-4.4-12.3-12-14a60.2 60.2 0 00-24.5-.1c-6.4 1.2-11 4.8-12.3 11.3a58.4 58.4 0 00-1.4 11.7q-.2 38.3 0 76.5a116.3 116.3 0 001 14.1c1 7.7 5.2 12.1 12.5 13.6a60.1 60.1 0 0024.4-.2c4.7-1 8.6-3.3 10.4-8a28.9 28.9 0 002.2-8.6c.4-7 .3-14 .4-21.1v-2.2zM86.5 156h38.2c0-.7-.1-1.3-.3-1.9l-16.6-88c-.5-2.8-.5-2.8-3.3-3a5 5 0 00-.7.2L86.5 156z" data-name="Layer 1"/>
</svg>
