<svg xmlns="http://www.w3.org/2000/svg" viewBox="0 0 98 76">
  <path fill="#CF9E47" d="M57.7 19c-2.7-.9-2.8-.6-5.5-1.4-2.7-.8-2.8-.5-5.5-1.3-.6-.2-1-.9-1.2-1.4L44 9.7c-.8-2.6-.3-2.7-1-5.4-.2-.4-1.4-.4-1.5 0-.7 2.6-.2 2.7-.9 5.3-.6 2.5-1.3 2.4-2 5-.1.4 0 1-.6 1.1l-5.3 1.5c-2.7.8-2.6 1.2-5.2 2-.6.2-.7.8 0 1 2.4.7 2.6.2 5.1.9 2.5.7 2.3 1.5 4.8 2.2.5.1.7.4.8.9.8 2.6 1.7 2.3 2.5 4.9.8 2.6-.4 3 .4 5.5.2.6 1.6.5 1.8-.1.9-2.7.6-2.8 1.4-5.4.8-2.7 1.2-2.5 2-5.2.2-.5.4-1 1-1.2 2.6-.7 2.7-.3 5.3-1 2.5-.6 2.4-1.2 5-2 .4 0 .6-.6.1-.8M77.8 36.7c-1.5-.5-1.6-.3-3.2-.8l-3.2-.8c-.3 0-.6-.5-.6-.8l-1-3c-.4-1.5-.1-1.6-.5-3.1-.1-.3-.8-.3-1 0-.3 1.5 0 1.6-.4 3-.4 1.5-.8 1.4-1.2 3 0 .2 0 .5-.3.6l-3.1.9c-1.6.4-1.5.7-3 1.1-.4.1-.4.5 0 .6 1.4.4 1.5.1 3 .5 1.4.4 1.3.9 2.7 1.3.3 0 .4.2.5.5.5 1.5 1 1.4 1.4 2.9.5 1.5-.2 1.7.3 3.2 0 .3 1 .2 1-.1.5-1.5.4-1.6.8-3.1.5-1.6.8-1.5 1.2-3 .1-.3.3-.7.6-.7l3-.6c1.5-.4 1.5-.7 3-1.1.2-.1.3-.4 0-.5M65.3 1C64 1 63 2 63 3.3 63 4.6 64 6 65.3 6 66.7 6 68 4.6 68 3.3 68 2 66.7 1 65.3 1M22.8 32c-1 0-1.8.8-1.8 1.8 0 1.1.8 2.2 1.8 2.2 1.1 0 2.2-1 2.2-2.2 0-1-1-1.8-2.2-1.8"></path>
</svg>