<svg xmlns="http://www.w3.org/2000/svg" viewBox="0 0 222.73 258.57">
  <g class="skull">
    <path d="M120.09 194.25a3.41 3.41 0 01.86-2.05c.48-.41 1.4.15 2.09.19.08 0-.24-.4 0-.38a5.84 5.84 0 01-.09-1.93c0-.07-.17-.14-.17-.21 0-1 .16-1 .16-1.92s.24-1 .24-1.93.15-1 .15-1.92-.47-1-.47-1.93-.08-1-.08-1.93.67-1.05.28-1.93a9.76 9.76 0 01-2.39-.11 11.3 11.3 0 01-2.09 0 10.13 10.13 0 01-1.93-.78c-.66-.27-1.59 0-2.19-.37s-.92-1.15-1.46-1.63a17 17 0 01-1.76-1.26 16.1 16.1 0 01-1-1.43c0 .7.29 1 .28 1.68s-.09 1.4-.09 2.09-.3 1.4-.3 2.09.1 1.4.11 2.09-.17 1.41-.15 2.09 0 1.41 0 2.09.34 1.4.37 2.08-.31 1.42-.28 2.1 0 1.42 0 2.1.47 1.38.53 2.06.36 1.39.43 2.05 0 1.43.08 2.09-.1 1.46 0 2.11 0 1.5.1 2.12a12.77 12.77 0 00.93 1.92 2.86 2.86 0 001.2 1.48c.44.14.89 1 1.78 1.15.59.09 1.36-.49 2.13-.4s1.24.75 2 .82 1.4-.65 2.12-.59 1.27.87 2 .92l2 .16c.66.05 1.37-.24 2.07-.2s1.33.39 2 .44 1.37 0 2.06 0 1.38-.31 2.07-.27 1.33.67 2 .71 1.38-.39 2.07-.35 1.37-.2 2.06-.16 1.37 0 2.06 0 1.36.17 2 .2 1.32.91 2 .94 1.39-.44 2.07-.41 1.38-.2 2.06-.17 1.34.84 2 .87 1.38 0 2.06.06 1.39-.43 2.08-.4 1.38-.4 2.07-.38 1.36.35 2 .38l2.05.06c.69 0 1.37.24 2.05.26s1.38 0 2.06 0 1.38-.22 2.06-.2 1.36.66 2 .68 1.38 0 2 0 1.39-.2 2.06-.18c.28 0 .63.29.88.38a10.12 10.12 0 01.29-1 6.18 6.18 0 011.45-1.9 6 6 0 012.28-.75 8.25 8.25 0 012.18.26 7.14 7.14 0 012.06.43 5.72 5.72 0 011.73 1.15c.58.46 1.46.61 1.81 1.15s.11 1.57.3 2.15a12.35 12.35 0 01.54 1.93 2 2 0 01-.72 1.54c-.43.48-.77.93-1.46 1s-1-.45-1.49-.87a1.76 1.76 0 01-.78-1.41 4.18 4.18 0 00-1.34-1.63c-.45-.36-1-.36-2-.21-.12 0-.46-.39-.57-.22a4.82 4.82 0 00-.43 2 15.64 15.64 0 00.16 1.94c0 .62.27 1.25.36 1.9s.36 1.25.48 1.87-.25 1.43-.09 2a1.94 1.94 0 01-1.26 2.73c-.57.25-1.25.87-1.81.7s-.61-1.17-.94-1.7a3.91 3.91 0 01-1.91-1.17c-.39-.45-.27-1.54-.84-2.07s-1.13-.8-1.71-1.24-1.38-.37-2-.72-.92-1.29-1.59-1.54a14.92 14.92 0 00-2.16-.16c-.37-.07-1.08-.42-1.72 0a7.37 7.37 0 00-.99 1.55 16.34 16.34 0 00-.79 1.81c-.28.56-.93 1-1.18 1.62s.36 1.5.15 2.13-1.2 1-1.37 1.62-.16 1.33-.3 1.95.25 1.41.13 2-.36 1.29-.44 1.88a3.15 3.15 0 01-.69 1.58 3 3 0 01-1.59.59c-.53.1-.9-.46-1.36-.68s-1.2-.11-1.46-.59-.73-1-1.15-1.66-.35-1.35-.77-1.93-.71-1.17-1.15-1.71-1.25-.7-1.73-1.2-.85-1.06-1.35-1.51a20.1 20.1 0 00-1.44-1.47 13.33 13.33 0 00-1.71-1.03 9 9 0 00-1.95-.87c-.68-.12-1.42.35-2.09.49a4.53 4.53 0 00-1.73 1 7.26 7.26 0 00-1.33 1.46 11.15 11.15 0 00-1.31 1.55 19 19 0 00-.65 1.93c-.26.62-.95 1.09-1.17 1.75s-.39 1.32-.57 2 .31 1.48.16 2.15-.29 1.33-.41 2-.35 1.35-.44 2-.5 1.37-.56 2c-.08.79-.52 1.46-.54 2s.21 1.23-.15 1.65-1 .27-1.6.38a2.54 2.54 0 01-.39 0c-1 0-2-.16-2.41-1.09-.26-.61-.37-1.32-.69-2s-.86-1.1-1.19-1.73-.42-1.34-.77-2-.51-1.31-.88-1.91-.76-1.18-1.15-1.76-1-1-1.38-1.59-1-1-1.46-1.51-1.06-.92-1.53-1.42-.82-1.15-1.32-1.59-.8-1.3-1.35-1.67a11.32 11.32 0 00-1.81-1.2 6.79 6.79 0 00-2.19-.47s-.1.23-.15.23a8.35 8.35 0 00-2 .67 8.56 8.56 0 00-2 .52 11.81 11.81 0 00-2 .92 14.12 14.12 0 00-1.47 1.61 18.09 18.09 0 00-1.16 1.82 21.23 21.23 0 00-1.2 1.77c-.36.65-.7 1.31-1 1.91s-.46 1.45-.68 2c-.44 1.18-.74 2-.75 2-.14.52.07 1.39-.33 1.72a3.51 3.51 0 01-1.71.63c-.53 0-1.08-.54-1.52-.82a2.54 2.54 0 01-.93-1.22c-.24-.64-.63-1.21-.89-1.82s-.45-1.29-.72-1.88-.9-1.07-1.2-1.65-.58-1.23-.91-1.79-.79-1.11-1.14-1.65-.17-1.56-.54-2.07-1.15-.89-1.56-1.35-.67-1.43-1.12-1.79c-.69-.56-1.59-.14-2.08-.14s-1.5-.25-2 .38a11.39 11.39 0 00-.76 2 17 17 0 00-.82 1.86c-.2.62.17 1.42 0 2.1s-.43 1.26-.56 1.94 0 1.35-.11 2-.9 1.26-1 1.92 0 1.4-.08 2a2 2 0 01-2.39 2.23c-.69 0-1.66.18-2.1-.29s-.32-1.42-.29-2.11a5.87 5.87 0 00.22-1 14.66 14.66 0 01-2.23-.12 11.68 11.68 0 01-2.07-.25 12.41 12.41 0 01-1.86-.93 12.69 12.69 0 01-1.57-1.35c-.51-.41-1.56-.35-2-.89s-.37-1.45-.76-2.06a14 14 0 01-1.16-1.72c-.28-.6-.19-1.37-.43-2.06s-.25-1.29-.42-2-1.17-1.15-1.32-1.85-.22-1.37-.35-2.08-.18-1.38-.3-2.08 0-1.4-.14-2.1.06-1.41 0-2.11-.21-1.37-.31-2.07-.52-1.34-.61-2-.31-1.36-.39-2.06.24-1.43.16-2.13-.52-1.35-.6-2.05.1-1.41 0-2.11-.55-1.36-.62-2.05 0-1.42 0-2.11.44-1.45.38-2.14-.59-1.28-.59-2-.56-1.36-.62-2.05 0-1.42 0-2.11.23-1.43.17-2.11.13-1.43.08-2.11c-.07-.88-.25-1.73-.32-2.55s-.53-1.72-.6-2.52a5.27 5.27 0 00-.77-1.94 5.09 5.09 0 00-1.36-1.5c-.56-.47-.9-1.29-1.58-1.5a6.12 6.12 0 00-2.21-.33c-.65.06-1.1.82-1.66 1.08a5.18 5.18 0 00-1.61.86 5.52 5.52 0 00-1.26 1.43c-.26.56-.83 1.17-.89 1.82s.23 1.43.17 2.12.43 1.44.37 2.13-.85 1.34-.9 2 .37 1.43.33 2.12 0 1.4-.07 2.09-.56 1.37-.59 2.06.71 1.43.69 2.12-.59 1.39-.61 2.08.43 1.41.42 2.1-.82 1.39-.82 2.08.27 1.41.27 2.1-.3 1.41-.29 2.1.85 1.38.87 2.07-.64 1.43-.61 2.11.37 1.39.41 2.08.52 1.37.57 2.05-.28 1.43-.21 2.11-.34 1.46-.25 2.14.51 1.36.61 2 0 1.45.08 2.12.76 1.29.9 1.95 0 1.46.19 2.1.86 1.23 1.07 1.86.35 1.37.61 2 .25 1.48.58 2a11.77 11.77 0 001.1 1.84c.44.5 1.26.69 1.76 1.19s.86 1.06 1.37 1.55 1.28.6 1.81 1.06.53 1.5 1.08 1.93 1.56.21 2.12.63 1 1 1.53 1.38 1.09.82 1.67 1.2 1.15.73 1.75 1.1 1.21.63 1.81 1 1.12.79 1.73 1.13 1.35.35 2 .68 1.16.71 1.78 1 1.28.49 1.91.78.87 1.39 1.51 1.67 1.34.36 2 .63 1.55-.18 2.2.07 1.21.65 1.86.89 1 1.13 1.71 1.36 1.47-.05 2.13.16 1.36.22 2 .42 1.32.32 2 .51 1.19.84 1.86 1 1.27.57 1.94.74 1.37.22 2 .37 1.28.61 2 .76 1.51-.5 2.19-.36 1.23.86 1.91 1 1.42-.16 2.11 0 1.38 0 2.07.12 1.32.46 2 .56 1.4-.14 2.09-.06 1.34.38 2 .45 1.34.36 2 .42 1.4-.2 2.09-.15 1.34.54 2 .59 1.4-.42 2.09-.38 1.35.76 2 .78 1.39-.29 2.09-.29 1.39.4 2.09.37 1.34-.76 2-.81 1.41.28 2.1.21 1.43.21 2.12.12 1.3-.69 2-.81 1.43.11 2.11 0 1.26-.75 1.94-.9 1.35-.27 2-.44 1.39-.14 2.06-.32 1.27-.61 1.93-.8 1.4-.16 2.06-.37 1.23-.69 1.88-.91 1.43-.12 2.08-.36 1.25-.6 1.9-.85 1.42-.17 2.06-.43 1.19-.76 1.83-1 1.06-1 1.69-1.29 1.3-.49 1.92-.79 1.19-.7 1.81-1 1.59.06 2.2-.25 1.24-.64 1.85-1 .88-1.27 1.48-1.61 1.51-.16 2.11-.5 1.18-.74 1.77-1.1 1.24-.65 1.82-1 .92-1.14 1.49-1.52 1.31-.56 1.87-.95 1.2-.72 1.75-1.12 1-1 1.56-1.39.76-1.28 1.29-1.71 1.32-.59 1.84-1 1-1 1.46-1.48 1.2-.77 1.68-1.24 1.25-.76 1.71-1.24.32-1.6.75-2.11 1.16-.86 1.55-1.4a19.23 19.23 0 001-1.8 15.92 15.92 0 001.14-1.72c.28-.7 1-1.31 1-1.93s-.63-1.52-.57-2.2.38-1.43.42-2.11-.26-1.46-.25-2.14.21-1.45.18-2.12 0-1.47-.08-2.13a14.67 14.67 0 00-.65-2 10.33 10.33 0 00-.8-1.9 7.59 7.59 0 00-.91-1.85 7.25 7.25 0 00-1.67-1.2c-.57-.37-.86-1.38-1.57-1.64a17.23 17.23 0 00-2.13-.47c-.54-.11-1.24-.07-2-.19-.6-.09-1.23-.53-2-.62s-1.39.66-2.1.58-1.27-.46-2-.53l-2-.19c-.65-.06-1.33 0-2-.08s-1.3-.38-2-.44-1.3-.44-2-.51-1.38.42-2.06.36-1.29-.62-2-.68-1.36.17-2 .11-1.3-.51-2-.57-1.42.87-2.09.81-1.29-.66-2-.71-1.32-.28-2-.33-1.37.17-2 .12-1.33-.34-2-.39-1.36.11-2 .06-1.33-.31-2-.36-1.39.42-2.06.38-1.31-.61-2-.66-1.39.5-2.05.45-1.31-.79-2-.84-1.35-.12-2-.16-1.38.55-2 .5c-.16 0-.32-.15-.49-.15s-.47.31-.65.27-.13-.42-.3-.46c-.79-.06-1.54 0-2.24 0s-1.58.16-2.26.11c-.86-.06-1.55-.9-2.18-.94a6.71 6.71 0 00-2.26.21 2.85 2.85 0 01-1.89-.75 3.07 3.07 0 01-.58-2.11z" class="skeleton-color"/>
    <path d="M215.82 67.41c0-.71.6-1.45.55-2.13s-.92-1.34-1-2 .77-1.45.73-2.13-.41-1.4-.45-2.09-.58-1.4-.63-2.08.54-1.47.49-2.16.08-1.44 0-2.13-.11-1.44-.18-2.12-.44-1.4-.52-2.08.06-1.46 0-2.14-1-1.28-1.12-2 .53-1.57.37-2.24-.55-1.34-.75-2-.25-1.43-.5-2.09-.94-1.15-1.23-1.79-.35-1.4-.69-2-1.33-.84-1.72-1.44-.28-1.45-.69-2-.55-1.33-1-1.87-1.38-.63-1.85-1.14-1-1-1.46-1.46-.93-1-1.45-1.47-1-.87-1.59-1.32-.65-1.39-1.2-1.82-1.55-.22-2.12-.63-1-.93-1.6-1.32-1-1-1.58-1.36-1-1-1.64-1.31-1.46-.21-2.07-.55-1.12-.81-1.74-1.14-1.19-.69-1.82-1-1.26-.55-1.89-.84-1.13-.86-1.76-1.14-1.32-.44-2-.7-1.45-.09-2.1-.34-.98-1.12-1.61-1.38-1.55.22-2.2 0-1.14-.89-1.8-1.12-1.41-.12-2.07-.33-1.1-1.1-1.77-1.3-1.42 0-2.09-.23-1.25-.66-1.92-.84-1.43 0-2.11-.14-1.4 0-2.08-.21-1.31-.42-2-.58-1.32-.42-2-.57-1.24-.78-1.92-.92-1.38-.15-2.06-.28-1.48.38-2.16.25-1.28-.66-2-.78-1.35-.26-2-.36-1.41.08-2.09 0-1.36-.26-2-.36-1.31-.67-2-.76-1.43.28-2.12.2-1.32-.65-2-.72-1.42.34-2.11.28-1.39.08-2.08 0-1.38-.05-2.07-.1L129.24 1c-.69 0-1.34-.79-2-.83s-1.41.54-2.1.51-1.39.19-2.08.16-1.4-.41-2.06-.42-1.4-.42-2.1-.42-1.37.06-2.06.07-1.38 0-2.07.06-1.37.31-2.06.33-1.36.29-2 .32-1.36.2-2 .24-1.39-.25-2.08-.21-1.36.18-2 .24-1.4-.27-2.09-.21-1.32.6-2 .67-1.6-.62-2.29-.51-1.27 1-2 1.06-1.38 0-2.06.12-1.45-.43-2.13-.33-1.29.72-2 .83-1.37-.4-2.06-.3-1.27.78-1.94.89-1.35.3-2 .42-1.38.09-2 .21-1.41 0-2.08.14-1.31.48-2 .62-1.29.55-2 .7-1.51-.36-2.18-.19-1.32.44-2 .6-1.32.39-2 .55-1.43 0-2.09.15-1.22.82-1.88 1-1.32.42-2 .6-1.49-.21-2.15 0S60.64 9.3 60 9.5s-1.43 0-2.09.2-1.26.6-1.91.8l-2 .61c-.65.22-1.41.13-2.06.35s-1.24.62-1.89.84-1.21.71-1.86.94-1.38.24-2 .48-1.35.32-2 .56-1.13.9-1.77 1.15-1.58-.23-2.21 0-1.13.89-1.76 1.16-1.19.71-1.81 1-1.34.4-2 .68-1.31.48-1.92.77-1.34.44-1.95.74-.92 1.22-1.52 1.52-1.26.58-1.86.9-1.32.47-1.91.81-1 1-1.62 1.33-1.1.84-1.67 1.2-1.67 0-2.23.35-.62 1.55-1.18 1.94-1.35.48-1.89.89-1 1-1.53 1.39-1.18.74-1.69 1.18-1.21.74-1.7 1.2-1.12.86-1.59 1.35-.61 1.32-1.06 1.83-.83 1.1-1.24 1.63-1 1-1.42 1.51-1.11 1-1.43 1.56-.45 1.36-.72 2a20.39 20.39 0 00-.9 1.9c-.21.67.3 1.5.18 2.17s-.62 1.24-.74 2 .15 1.39 0 2.1 0 1.36-.12 2.06-.19 1.34-.29 2-.26 1.34-.35 2-.46 1.32-.55 2-.03 1.4-.11 2.08-.34 1.34-.41 2-.17 1.4-.22 2.09.17 1.39.11 2.08-.48 1.34-.53 2-.18 1.4-.22 2.09.29 1.4.26 2.06.18 1.41.16 2.1-.19 1.37-.2 2.06-.32 1.38-.31 2.06S0 80.62 0 81.3s.43 1.34.46 2 .44 1.33.48 2-.68 1.4-.62 2.08.79 1.29.86 2-.47 1.41-.39 2.09.93 1.24 1 1.92-.57 1.44-.48 2.11.19 1.35.29 2 .55 1.28.66 2-.07 1.38 0 2 .36 1.31.48 2 .65 1.25.78 1.92-.32 1.44-.19 2.11.74 1.23.88 1.9.56 1.26.71 1.92.4 1.29.56 2 .21 1.33.38 2-.5 1.52-.33 2.19.83 1.18 1 1.84.6 1.24.78 1.9-.4 1.52-.21 2.18.41 1.31.63 1.94.92 1.1 1.17 1.72.95 1 1.24 1.63.34 1.32.67 1.9.69 1.14 1.06 1.7.6 1.22 1 1.75.85 1 1.28 1.55 1.08.82 1.55 1.3.51 1.4 1 1.85 1.08.83 1.6 1.26 1.21.63 1.76 1 1 1 1.54 1.33 1.29.46 1.88.78 1.31.35 1.92.63 1.17.63 1.79.88 1.13.81 1.77 1 1.29.39 1.94.56 1.28.46 1.95.58 1.41-.34 2.07-.25 1.22.83 1.89.93 1.33.06 2 .17 1.27.41 1.93.54 1.36 0 2 .13 1.23.61 1.89.75 1.32.18 2 .32 1.43-.25 2.08-.09 1.32.25 2 .41 1.17.86 1.82 1 1.32.23 2 .4 1.34.16 2 .32 1.35.15 2 .32 1.3.15 1.93.31 1.13.85 1.75 1 1.31.15 1.93.3 1.24.44 1.86.59 1.43-.33 2.05-.18 1.1 1.08 1.71 1.21.93-.16 1.54 0c-.51-.63-.29-1.37-.77-1.85a16.3 16.3 0 00-1.79-1.41c-.7-.54-1.58-.52-2.13-.8a9.27 9.27 0 01-2-1.39c-.69.06-1.27.28-1.74-.15s-.36-1-.4-1.73a1.9 1.9 0 01.37-1.63 2.37 2.37 0 011.57-1c.2 0 .85.36 2 .64.57.15 1.53-.44 2.28-.1.57.26.8 1.33 1.45 1.75a15.85 15.85 0 011.8 1.06c.51.42 1.41.48 1.95 1s.88 1.08 1.37 1.65 1 1 1.4 1.62.6 1.27 1 1.88.23 1.44.55 2.07 1.15 1 1.44 1.62.68 1.22 1 1.87.09 1.46.35 2.11.38 1.35.63 2 1 1.13 1.24 1.79.4 1.37.67 2 .34 1.42.63 2 .58 1.34.91 1.94a21.12 21.12 0 00.93 2c.44.63 1.29.9 1.77 1.32a3.15 3.15 0 001.85.74c.53.07 1-.21 1.65-.67a8.63 8.63 0 001.68-1.05c.43-.42.7-1.07 1.17-1.62s1.2-.69 1.63-1.24.77-1.07 1.16-1.64.2-1.44.57-2 .72-1.09 1.08-1.66.79-1.06 1.13-1.65.93-1 1.26-1.57 1-1 1.29-1.59.17-1.41.47-2 1-1 1.31-1.59.59-1.21.86-1.82.2-1.16.65-1.42a2.62 2.62 0 011.6-.13 1.77 1.77 0 012.11 2 7.46 7.46 0 00.21 2c.14.57.33 1.23.54 2s.58 1.19.81 1.86.65 1.18.9 1.82.69 1.14 1 1.76.38 1.29.7 1.88.28 1.42.66 2a14.51 14.51 0 001.14 1.74 10.87 10.87 0 001.57 1.41 8.31 8.31 0 002 .77 6.53 6.53 0 002.06-.06 4.27 4.27 0 002-.19 7.32 7.32 0 001.88-.89 11.92 11.92 0 001.28-1.61c.37-.5.59-1.19.94-1.78s.72-1.11 1-1.72.58-1.19.84-1.81.35-1.29.57-1.91.53-1.23.73-1.85-.26-1.48-.08-2.1.38-1.27.53-1.89.73-1.22.86-1.82.34-1.38.43-1.92a2.54 2.54 0 01.8-1.62 2.66 2.66 0 011.75-.47 3 3 0 011.87.48 3.15 3.15 0 01.77 1.84c0 .55.21 1.19.3 1.94.07.6-.55 1.36-.44 2.06s.59 1.21.73 1.88-.2 1.4 0 2.05 1.13 1 1.33 1.68-.32 1.52-.08 2.13.86 1.11 1.15 1.68a16.5 16.5 0 00.92 1.78c.39.57 1.23.69 1.68 1.12a5.3 5.3 0 001.46 1.17 4 4 0 001.8.18c.72 0 1.49.56 2.13.27a7.43 7.43 0 001.76-1.22 12.48 12.48 0 001.29-1.67 15.5 15.5 0 001.32-1.64c.35-.58.09-1.5.39-2.14s1-1.05 1.29-1.7.87-1.18 1.09-1.83.28-1.41.47-2.06.11-1.45.27-2.1.42-1.38.55-2c.16-.79.53-1.45.61-2s-.2-1.56.24-1.94 1.34-.1 2-.1v-.17c.62 0 1 .52 1.41.9a1.84 1.84 0 01.57 1.36 3.56 3.56 0 011.24 1.92c.13.59.22 1.28.42 2s.27 1.33.48 2 .22 1.38.47 2.06.24 1.41.52 2.06.6 1.29.93 1.91 1 1.07 1.36 1.65a14.81 14.81 0 001.37 1.57c.47.54.69 1.32 1.23 1.75a8.28 8.28 0 002 .79 7.44 7.44 0 001.92.83 8.63 8.63 0 002.06-.41 2.73 2.73 0 001.75-.75c.45-.44 1.34-.66 1.75-1.32a19.44 19.44 0 00.77-2c.28-.61.13-1.43.39-2.12s.59-1.25.8-1.95.73-1.25.91-1.94.58-1.32.73-2 .18-1.42.31-2.11-.14-1.47 0-2.16 0-1.44.08-2.12 0-1.43.08-2.11.89-1.11 1.37-1.53a2.13 2.13 0 011.68-.46c.68.06 1.56-.11 2 .37a3 3 0 01.45 2c0 .14-.12.4-.13.59 1-.23 1.11.05 2.09-.26s.88-.65 1.87-1 .82-.83 1.81-1.14 1.21.4 2.2.09.85-.76 1.84-1.07a19.37 19.37 0 001.83-.73c.62-.26 1.43-.12 2-.43s.75-1.32 1.3-1.69 1.39-.32 1.9-.74.69-1.2 1.17-1.67 1.51-.41 1.94-.91.63-1.22 1-1.77 1-1 1.35-1.53-.11-1.55.17-2.16 1.16-1 1.37-1.59.12-1.36.28-2-.14-1.35 0-2 .59-1.31.69-2 .67-1.3.77-2-.16-1.41-.07-2.11.44-1.34.53-2-.32-1.43-.23-2.13.48-1.34.56-2-.33-1.44-.25-2.13.29-1.37.37-2.06.55-1.34.63-2 .32-1.36.39-2.06-.34-1.43-.27-2.12.27-1.37.33-2.07-.29-1.42-.23-2.11.91-1.32 1-2-.7-1.45-.65-2.14.32-1.37.37-2.06.14-1.39.18-2.08.07-1.39.1-2.09 0-1.39 0-2.09.18-1.39.21-2.08S216 89 216 88.27s.15-1.39.17-2.09-.09-1.39-.08-2.09.92-1.38.93-2.08-.2-1.4-.2-2.09-.76-1.39-.77-2.09.14-1.4.13-2.09.68-1.42.65-2.11-.57-1.38-.6-2.07-.28-1.38-.31-2.08-.05-1.38-.1-2.07zM148.69 136c-.65.23-1.45-.35-2.18-.38s-1.51.67-2.22.49-1.06-1.23-1.72-1.51-1.4-.29-2-.62-1.51-.3-2.07-.66-.9-1.35-1.4-1.71c-1-.74-.79-1.65-1.83-1.51s-.67.83-1.36 1.79a18.59 18.59 0 01-1 1.73c-.4.49-1 .81-1.5 1.29s-.45 1.49-1 1.89-1.54.08-2.11.36a4.84 4.84 0 01-1.73.68 3.17 3.17 0 01-1.7-.57 1.93 1.93 0 01-1.28-1.35 14.33 14.33 0 010-2.1c-.05-.63-.81-1.32-.8-2.08s.61-1.35.66-2.08.47-1.32.55-2-.48-1.44-.39-2.15.17-1.38.29-2.09.3-1.36.43-2 .24-1.38.39-2.07.94-1.21 1.1-1.9-.4-1.54-.22-2.21.52-1.32.71-2 .67-1.27.87-1.93.68-1.25.9-1.91-.06-1.51.18-2.16.67-1.26.93-1.89.62-1.28.9-1.89.56-1.31.88-1.9 1-1.08 1.32-1.64a16.55 16.55 0 011.12-1.72c.5-.59.7-1.42 1.22-1.77s1.43-.09 2.08-.09 1.45-.48 2.08-.08.75 1.13 1.25 1.68 1.1.79 1.51 1.39.1 1.46.45 2.08.95 1 1.26 1.59.3 1.3.57 1.94.89 1.06 1.14 1.69.76 1.15 1 1.79.34 1.3.55 2 .3 1.31.49 2-.12 1.43.06 2.07.47 1.27.63 1.92.95 1.16 1.1 1.81-.13 1.42 0 2.07.22 1.34.33 2 .52 1.3.61 2 .13 1.36.2 2-.36 1.41-.31 2.05.52 1.35.53 2-.51 1.37-.55 2c-.06.77.31 1.49.15 2-.23.59-.56 1.44-1.07 1.66z" class="skeleton-color"/>
  </g>
  <g data-expression="1">
    <path d="M182.72 44c-.69 0-1.39.06-2.08.1s-1.42-.26-2.11-.19-1.34.49-2 .6-1.42 0-2.09.18-1.3.57-2 .75-1.41.18-2.06.4-1.06 1.12-1.7 1.38-1.39.23-2 .51-1.27.55-1.88.87-1.45.26-2 .61-.81 1.32-1.38 1.7-1.57.2-2.12.61-.77 1.27-1.3 1.71-.81 1.15-1.31 1.62-1.25.7-1.72 1.19-1.21.79-1.66 1.31-.76 1.18-1.18 1.72-.67 1.23-1.06 1.8-.73 1.17-1.09 1.76-1.2.91-1.53 1.52.14 1.62-.16 2.24-.74 1.17-1 1.81-.61 1.23-.84 1.88-.48 1.3-.67 2-.34 1.33-.5 2-.77 1.26-.89 1.94-.26 1.38-.34 2.07.27 1.29.23 2c-.91.32-.92.14-1.88.14s-1 .48-1.94.48-1-.58-1.93-.58-1-.38-1.94-.38h-1.94c-1 0-1 .51-1.94.51s-1 .29-1.94 0c0-.69.29-1.42.21-2.1s-.66-1.31-.77-2 0-1.4-.18-2.07-.28-1.37-.47-2-.65-1.25-.88-1.9-.24-1.39-.5-2-.35-1.38-.65-2-.56-1.29-.89-1.9-1.34-.82-1.7-1.41-.68-1.19-1.07-1.76-.25-1.53-.68-2.07-1.6-.48-2.05-1-.84-1.06-1.31-1.56-.69-1.25-1.2-1.72-1.14-.79-1.67-1.23-1-.92-1.56-1.34-1-1-1.56-1.38-1.06-.9-1.66-1.26-1.47-.19-2.08-.51-1-1.14-1.6-1.43-1.47-.06-2.11-.32-1.13-.93-1.78-1.14-1.38-.23-2-.41-1.24-.77-1.91-.92-1.42 0-2.1-.12-1.41.17-2.1.09-1.34-.39-2-.42S93 44 92.3 44s-1.41-.14-2.1-.1-1.35.66-2 .74-1.42-.14-2.11 0-1.4.13-2.08.28-1.31.53-2 .71-1.35.37-2 .59-1.17.83-1.81 1.09-1.32.41-2 .7-1.33.44-1.94.77-1.26.59-1.86.95-1.06.91-1.64 1.3-1.32.54-1.87 1-1.06.92-1.59 1.37-1.07.89-1.58 1.37-.61 1.33-1.09 1.84-1.36.63-1.81 1.16-.43 1.44-.85 2-1.37.72-1.76 1.3-.93 1.07-1.29 1.66-.35 1.41-.68 2-.22 1.43-.51 2.06-.75 1.17-1 1.82-.41 1.31-.63 2-1.1 1.07-1.25 1.74.45 1.54.3 2.22-1.11 1.2-1.23 1.89.11 1.42 0 2.12.36 1.41.32 2.11-.69 1.36-.69 2.06v.83c-.61 0-1.09-.09-1.84-.1s-1.32.28-2 .28-1.34-.25-2-.24-1.33.78-2 .79-1.36-.81-2.06-.79-1.35.24-2 .26-1.36-.15-2.05-.12-1.33.52-2 .56-1.37-.2-2.06-.15-1.29.84-2 .9-1.41-.45-2.09-.38-1.4-.22-2.07-.14-1.29.8-1.95.9-1.35.23-2 .34-1.36.16-2 .29-1.34.31-2 .47-1.52-.31-2.16-.13-1.1 1.12-1.71 1.35-1.35.34-1.94.62a14.88 14.88 0 00-1.91.77 8.5 8.5 0 00-1.74 1.23c-.42.52-.34 1.39-.67 1.93a17.38 17.38 0 00-1.05 1.64 18.27 18.27 0 00-.75 1.81 17.69 17.69 0 00-.5 1.91c-.14.67-.53 1.3-.59 1.9a17.81 17.81 0 000 2 3.69 3.69 0 00.59 1.9c.09.62-.09 1.48.35 1.86s1.28 0 1.89 0c.12 0 .25.45.37.43.68-.1 1.06-.7 1.44-1.21s1.24-1.09 1.14-1.77a3.33 3.33 0 01-.42-1.84c0-.55.37-1.14.49-1.83s-.16-1.29 0-1.92a10.87 10.87 0 01.47-1.91A10 10 0 0116 93.53a5.65 5.65 0 011.82-1.09c.53-.24 1.33 0 2.08-.24.58-.19 1.18-.49 1.91-.67s1.14-.94 1.85-1.09 1.39.17 2.1 0 1.32-.18 2-.28 1.29-.48 2-.57 1.34-.09 2-.16 1.38.36 2.08.3 1.31-.55 2-.6 1.38.41 2.08.37 1.32-.56 2-.59 1.34-.26 2-.29 1.35-.09 2.05-.11h2c.67 0 1.36.7 2.06.7s1.35-.61 2-.6 1.37-.23 2.06-.22 1.42.43 2.11.45c.11.69-.11 1.51 0 2.19s.38 1.35.57 2 .43 1.34.65 2 .71 1.23 1 1.87.75 1.19 1 1.82.71 1.18 1 1.79.37 1.37.73 2 .8 1.13 1.19 1.71.49 1.36.91 1.91 1.24.79 1.69 1.33.34 1.56.82 2.07 1.56.41 2.07.89.91 1 1.44 1.49.7 1.36 1.25 1.78 1.44.4 2 .79.86 1.25 1.46 1.61 1.48.21 2.1.54 1.26.57 1.89.87 1.2.7 1.85 1 1.21.74 1.87 1 1.39.22 2.07.41 1.4.07 2.08.22 1.24.91 1.93 1 1.41.07 2.1.15 1.4.05 2.1.09 1.39.4 2.09.4 1.39-.51 2.07-.54 1.38-.17 2.06-.25 1.47.43 2.15.32 1.19-1.14 1.86-1.29 1.43.08 2.1-.11 1.26-.58 1.91-.8 1.3-.43 2-.69 1.4-.23 2-.52 1.16-.76 1.77-1.09 1.07-.88 1.67-1.24 1.29-.51 1.87-.9 1.23-.64 1.78-1.06.82-1.18 1.35-1.62 1.58-.31 2.08-.78.73-1.25 1.2-1.75.81-1.13 1.26-1.66 1-.94 1.45-1.48.93-1 1.32-1.61.94-1.06 1.3-1.65.17-1.5.49-2.11.71-1.18 1-1.8.78-1.17 1-1.81.18-1.4.41-2.05.29-1.34.48-2 1.24-1.11 1.4-1.79-.64-1.53-.52-2.21.6-1.3.68-2 .15-1.61.19-2.3c.91-.32 1.06.15 2 .15s1 .24 1.93.24 1 .15 1.94.15 1-.47 1.93-.47 1-.08 1.94-.08 1 .28 1.94.28a3.56 3.56 0 011.8.39c0 .69 0 1 .12 1.68s0 1.41.11 2.09.92 1.23 1.08 1.9-.07 1.44.12 2.11.74 1.21 1 1.86.64 1.22.9 1.85.54 1.25.83 1.88.53 1.26.85 1.86.42 1.35.78 1.94.81 1.11 1.2 1.68.64 1.24 1.06 1.78.84 1.11 1.29 1.64 1.13.83 1.61 1.33.7 1.25 1.2 1.72 1 1 1.5 1.45 1.31.58 1.86 1 1.24.62 1.81 1 1.06.88 1.65 1.23 1 1 1.65 1.28 1.11.9 1.74 1.19 1.42.21 2.07.47 1.41.14 2.06.36 1.09 1.15 1.76 1.34 1.5-.31 2.18-.17 1.24.87 1.93 1 1.46-.57 2.15-.5 1.31.88 2 .91 1.4.06 2.09.06 1.39-.36 2.09-.4 1.42.2 2.11.13 1.38-.29 2.06-.4 1.3-.63 2-.78 1.51.26 2.18.08 1.2-.84 1.86-1.06 1.21-.71 1.85-1 1.23-.62 1.86-.91 1.28-.51 1.89-.83 1.64.06 2.23-.3.92-1.16 1.5-1.55 1-1 1.53-1.43 1.59-.25 2.12-.7 1.05-1 1.56-1.42.66-1.32 1.14-1.83.6-1.31 1.05-1.84 1.11-.87 1.53-1.43.81-1.11 1.2-1.69.92-1.05 1.28-1.65.67-1.22 1-1.83.39-1.35.68-2 1.14-1 1.4-1.67.41-1.35.63-2 .19-1.4.38-2.07.59-1.29.74-2 0-1.41.13-2.1-.09-1.41 0-2.1.23-1.36.27-2.06.43-1.37.43-2.07 0-1.4-.06-2.09.05-1.42 0-2.11-.75-1.3-.86-2 .41-1.5.26-2.18-.47-1.33-.65-2-.23-1.41-.45-2.06-.72-1.24-1-1.88-.23-1.44-.52-2.07-.71-1.23-1-1.84-1.16-.95-1.52-1.54-.77-1.14-1.16-1.72-.34-1.47-.77-2-.93-1-1.38-1.58-1-.94-1.52-1.44-1.1-.87-1.6-1.35-.94-.81-1.49-1.26-.73-1.31-1.28-1.73-1.22-.7-1.8-1.09-1.09-.87-1.69-1.23-1.51-.14-2.13-.47-.87-1.37-1.5-1.66-1.59.18-2.23-.08-1-1.27-1.67-1.5-1.39-.29-2.06-.47-1.46.11-2.14 0-1.23-1-1.92-1.1-1.44.24-2.14.17-1.36-.54-2.06-.58-1.41.19-2.11.19z" class="skeleton-color-alt"/>
    <path d="M72.21 110.52c.73-.73.59-.87 1.32-1.6l1.47-1.46c.73-.73.91-.55 1.64-1.28s.6-.86 1.33-1.59.58-.87 1.31-1.6 1-.43 1.76-1.15 1-.48 1.71-1.21.75-.71 1.48-1.44.4-1 1.13-1.78 1-.41 1.78-1.14.31-1.15 1-1.88 1.12-.34 1.85-1.07.25-1.2 1-1.93 1.12-.35 1.85-1.08.46-1 1.19-1.73.6-.86 1.33-1.59.83-.63 1.56-1.36.67-.79 1.4-1.52 1.07-.4 1.8-1.13.77-.68 1.5-1.42.62-.85 1.35-1.58.36-1.09 1.1-1.82 1.26-.2 2-.93.65-.8 1.38-1.53.7-.77 1.43-1.5 1-.48 1.72-1.21.49-1 1.22-1.69.89-.59 1.62-1.32.55-.91 1.28-1.64.89-.58 1.62-1.32.23-1.23 1-2 1-.51 1.69-1.24a2.49 2.49 0 00.78-1.65c0-.62.19-1.54-.25-2s-1.56-.72-2.11-1.28-.63-1.64-1.22-2.16-1.9-.16-2.5.45-.48.95-1.2 1.67-1 .46-1.69 1.18-1 .47-1.68 1.19-.6.84-1.32 1.56-.58.86-1.3 1.58-.68.75-1.4 1.47-1.12.32-1.84 1-.1 1.33-.82 2.05-.85.58-1.57 1.3-.8.64-1.52 1.36-.75.68-1.47 1.4-.71.74-1.43 1.45-1.07.38-1.79 1.09-.74.7-1.46 1.42-.5.94-1.22 1.67-.61.82-1.33 1.54-.38 1.06-1.1 1.78-1.13.31-1.86 1-1 .45-1.7 1.17l-1.45 1.44c-.72.72-.36 1.08-1.08 1.8s-.74.7-1.46 1.42-1 .44-1.73 1.16-.38 1.06-1.1 1.77-.89.56-1.61 1.27-.76.68-1.48 1.4-.53.91-1.25 1.63-.9.55-1.62 1.27-.88.57-1.6 1.29-.77.67-1.49 1.4-.18 1.26-.91 2-.76.68-1.49 1.41-1.2.24-1.93 1c-.26.27.43.71.66 1 .4.47.73 1 1.15 1.41s.56 1.15 1 1.57 1 .69 1.48 1.1.88.84 1.36 1.21a.51.51 0 00.73-.05zM63.78 99.47c.74-.74 1.23-.24 2-1s.55-.92 1.28-1.65.58-.88 1.31-1.61.84-.61 1.57-1.34.35-1.11 1.08-1.84 1.07-.39 1.8-1.12.93-.52 1.66-1.26.62-.84 1.36-1.57.6-.86 1.33-1.59l1.47-1.45c.73-.73.79-.67 1.52-1.4s.5-1 1.24-1.69 1-.41 1.79-1.14.41-1 1.14-1.78 1-.49 1.7-1.22.27-1.19 1-1.93 1.1-.35 1.83-1.09.92-.54 1.66-1.27.74-.72 1.48-1.45.39-1.07 1.12-1.81.88-.56 1.57-1.26.84-.62 1.57-1.35.48-1 1.22-1.71.59-.88 1.32-1.61l1.46-1.47c.74-.73.92-.55 1.65-1.28s.6-.87 1.33-1.6.59-.88 1.33-1.61 1-.44 1.77-1.17 1-.49 1.72-1.22a3.38 3.38 0 00.89-1.7c.08-.58-.46-1.17-.73-1.68s-.45-1.27-1-1.53-1.53 0-2.19-.26-1.15-1-1.82-1.21-1.53.25-2.22.08-1.26-.85-2-1-1.44.15-2.15.06a4.5 4.5 0 00-2 .38 4.38 4.38 0 00-1.79.86c-.44.39-.89.92-1.46 1.44s-1.28.54-1.82 1-1 .85-1.54 1.34-.86 1-1.37 1.52-.63 1.29-1.14 1.77-1.5.38-2 .86-.91 1-1.41 1.48-1 1-1.46 1.44-1.23.68-1.73 1.15-.76 1.18-1.26 1.65-1.13.79-1.63 1.26-.81 1.13-1.31 1.6-1.14.79-1.64 1.26-.5 1.47-1 1.93-1.22.72-1.7 1.19-1 .92-1.52 1.38-1.33.62-1.81 1.08-.52 1.45-1 1.91-1.51.44-2 .89-.64 1.35-1.11 1.8-.79 1.22-1.25 1.66-1.29.74-1.73 1.16-1.33.8-1.71 1.16a3.17 3.17 0 00-.76 2.23c0 .66.26 1.3.31 1.95s.18 1.31.27 2-.35 1.41-.22 2 1.13 1.09 1.29 1.73.17 1.3.37 1.92.31 1.28.54 1.89.45 1.24.72 1.83.57 1.18.88 1.76a1.09 1.09 0 001.93.25zM203 54.93c-.54-.39-.75-1.26-1.32-1.61s-1.13-.73-1.71-1-1.38-.23-2-.51-1-1.13-1.58-1.38-1.46.09-2.09-.12-1.27-.38-1.92-.55-1.28-.29-1.94-.43-1.23-.65-1.89-.74a1.85 1.85 0 00-1.38.23c-.72.72-.15 1.29-.87 2s-.89.55-1.61 1.27-.58.88-1.3 1.6-1.05.39-1.77 1.12-.83.61-1.55 1.34-.76.68-1.48 1.4-.68.77-1.4 1.49-.64.81-1.36 1.53-.89.56-1.61 1.28-.36 1.09-1.08 1.81-1.24.21-2 .93-.44 1-1.17 1.73-.69.75-1.41 1.48-.41 1-1.13 1.76-.85.6-1.57 1.32-1.22.23-1.94 1-.54.9-1.26 1.63-.58.87-1.3 1.59-.83.61-1.56 1.33-.35 1.1-1.07 1.83-1.06.38-1.79 1.1-.92.53-1.65 1.25-.61.84-1.33 1.56-.6.86-1.33 1.58-.73.72-1.46 1.45-.78.66-1.51 1.39c-.3.3-.18.82-.12 1.25.1.66-.24 1.4-.1 2s.73 1.2.9 1.84 0 1.38.24 2 1 1 1.3 1.65 0 1.42.3 2 .35 1.33.67 1.92.64 1.19 1 1.75 1.12.86 1.5 1.4a.79.79 0 001.21.23c.73-.73.84-.62 1.57-1.35s.48-1 1.21-1.71.59-.88 1.32-1.61l1.46-1.46c.73-.73.91-.55 1.64-1.28s.6-.86 1.33-1.59.58-.87 1.31-1.6 1-.43 1.77-1.16 1-.48 1.71-1.21.75-.71 1.48-1.45.41-1 1.14-1.78 1.05-.41 1.78-1.14.31-1.15 1-1.88 1.13-.35 1.86-1.08.25-1.21 1-1.94 1.14-.39 1.86-1.09.46-1 1.2-1.73.6-.86 1.33-1.6.84-.62 1.57-1.35.67-.8 1.4-1.53 1.07-.4 1.8-1.13.78-.69 1.51-1.42.61-.85 1.34-1.58.37-1.1 1.1-1.83 1.26-.2 2-.93.66-.81 1.39-1.54.7-.77 1.43-1.5 1-.48 1.72-1.22.5-1 1.23-1.69.89-.59 1.62-1.32.56-.92 1.29-1.65.89-.59 1.63-1.32c.35-.35-.2-.75-.56-1.03zM166.19 111.72c.72-.71 1-.46 1.68-1.18s.68-.77 1.39-1.49.67-.78 1.39-1.5 1.17-.26 1.89-1 .67-.77 1.38-1.49.62-.82 1.34-1.54.37-1.06 1.09-1.78l1.44-1.43c.72-.72.6-.83 1.32-1.55s1.23-.22 1.95-.94.28-1.16 1-1.88.75-.69 1.47-1.41 1-.41 1.74-1.12.9-.55 1.62-1.27.71-.74 1.43-1.46.36-1.07 1.08-1.79.79-.66 1.51-1.38 1-.45 1.7-1.17.37-1.07 1.09-1.79.83-.62 1.55-1.34.4-1 1.12-1.76.9-.55 1.62-1.27 1.16-.28 1.88-1 0-1.39.77-2.11 1.15-.29 1.87-1 .76-.69 1.48-1.41.41-1 1.13-1.75 1.17-.27 1.9-1 .29-1.14 1-1.87.71-.74 1.43-1.46.7-.75 1.42-1.47 1-.44 1.74-1.16a1.57 1.57 0 00.38-1.6c-.4-.64-1.49-.82-1.93-1.43s-.69-1.35-1.17-1.93-1.12-1-1.63-1.55-.77-.74-1.18-.33c-.71.72-.82.61-1.53 1.33s-.76.68-1.48 1.39-.67.77-1.39 1.49-.63.8-1.35 1.52-.89.55-1.61 1.27-.35 1.09-1.07 1.81-1.23.2-1.95.92-.43 1-1.15 1.71-.69.75-1.41 1.47-.4 1-1.12 1.75-.84.6-1.56 1.32-1.22.23-1.94 1-.53.9-1.25 1.62-.57.87-1.29 1.59-.83.6-1.55 1.32-.35 1.1-1.07 1.82-1.05.38-1.77 1.1-.93.52-1.65 1.24-.6.83-1.32 1.55-.6.85-1.32 1.57l-1.45 1.43c-.72.72-.78.66-1.5 1.38s-.49.95-1.21 1.67-1.05.39-1.77 1.11-.4 1-1.12 1.76-1 .48-1.68 1.2-.26 1.18-1 1.9-1.1.35-1.82 1.07-.91.53-1.63 1.25-.74.71-1.46 1.43-.38 1.07-1.1 1.79-.86.58-1.59 1.31-.83.61-1.56 1.33c-.24.25 0 .72.26 1 .45.43 1 .69 1.51 1.1s.94.78 1.44 1.16.84 1 1.35 1.3 1.13.53 1.67.85c.36.11.3.06.55-.22z" class="skeleton-color"/>
    <path d="M64.4 126.21c-.36 0-1 .72-1.31.51-.69-.43-.83-1.65-1.44-2s-1.87-.12-2.44-.53-.84-1.66-1.35-2a4.15 4.15 0 00-2.33-.79c-.42-.36-.19-1.23-.23-1.74s-.32-1.26 0-1.68 1.14-.43 1.65-.47a2.08 2.08 0 011.51.43s.66.45 1.73 1.27c.48.37.69 1.32 1.36 1.8s1.19.74 1.83 1.17 1.26.66 1.91 1.06c.46.29 1.13.47 1.25 1a2.5 2.5 0 01-.29 1.68c-.34.48-1.18.29-1.85.29zM91.24 135c-.91 0-1.85.16-2.82.12-.66 0-1.29-.48-2-.55s-1.3-.15-2-.25-1.41.34-2.08.2-1.36-.09-2-.26-1.34-.23-2-.43-1.11-.93-1.76-1.15-1.29-.37-1.92-.61-1.23-.53-1.86-.79-1.26-.46-1.46-.93.36-1.11.57-1.62a1.74 1.74 0 011-1c.47-.19.82.08 1.33.3s1.63-.28 2.28 0 1 1.37 1.65 1.59 1.63-.47 2.29-.28 1.15 1.19 1.82 1.35 1.54-.52 2.21-.41 1.3.84 2 .92 1.44-.39 2.12-.36 1.31.4 2 .41 1.32-.07 2-.08 1.32-.13 2-.16 1.38.55 2 .49 1.33-.21 2-.3 1.31-.33 1.92-.44 1.22-.73 1.83-.87 1.3-.3 1.88-.46 1.24-.53 1.8-.72 1 .54 1.51.76 1.25.25 1.43.77a2.5 2.5 0 01-.16 1.73c-.23.46-.92.55-1.44.72s-1.29.16-2 .36-1.24.35-1.94.51-1.19.77-1.88.9-1.33.14-2 .24-1.36-.2-2.06-.12-1.28.62-2 .67-1.34-.07-2 0-1.56-.25-2.26-.25zM195.28 131a1.38 1.38 0 01-1.55-1.23c-.14-.54-.64-1.11-.38-1.55a2.39 2.39 0 011.4-.92 9 9 0 012-.92c.6-.21 1.38-.2 2.15-.5s1.35-.42 2.06-.74 1.31-.6 2-.95 1.08-1 1.72-1.39 1.63-.15 2.25-.56 1.18-.61 1.69-1 .53-1.38 1-1.81.79-1 1.23-1.48 1.42-.47 1.83-.91.79-1.14 1.16-1.56a5.07 5.07 0 011.55-1.22 1.32 1.32 0 011.07-.61c.5-.06 1.09-.46 1.52-.12a2.62 2.62 0 011 1.42 2.92 2.92 0 01-.39 1.82 5.36 5.36 0 00-1.8 1.3c-.41.46-.83 1.06-1.37 1.64s-1 1-1.52 1.51-.74 1.29-1.29 1.78-1.46.48-2 .92-1.09.94-1.67 1.33-1.33.5-1.92.85-.78 1.48-1.37 1.8-1.68-.2-2.29.09-.9 1.46-1.5 1.72-1.66-.24-2.25 0c-.74.28-1.12 1.29-1.68 1.48a3.85 3.85 0 01-2.17 0c-.19-.03-.32-.19-.48-.19z" class="skeleton-color-alt"/>
  </g>
  <g data-expression="2">
    <path d="M197.57 37.48c-.39-.21-1.16.43-1 .85s.18 1.17.34 2c.11.59 1 1.16 1 1.88s-.47 1.35-.47 2a19.74 19.74 0 01-.48 2 15.29 15.29 0 01-.33 1.93c-.18.66-.33 1.32-.52 2s-.32 1.34-.51 2-.1 1.4-.27 2.06-.2 1.38-.35 2-.72 1.27-.84 1.93 0 1.42 0 2.08a15.15 15.15 0 00-.21 2.06 10.87 10.87 0 00.11 2.09 6.42 6.42 0 00.89 1.93 5.73 5.73 0 001.58 1.37 7.85 7.85 0 001.92.66 10.07 10.07 0 002 .47c.75.09 1.45.67 2.09.62a8.38 8.38 0 002.15-.4c.68-.26 1.11-1 1.63-1.47s.66-1.16 1-1.77 1.31-.9 1.53-1.59-.2-1.46-.1-2.17a18.34 18.34 0 00-.09-2.06 17.53 17.53 0 000-2c-.05-.68 0-1.35-.12-2s.45-1.49.3-2.18-.23-1.4-.43-2.07-1.18-1.09-1.41-1.74-.14-1.43-.41-2.07-.28-1.36-.58-1.92-1.18-.87-1.52-1.39-.54-1.26-.93-1.75-1.13-.76-1.57-1.2-.75-1.16-1.22-1.54a14.33 14.33 0 00-1.72-.94c-.77-.55-1.03-1.43-1.46-1.67zM183.06 28.21c0-.38.32-.34.61-.1a17.43 17.43 0 011.69 1.29c.48.47 1.26.74 1.74 1.32a16.46 16.46 0 011.51 1.62c.37.63.11 1.61.39 2.27a13.32 13.32 0 01.87 2 8.63 8.63 0 010 2.16c0 .78.37 1.6.08 2.22s-1.08.92-1.75 1.3a4.57 4.57 0 01-2 .88 5.18 5.18 0 01-1.91-.33c-.69-.2-1.51-.29-1.88-.77a4.89 4.89 0 01-.94-1.91 9.32 9.32 0 010-2c0-.62.69-1.2.83-1.85s.49-1.18.68-1.8-.34-1.53-.24-2.19.92-1.38.94-2c.06-.87-.57-1.58-.62-2.11zM14.78 46.77c-.27-.56-1.57-.8-1.88-.26s-.11 1.4-.46 2.1-.62 1.18-.9 1.84-.86 1.15-1.08 1.8.17 1.49 0 2.15a12.21 12.21 0 00-.33 2c0 .74-.47 1.48-.29 2.08s1 .82 1.63 1.2.88 1.21 1.7 1.26a5.35 5.35 0 002.12-.59A2.78 2.78 0 0016.81 59a4.22 4.22 0 00.7-1.94 10.44 10.44 0 00-.14-2.12c-.11-.69-.57-1.3-.76-2s-.4-1.35-.64-2 .14-1.64-.12-2.26-.85-1.39-1.07-1.91zM25.79 56.19c-.18-.5-.4-.4-.62.09s-.51 1.19-.83 2c-.26.61-.79 1.16-1.06 1.87s-.27 1.39-.52 2.08-1.29 1.09-1.5 1.78-.3 1.43-.45 2.12a20.31 20.31 0 00-.08 2.19 15.43 15.43 0 00-.4 2.15 6.86 6.86 0 00.54 2.13 3.43 3.43 0 001.33 1.66 3.72 3.72 0 002 .52 4.45 4.45 0 001.91-.14 3.31 3.31 0 001.61-1.1 5.68 5.68 0 00.73-1.85 11.45 11.45 0 00.09-2 17.57 17.57 0 00.24-2c-.05-.65.09-1.35 0-2s-.51-1.27-.64-1.92-.78-1.18-.94-1.81.36-1.49.19-2.1-.76-1.21-.94-1.79c-.25-.74-.45-1.37-.66-1.88zM81.26 139c-.7 0-1.4-.28-2.08-.33s-1.41 0-2.1-.08-1.41-.07-2.09-.22-1.41-.2-2.08-.39-1-1.31-1.68-1.54-1.63.34-2.27.06-.91-1.3-1.52-1.63-1.28-.52-1.87-.88-1.18-.71-1.75-1.11-1.08-.85-1.62-1.29-.91-1-1.43-1.5-1.38-.55-1.87-1-1.14-.85-1.6-1.38-.54-1.36-1-1.91-.61-1.25-1-1.83-.85-1.07-1.22-1.67-1-1-1.31-1.63-.44-1.33-.74-2-.28-1.37-.55-2-1-1.1-1.2-1.76-.49-1.3-.69-2-.41-1.33-.57-2-.3-1.35-.43-2 .06-1.41 0-2.1-.29-1.35-.35-2-.43-1.36-.47-2.06-.34-1.39-.34-2.09.2-1.4.23-2.09.56-1.36.62-2 .26-1.36.36-2 0-1.4.15-2.07.56-1.29.72-2-.14-1.48.05-2.14.88-1.17 1.12-1.82.07-1.45.33-2.09 1-1 1.33-1.68 0-1.57.3-2.17.85-1.13 1.21-1.72 1.09-.94 1.48-1.51.36-1.45.79-2 1-1 1.47-1.49 1-1 1.48-1.46.76-1.23 1.27-1.69 1.24-.7 1.77-1.13 1.12-.82 1.69-1.22 1.18-.71 1.77-1.07 1.19-.69 1.8-1 1.19-.7 1.82-1 1.07-1.08 1.72-1.32 1.45-.08 2.12-.27 1.32-.46 2-.61 1.38-.22 2.07-.32 1.4.1 2.09.05 1.37-.5 2.07-.5 1.36.79 2 .84 1.4-.22 2.08-.13 1.43-.11 2.11 0 1.28.61 1.94.81 1.21.71 1.86 1 1.3.42 1.93.7 1.26.53 1.87.86 1.61 0 2.2.35 1.08.93 1.64 1.33.81 1.23 1.35 1.67 1.44.45 1.95.92.43 1.54.92 2 1.18.77 1.64 1.29 1 .94 1.45 1.49 1.1.93 1.49 1.5.25 1.49.61 2.08.71 1.17 1 1.78 1 1.06 1.27 1.69 0 1.48.3 2.13.83 1.14 1.07 1.8.17 1.38.37 2 1.24 1.09 1.41 1.77 0 1.43.14 2.11-.09 1.42 0 2.11.07 1.37.13 2.07.73 1.33.76 2-.21 1.4-.21 2.09-.25 1.39-.28 2.07.14 1.41.08 2.09.06 1.42 0 2.1-.34 1.36-.47 2-.4 1.34-.56 2-.09 1.42-.29 2.08-.3 1.39-.53 2-.72 1.22-1 1.86-.87 1.14-1.16 1.76-.54 1.28-.87 1.89-.92 1-1.28 1.64-.22 1.51-.62 2.08-.63 1.27-1 1.82-1.19.84-1.64 1.36-.82 1.15-1.3 1.64-.92 1.07-1.43 1.54-1.17.78-1.71 1.22-1.23.67-1.8 1.07-.9 1.15-1.49 1.52-1.5.18-2.11.51-1 1.05-1.66 1.33-1.23.69-1.88.93-1.38.31-2 .5-1.44-.08-2.12.06-1.33.33-2 .43-1.36.21-2 .26-1.42.64-2.16.64zM155 89.92c.49.14 1 1 1.78 1.22.58.18 1.21.45 1.94.67l2 .59c.62.18 1.51-.37 2.19-.17s1.32.27 2 .47 1.19.73 1.87.93 1.39.06 2.06.25 1.14.93 1.81 1.12 1.25.6 1.91.78 1.39.12 2 .31 1.43-.08 2.1.1 1.28.49 1.94.67 1.34.31 2 .48 1.18 1 1.84 1.12 1.38.13 2 .29 1.34.36 2 .51 1.51-.41 2.17-.26 1.28.59 1.94.73 1.33.42 2 .54 1.35.37 2 .47 1.35.47 2 .56 1.42-.44 2.06-.38 1.34.28 2 .33 1.35.14 2 .17 1.35.4 2 .41 1.37-.44 2-.45 1.36-.24 2-.27 1.41.16 2 .12c.78 0 1.46.24 2 .22.7 0 1.72.39 1.7 1.08s-.6 1.38-.65 2.07-.43 1.36-.5 2 .6 1.5.49 2.18-.92 1.26-1.06 1.93-.24 1.37-.41 2-.19 1.39-.39 2-.26 1.39-.49 2-.58 1.28-.84 1.92-.49 1.31-.78 1.94-.25 1.45-.58 2.06-1.23.91-1.59 1.5-.29 1.48-.68 2-.8 1.17-1.22 1.72-1.36.7-1.82 1.22-.56 1.38-1 1.87-.94 1.07-1.46 1.53-1.16.81-1.71 1.24-1.15.81-1.73 1.19-1.07 1-1.68 1.29-1.53.08-2.16.37-1 1.26-1.65 1.49-1.49 0-2.16.15-1.32.49-2 .61-1.38.21-2.08.27-1.4-.07-2.1-.07-1.35-.26-2-.32a19.54 19.54 0 01-2-.32c-.68-.12-1.51.48-2.18.3s-1.17-.9-1.82-1.13-1.42-.14-2.05-.42-1.08-.92-1.68-1.26-1.3-.5-1.88-.87-1.21-.68-1.76-1.09-.67-1.34-1.19-1.8-1.23-.66-1.72-1.14-1-.92-1.48-1.44-.75-1.15-1.18-1.69-.66-1.2-1.05-1.76-.68-1.17-1-1.76-1.07-.94-1.4-1.55-.3-1.37-.6-2-1-1-1.29-1.67-.25-1.37-.49-2-.25-1.34-.46-2-.91-1.16-1.08-1.83-.66-1.26-.81-1.93.49-1.49.37-2.17-.24-1.34-.33-2-.45-1.33-.51-2 .29-1.39.26-2.08-.4-1.35-.4-2c0-1 .05-1 .05-2.07s-.27-1-.28-2.07.38-1 .38-2.08-.48-1-.49-2.07-.25-1-.26-2.08c0-.48 1-1.17 1.47-1" class="skeleton-color-alt"/>
    <path d="M98.88 126.6a3.16 3.16 0 01-1.9-.54 3 3 0 01-.64-2c0-.64.53-1 1-1.53a4.59 4.59 0 01.81-2c.33-.48 1.22-.74 1.63-1.41s.56-1.22.91-1.87 0-1.48.33-2.14 1.2-.94 1.47-1.6-.24-1.53 0-2.2 1-1.1 1.18-1.77.17-1.37.33-2-.1-1.39 0-2.08.94-1.24 1-1.93 0-1.39 0-2.08-.41-1.37-.41-2.07-.17-1.41-.22-2.1.13-1.43 0-2.12.16-1.47 0-2.15-.59-1.34-.77-2-.41-1.37-.63-2-.15-1.49-.42-2.12-.38-1.44-.68-2-1.45-.87-1.79-1.45-.66-1.3-1-1.84-.73-1.33-1.11-1.8c-.82-1-1.34-1.59-1.36-1.61-.51-.47-.33-1.16-.35-1.8a1.83 1.83 0 01.54-1.53c.47-.5.84-1 1.48-1a2.61 2.61 0 011.9.53 10.15 10.15 0 011.53 1.49 20.43 20.43 0 011.5 1.54c.38.52.26 1.48.67 2.12s.92 1 1.29 1.68.53 1.28.85 1.94.7 1.21 1 1.88.67 1.23.92 1.92-.19 1.51 0 2.21 1.26 1.11 1.42 1.81 0 1.44.13 2.15-.08 1.42 0 2.14.74 1.35.78 2.07 0 1.42 0 2.14-.17 1.37-.2 2-.32 1.34-.38 2-.58 1.3-.68 2 0 1.36-.18 2 .14 1.42 0 2.06-.23 1.37-.42 2-1.1 1.07-1.32 1.69.34 1.59.09 2.2-1.06 1-1.33 1.63-.15 1.47-.44 2-1.36.84-1.68 1.39-.1 1.58-.44 2.1-1.3.86-1.63 1.32c-.69 1-1.12 1.49-1.2 1.58-.4.47-.88 1.15-1.58 1.15zM195.73 129.24c-.88 0-1.38-.58-1.84-1.4-.33-.61-1.14-1.21-1-1.82s1.17-.7 1.78-1a4.81 4.81 0 011.27-1.61c.4-.35 1.23-.43 1.75-1s.16-1.5.62-2 .86-.87 1.29-1.42 1-.82 1.37-1.37a12.91 12.91 0 001-1.8 16.49 16.49 0 00.78-1.87 18.67 18.67 0 00.61-1.94c.19-.73 1-1.28 1.1-1.86a5 5 0 00-.08-2.1c0-.69.47-1.05.95-1.48s.88-1.09 1.57-1.06a3.19 3.19 0 012.05.66c.43.48 0 1.4-.06 2.09a5.36 5.36 0 01.12 2.18c-.1.62-.3 1.32-.49 2.12a20.68 20.68 0 01-.36 2.16c-.21.67-.87 1.2-1.16 1.89a20.22 20.22 0 01-1 1.92 19.7 19.7 0 01-1.19 1.78c-.4.57-.6 1.23-1 1.73s-.53 1.32-.93 1.8-.78 1.17-1.2 1.62-1.38.6-1.81 1-.77 1.31-1.19 1.65a7.84 7.84 0 01-1.72 1 2.6 2.6 0 01-1.23.13z" class="skeleton-color"/>
    <path d="M183.1 90c-.22 0-.42.11-.63 0-1.09-.37-1.15-.2-2.23-.58s-.94-.79-2-1.17-1.28.18-2.36-.2-.92-.86-2-1.24c-.52-.18-.63-.49-.85-.95s-.76-.85-.58-1.37a2.12 2.12 0 011.1-1.16c.46-.22.91.11 1.43.29 1.09.37 1.1.33 2.18.71s1.31-.28 2.4.09 1.11.3 2.19.68.89.94 2 1.31a1.71 1.71 0 011 1 1.85 1.85 0 01.27 1.44A1.83 1.83 0 01183.1 90zM220.27 97.72a2.68 2.68 0 01-1.62-.66 4.26 4.26 0 00-1.84-.76 20.09 20.09 0 00-2.08-.46c-.62-.09-1.27-.74-2.08-.81-.65-.06-1.4.37-2.18.33s-1.38-.24-2.14-.26-1.4 0-2.16 0-1.4.42-2.07.39-1.37-.49-2-.54-1.4 0-2.06-.07-1.44.17-2.09.07-1.34-.62-2-.73-1.32-.65-1.93-.78c-.77-.17-1.39-.43-2-.58a4.43 4.43 0 00-2.13 0 2.11 2.11 0 01-1-1.18c-.22-.46.07-.83.25-1.35s.25-.86.71-1.08a1.78 1.78 0 011.45-.25 4.59 4.59 0 002 1c.59.14 1.42-.23 2.23-.07.64.13 1.26.78 2 .9s1.46-.31 2.21-.22 1.43-.19 2.18-.13 1.36.8 2.1.83 1.44-.38 2.18-.37 1.38.21 2 .23 1.37.49 2 .52 1.4-.26 2-.21 1.44-.27 2.06-.2 1.42.19 2 .3 1.26.94 1.83 1.1a10.11 10.11 0 011.82.72c.9.4 1.75.24 2 .57a2.86 2.86 0 01.7 1.68c-.06.51-.84.88-1.27 1.22s-.64.85-1.07.85zm-1.57-1.46zm0 0zm0 0zM105.14 142.39a2.75 2.75 0 01-2-.92c-.31-.45.43-1.16.53-1.66s0-1 .41-1.34.94-.26 1.33-.53.54-1.43 1-1.85 1.38-.41 1.84-.85 1-.93 1.39-1.4.75-1.12 1.16-1.59 1.26-.73 1.63-1.2.45-1.42.78-1.87a12 12 0 011.26-1.51c.29-.46.6-1.1 1.09-1.22s.91.57 1.37.87 1.1.39 1.22.89-.35.91-.64 1.38a4 4 0 01-.64 2.19c-.37.51-1.44.62-2 1.27s-.62 1.29-1.12 1.88-1 1-1.56 1.53-.89 1.13-1.43 1.64-.83 1.26-1.39 1.73-1.2.87-1.8 1.29c-.41.29-.86.53-1.26.8a2.53 2.53 0 01-1.17.47zM94.41 147.54a2 2 0 01-1.89-1.48 1.62 1.62 0 011.37-2.4 13.25 13.25 0 012-1c.59-.24 1.3-.48 2.09-.87a2.48 2.48 0 011.67-.24c.49.17.53.92.77 1.42a1.57 1.57 0 01.2 1.33 1.67 1.67 0 01-.92 1c-.58.28-.93.91-1.42 1.13s-1.12.63-1.58.81a10.63 10.63 0 01-1.71.52c-.14.06-.4-.22-.58-.22z" class="skeleton-color-alt"/>
  </g>
  <g data-expression="3">
    <path d="M67.31 41.57c.62-.17 1.2-.38 1.78-.53s1.15-.68 1.73-.81 1.28-.22 1.84-.33 1.34-.1 1.85-.18c1.12-.19 1.78-.28 1.84-.29a3.08 3.08 0 012.1.2c.5.39.58 1.31.66 2a2.23 2.23 0 01-.74 1.66c-.39.5-.74 1.09-1.43 1.17a10.26 10.26 0 00-2.13.2c-.59.11-1.33.09-2.13.26-.64.13-1.2.88-2 1.06s-1.42.07-2.14.27c-.22.06-.47.35-.69.35a3.13 3.13 0 01-1.61-.74 3 3 0 01-1.14-1.36 3.25 3.25 0 01.22-2.2c.36-.56 1.32-.55 1.99-.73zm-38 72.22a3.43 3.43 0 01-1.88-.41c-.6-.38-1.28-.72-1.49-1.41a6.5 6.5 0 01-.16-2.11 14.93 14.93 0 01.45-2c.15-.66.33-1.33.54-2s.08-1.47.34-2.1 1-1.14 1.24-1.72a18.81 18.81 0 011.22-1.67c.31-.53.89-.67 1.16-.11s.45 1.25.79 2 .41 1.34.68 2 1.07 1.15 1.28 1.84a18.39 18.39 0 01.24 2.18 10.77 10.77 0 01.39 2.19 4.54 4.54 0 01-.86 2.09 3.64 3.64 0 01-1.71 1.51c-.62.22-1.44-.26-2.28-.28zM32 92.15a2.14 2.14 0 01-.68 1.51c-.45.41-.92 1-1.57 1-.07 0-.15-.06-.23-.07a2.62 2.62 0 01-1.68-1 2.54 2.54 0 01-.59-1.82c.07-.7-.28-1.45-.19-2.14s.61-1.33.72-2 .5-1.33.63-2-.07-1.44.08-2.12.44-1.34.62-2 .5-1.31.7-2-.18-1.52 0-2.18.7-1.25.93-1.9.23-1.42.48-2.07.71-1.23 1-1.87.37-1.38.66-2 .54-1.31.85-1.93 1.12-1 1.44-1.62.33-1.43.67-2 .89-1.12 1.25-1.71.62-1.29 1-1.85.89-1.11 1.3-1.66 1.18-.87 1.61-1.4.9-1.07 1.35-1.57.59-1.39 1.06-1.86 1.23-.66 1.74-1.11.8-1.16 1.33-1.58 1.17-.71 1.72-1.11.95-1 1.53-1.39 1.28-.5 1.87-.85 1-1 1.6-1.34 1.49 0 2.11-.36 1-1.06 1.62-1.34a3.11 3.11 0 012.14-.13c.59.22.66 1.13 1 1.76s.93 1.29.7 1.89a3 3 0 01-1.56 1.43c-.64.29-1.52 0-2.13.36s-1.14.86-1.74 1.18-1.29.57-1.87.92-1 1-1.57 1.4-1.22.7-1.76 1.11-1.13.83-1.65 1.27-1.11.87-1.59 1.35-.75 1.09-1.22 1.63-.78 1.02-1.21 1.57-.8 1.05-1.2 1.62-.91 1-1.28 1.57-.38 1.32-.74 1.92-.93 1-1.27 1.59-.86 1-1.18 1.66 0 1.49-.29 2.11-.53 1.21-.8 1.84-.54 1.21-.79 1.84-.62 1.19-.85 1.83-.71 1.17-.93 1.82-.26 1.32-.45 2-.89 1.15-1.06 1.8-.22 1.34-.37 2-.2 1.33-.33 2-.08 1.35-.19 2-.39 1.31-.47 2-.21 1.32-.27 2zm69.8 34.24a3 3 0 00-.33.21 4.26 4.26 0 01-1.74 1.23c-.55.21-1.26.38-2 .59-.61.16-1.34.17-2.1.3s-1.35.22-2.09.29-1.36.52-2.1.53-1.39-.42-2.12-.46-1.35-.36-2.08-.44-1.41.17-2.13.05-1.34-.38-2-.54-1.31-.48-2-.67-1.51.18-2.2 0-1.23-.72-1.91-1-1.41-.27-2.07-.55-1.2-.76-1.86-1.07-1.24-.39-1.88-.74-1.18-.6-1.78-1-.8-1.18-1.36-1.58-1.3-.48-1.83-.92-.89-1-1.39-1.47-1.08-.81-1.54-1.31-.81-1.07-1.24-1.59-.46-1.3-.85-1.86-.7-1.1-1-1.68-1.08-.92-1.38-1.53-.2-1.35-.45-2-.79-1.13-1-1.78-.2-1.32-.34-2-.54-1.26-.64-1.94.12-1.35.08-2-.45-1.32-.44-2 .67-1.3.72-2-.41-1.42-.33-2.08.13-1.39.25-2 1-1.19 1.11-1.84-.3-1.52-.09-2.15.62-1.26.87-1.87 1.07-1 1.37-1.61.4-1.32.73-1.9.83-1.08 1.2-1.63.53-1.31.94-1.83 1-1 1.41-1.46 1-1 1.45-1.42 1.08-.86 1.57-1.27.89-1 1.42-1.41 1-.88 1.56-1.24 1.15-.7 1.73-1 1.26-.47 1.85-.75 1.08-.91 1.68-1.15 1.37-.18 2-.37 1.35-.13 2-.28 1.21-.93 1.84-1a18.85 18.85 0 012-.22 13.44 13.44 0 012 .07 16.08 16.08 0 012.06.48c.65.15 1.25.61 1.92.84s1.34.34 2 .64 1 1.06 1.58 1.41 1.22.59 1.79 1 1.16.72 1.7 1.16 1.16.75 1.66 1.22.84 1.09 1.31 1.6.87 1 1.3 1.59 1.13.88 1.52 1.45.37 1.38.72 2 1.22.91 1.52 1.54.43 1.32.69 2 .2 1.39.4 2 .48 1.29.63 2 .42 1.32.52 2 .34 1.35.38 2-.31 1.36-.33 2 .13 1.36 0 2-.73 1.24-.86 1.89.43 1.49.24 2.13-.66 1.22-.89 1.84-.74 1.15-1 1.75-.23 1.39-.55 2-.78 1.11-1.14 1.67-.67 1.18-1.06 1.71-.72 1.18-1.14 1.68-1.27.69-1.73 1.15-.83 1.09-1.33 1.51a16.84 16.84 0 01-1.49 1.36 13.72 13.72 0 01-1.82.88 7.88 7.88 0 01-1.91.56 11 11 0 01-2 .47 16.72 16.72 0 01-2-.3 19.81 19.81 0 01-2-.09c-.65-.11-1.29-.27-2-.43s-1.41 0-2.06-.16-1.06-1-1.69-1.29-1.38-.14-2-.41-1.44-.15-2-.45-1-.93-1.63-1.27-.95-1-1.5-1.4-1.19-.65-1.72-1-1.32-.53-1.82-1A5.3 5.3 0 0168.4 109a8.92 8.92 0 01-.85-1.87 16.24 16.24 0 01.07-2.06 18.59 18.59 0 01-.09-2c0-.65.23-1.3.32-2s.48-1.24.62-1.92-.08-1.37.11-2 .4-1.25.63-1.89.16-1.36.43-2 1.06-1 1.37-1.56.64-1.14 1-1.7.54-1.23.93-1.76.77-1.09 1.22-1.57a16.52 16.52 0 011.57-1.22c.52-.44.73-1.28 1.29-1.63a11.92 11.92 0 011.85-.86 9.05 9.05 0 012-.2c.74-.13 1.46-.65 2.16-.63a11.27 11.27 0 012.19.38 11 11 0 012 1A11.17 11.17 0 0189 84.7a13.61 13.61 0 011.85 1.09 13.72 13.72 0 011.42 1.62 14.33 14.33 0 011.32 1.7 15 15 0 01.66 2.06 14.18 14.18 0 01.75 2 5.92 5.92 0 01.19 2 9.38 9.38 0 01-.22 2.08 13.8 13.8 0 01-1.11 1.79c-.31.62-.16 1.52-.56 2.11a19 19 0 01-1.3 1.72c-.45.54-1.16.87-1.65 1.36s-.85 1.21-1.39 1.63a14 14 0 01-1.84 1.14 8 8 0 01-2 .59 3.39 3.39 0 01-1.82.24c-.6-.18-1-.83-1.42-1.19a8.37 8.37 0 01-1.29-1.21 9.13 9.13 0 01-1.36-1.83 6.91 6.91 0 01-.3-2.26 4.14 4.14 0 01.35-2.24 4.57 4.57 0 011.84-1.36 4.49 4.49 0 012-.77 5.93 5.93 0 012.22.23c.56.19 1.08-.18 1.56-.45s1-.52 1.18-1.1a2.17 2.17 0 00-1.59-2.38 8.51 8.51 0 00-2-.57 10.36 10.36 0 00-2 .13 10.15 10.15 0 00-2 .33 8.66 8.66 0 00-2 .72c-.54.35-.65 1.29-1.14 1.8a8.49 8.49 0 00-1.16 1.58c-.35.56-1 .94-1.21 1.54a8.9 8.9 0 00-.52 1.93 11 11 0 00.23 2c.11.63.84 1.11 1 1.72a13 13 0 00.82 1.68 12.1 12.1 0 001 1.6c.43.56.55 1.34 1 1.79a10.88 10.88 0 001.69 1.17 9.37 9.37 0 001.77 1.15 7.57 7.57 0 002.12.13 7.25 7.25 0 002-.37 11.73 11.73 0 001.88-.78 16.19 16.19 0 001.66-1.16c.55-.36 1.23-.57 1.78-1s1.23-.66 1.73-1.14.49-1.4.94-1.91 1.28-.71 1.68-1.26.71-1.17 1.13-1.85.65-1.25 1-1.93a15.49 15.49 0 001-2 15 15 0 00.34-2.16 11.06 11.06 0 00.19-2.16 10.81 10.81 0 00-.7-2.05c-.17-.68.2-1.53 0-2.2a18.14 18.14 0 00-.91-2 18.32 18.32 0 00-1-1.9c-.39-.59-.77-1.24-1.22-1.79A18.34 18.34 0 0094 82.87a18 18 0 00-1.87-1.09 15.09 15.09 0 00-1.65-1.34 16.35 16.35 0 00-2-.72 15 15 0 00-2-.59 14.11 14.11 0 00-2.07-.26 15.7 15.7 0 00-2.09-.27c-.69 0-1.45-.36-2.17-.24s-1.2.85-1.84 1.06a13.81 13.81 0 00-1.91.64 15.45 15.45 0 00-1.82.91 17.56 17.56 0 00-1.47 1.4 19.08 19.08 0 00-1.46 1.39 19.51 19.51 0 00-1.18 1.64c-.42.52-.78 1.07-1.16 1.63s-1.43.7-1.77 1.29-.17 1.46-.47 2.07-.37 1.31-.63 1.93-.53 1.24-.75 1.86-1.13 1.08-1.31 1.72.08 1.44-.06 2.12 0 1.38-.07 2.07-.28 1.33-.34 2-.35 1.36-.34 2a19 19 0 00-.18 2.09c.08.7.86 1.26 1 1.91s-.35 1.58-.09 2.2a11.14 11.14 0 001 1.92 9.06 9.06 0 001.53 1.5c.51.45 1.43.42 2 .85s1.08.81 1.66 1.2 1 .94 1.62 1.3 1.09.87 1.71 1.19 1.26.57 1.88.87 1.27.56 1.91.81 1.4.21 2.05.44 1.16.93 1.82 1.12 1.34.44 2 .58 1.38.28 2.06.38 1.41.09 2.09.14 1.41-.34 2.08-.36 1.45.4 2.12.3a14 14 0 002-.78 11.72 11.72 0 001.93-.75 18.07 18.07 0 001.68-1.19 18.88 18.88 0 001.69-1.16c.52-.41.84-1.07 1.35-1.56s1-.89 1.47-1.41 1-.88 1.48-1.43 1.2-.8 1.61-1.36.42-1.37.79-2 .52-1.26.85-1.87.61-1.21.9-1.84 1.18-1 1.42-1.63 0-1.45.22-2.12.62-1.25.78-1.92.26-1.35.36-2 .17-1.36.23-2-.07-1.38-.06-2.07.13-1.37.09-2.07-.39-1.33-.49-2 .11-1.39 0-2-.51-1.27-.69-1.92-.33-1.31-.55-1.94-.45-1.27-.71-1.88-.39-1.32-.68-1.92-1-1-1.38-1.54-.48-1.28-.85-1.83-.44-1.37-.84-1.9-1.31-.68-1.75-1.18-.51-1.38-1-1.85-1.21-.7-1.71-1.15-.89-1-1.42-1.45-1.24-.59-1.8-1-1.18-.64-1.76-1-.91-1.18-1.51-1.47-1.36-.3-2-.54-1.38-.13-2-.32-1.28-.32-1.93-.46-1.28-.45-1.94-.52a17.83 17.83 0 00-2.09-.2c-.69 0-1.42-.3-2.13-.23s-1.36.44-2.06.58-1.41.14-2.09.33-1.33.49-2 .72-1.15.88-1.8 1.15-1.25.58-1.88.9-1.37.39-2 .74-1.15.79-1.74 1.18-1.14.79-1.71 1.21-1.3.61-1.84 1.06-1 1-1.5 1.52-1 .93-1.55 1.46-.78 1.18-1.24 1.74-1.17.88-1.6 1.47-.34 1.46-.72 2.07-.91 1.09-1.25 1.72-.57 1.28-.87 1.94-.3 1.38-.56 2.05-1 1.13-1.23 1.82-.58 1.32-.75 2 .32 1.5.19 2.21-.56 1.33-.64 2-.14 1.41-.19 2.13.06 1.38 0 2 .26 1.36.29 2-.44 1.41-.37 2.08.54 1.31.66 2 .35 1.32.51 2 .23 1.35.43 2 .34 1.33.59 2 .33 1.36.63 2 .8 1.13 1.14 1.71.56 1.28.94 1.84.94 1 1.36 1.54.91 1 1.36 1.52.72 1.23 1.2 1.7 1.13.82 1.63 1.26 1.05.9 1.57 1.31 1.34.51 1.88.89 1.13.8 1.68 1.14.9 1.24 1.46 1.55 1.57.08 2.11.34.9 1.16 1.52 1.4 1.22.5 1.85.71 1.33.11 2 .3 1.38-.11 2 .05 1.14.86 1.77 1 1.25.48 1.88.6 1.43-.43 2.06-.32 1.32.16 1.93.25 1.28.53 1.88.61c.81.11.77 1 0 1.18-.6.15-1.1.91-1.77 1.05s-1.38-.22-2-.11-1.3.27-1.93.35-1.34.27-1.93.27-1.42.46-2.1.41-1.35-.59-2-.69-1.34-.35-2-.5-1.32-.38-2-.57-1.51.14-2.16-.1-1.11-1-1.74-1.24-1.48-.14-2.09-.46-1.27-.63-1.86-1-1-1-1.55-1.45-1.11-.83-1.65-1.26-.83-1.14-1.35-1.61-1.16-.77-1.65-1.27-.75-1.17-1.2-1.69-.88-1-1.3-1.6-1.07-.92-1.46-1.49-1.11-.94-1.47-1.53-.49-1.33-.83-1.94-.48-1.3-.78-1.93-.31-1.36-.57-2-.8-1.16-1-1.82-.55-1.27-.75-1.94-.23-1.37-.39-2-.2-1.37-.33-2-.83-1.27-.93-2 .51-1.45.44-2.14-.53-1.34-.57-2S47 98 47 97.32s.26-1.4.29-2.09.41-1.36.47-2-.06-1.4 0-2.08.26-1.37.39-2 .18-1.38.34-2 .6-1.28.79-1.94.07-1.44.3-2.09 1-1.11 1.24-1.75.45-1.3.74-1.93.76-1.15 1.09-1.76.5-1.29.87-1.88.49-1.33.88-1.89 1.17-.86 1.59-1.41.26-1.58.72-2.1 1.43-.57 1.91-1.07.78-1.18 1.29-1.64 1.25-.66 1.79-1.09.78-1.27 1.34-1.67 1.36-.45 2-.81 1.2-.66 1.82-1 1.06-1 1.69-1.25 1.42-.17 2.07-.41 1.11-1.06 1.78-1.25 1.43 0 2.11-.18 1.37-.19 2.06-.29 1.36-.28 2-.33 1.39.14 2.08.14 1.41-.36 2.1-.31 1.4.08 2.09.18 1.35.39 2 .53 1.39.23 2.05.42 1.25.66 1.9.9 1.46.12 2.09.4 1.21.72 1.82 1 1 1 1.62 1.36 1.41.38 2 .78.74 1.31 1.29 1.74 1.4.48 1.92 1 .63 1.33 1.11 1.83 1.14.81 1.59 1.34.84 1.09 1.27 1.64 1.12.89 1.51 1.47.5 1.32.87 1.91 1 1 1.34 1.63.17 1.46.47 2.09.62 1.22.88 1.87.77 1.18 1 1.84.17 1.39.37 2.06.41 1.3.57 2 .37 1.33.5 2 .19 1.36.29 2 .42 1.34.48 2-.26 1.4-.23 2.09.38 1.37.38 2.07-.34 1.34-.37 2 .28 1.37.21 2 .09 1.38 0 2-.81 1.24-.93 1.9.29 1.45.14 2.11-.58 1.25-.77 1.9-.21 1.36-.43 2-.75 1.17-1 1.8-.25 1.36-.53 2-.47 1.29-.79 1.89-.89 1.06-1.24 1.64-.6 1.22-1 1.79-1 .92-1.44 1.46-.85 1-1.28 1.55-.42 1.44-.88 1.94-1.33.56-1.82 1.02zm72.4-87.14c.62-.1 1.26-.26 2-.34s1.26-.53 2-.57 1.31 0 2 0 1.32.14 2 .16 1.32.05 2 .1 1.36-.3 2-.21 1.25.6 1.92.72 1.24.51 1.9.66 1.37 0 2 .13 1.24.48 1.89.69 1.2.55 1.84.79 1.48-.09 2.09.17 1.13.79 1.73 1.09 1.33.36 1.91.69 1.08.84 1.65 1.19a3 3 0 011.39 1.6 3.35 3.35 0 01-.3 2.19c-.47.77-1.65.84-2.49.84-.44 0-1 .23-1.44 0-.66-.41-1.23-1-1.92-1.33s-1.46-.55-2.17-.86-1.38-.72-2.11-1-1.24-.89-1.92-1.1-1.41-.43-2.09-.6-1.53.16-2.22 0-1.38-.62-2.08-.71-1.49.18-2.18.13-1.46-.24-2.15-.25-1.46.3-2.15.33-1.48-.18-2.16-.11-1.41.56-2.06.67-1.25-.65-1.77-1-1.31-.67-1.43-1.35a3.13 3.13 0 01.41-2.1c.35-.55 1.23-.5 1.91-.62zm9.07 96.41h-2.05c-.68 0-1.42.25-2.09.13s-1.35-.33-2-.51-1.28-.52-1.93-.75-1.29-.48-1.91-.77-1.44-.22-2.05-.55-1-1.06-1.55-1.44-1-1-1.52-1.41-1.28-.58-1.8-1-.93-1-1.42-1.5-.83-1.08-1.29-1.6-1.36-.65-1.79-1.2-.61-1.26-1-1.83-1-1-1.36-1.58-.53-1.29-.87-1.89-.82-1.13-1.13-1.75-.64-1.23-.91-1.87 0-1.47-.25-2.12-.83-1.17-1-1.83-.21-1.37-.38-2-.5-1.3-.65-2-.16-1.37-.28-2.05.21-1.42.13-2.1-.14-1.35-.2-2-.59-1.33-.62-2 .33-1.38.33-2.07-.34-1.35-.31-2 .22-1.33.27-2-.16-1.38-.08-2 .45-1.3.56-2-.14-1.4 0-2.06.93-1.17 1.1-1.81-.15-1.44 0-2.08.35-1.32.57-2 1.11-1 1.37-1.63-.11-1.52.17-2.12.75-1.15 1.06-1.74 1.16-.89 1.5-1.46.49-1.26.86-1.82.86-1 1.26-1.51.78-1.07 1.39-1.52 1.17-.67 1.79-1.06 1.18-.64 1.82-1 1.25-.5 1.91-.78a16.17 16.17 0 013.84-1.58c.66-.14 1.35-.24 2.06-.32s1.37.06 2.08 0a20.42 20.42 0 012.1-.32c.68.06 1.33.45 2 .58s1.26.52 1.95.71 1.52-.24 2.19 0 1.32.47 2 .77 1.26.62 1.88 1 1.14.8 1.74 1.19 1 1 1.57 1.35 1.21.66 1.77 1.08.74 1.24 1.27 1.68 1.1.78 1.61 1.26 1 .87 1.5 1.38 1 .89 1.48 1.43.68 1.18 1.08 1.75.71 1.14 1.06 1.74 1 1 1.28 1.64.16 1.41.41 2.06 1 1.08 1.24 1.75.21 1.36.36 2 0 1.38 0 2.07.26 1.34.3 2 .21 1.36.2 2.06.15 1.38.1 2.08-.46 1.35-.54 2 0 1.41-.07 2.08-.78 1.26-.92 1.94.42 1.51.26 2.18-.63 1.27-.83 1.92-.69 1.23-.92 1.88-.13 1.43-.39 2.06-.69 1.22-1 1.83-.56 1.28-.9 1.88-.58 1.28-1 1.85-1.18.86-1.59 1.41-.7 1.21-1.14 1.72-.82 1.14-1.31 1.62-1.15.8-1.67 1.24-1.14.75-1.68 1.12a18.25 18.25 0 01-1.6 1.25 18 18 0 01-1.92.64 17.09 17.09 0 01-1.84.8 13 13 0 01-2 .35 11 11 0 01-2 .4c-.64-.06-1.15-.84-1.82-1a12.62 12.62 0 01-2-.32c-.59-.25-1.41-.14-2-.48s-1-1-1.53-1.36-.82-1.1-1.35-1.52-1.08-.74-1.58-1.2-1.23-.63-1.7-1.12-.84-1-1.27-1.54-1-.9-1.44-1.43-.51-1.28-.88-1.84-.77-1.08-1.11-1.66-.53-1.23-.83-1.82-.31-1.31-.57-1.93-.86-1.08-1.08-1.71-.4-1.27-.58-1.91-.66-1.22-.79-1.88.32-1.4.24-2.06-.13-1.35-.17-2-.28-1.36-.28-2v-2c0-.62.35-1.34.45-2s-.3-1.46-.15-2.11.41-1.34.62-2 .79-1.18 1.05-1.79.16-1.47.48-2.06a19.06 19.06 0 011.19-1.7c.39-.57 1.07-.92 1.5-1.43a17.34 17.34 0 011.67-1.29 20.16 20.16 0 011.34-1.52 16.14 16.14 0 011.71-1.08 8 8 0 011.88-.91 12 12 0 012.09 0 13.9 13.9 0 012.06-.13 18.56 18.56 0 012.07.16c.68.1 1.4 0 2.1.21s1.24.68 1.91.9 1.52-.07 2.17.2 1.29.59 1.91.92 1.09.94 1.68 1.31 1.36.54 1.91 1 1.05 1 1.56 1.45a6.34 6.34 0 01.94 1.84 9.91 9.91 0 01.94 1.84c.16.62-.07 1.36 0 2.07s.22 1.31.25 2 .32 1.34.3 2-.28 1.34-.34 2 0 1.37-.12 2-.63 1.26-.78 1.93-.21 1.34-.41 2-.42 1.36-.67 2-.23 1.47-.52 2.09a19.82 19.82 0 01-1.3 1.72 18.45 18.45 0 01-1.1 1.83 13.6 13.6 0 01-1.6 1.39 9.61 9.61 0 01-1.65 1.29 6.67 6.67 0 01-2 .6 7.86 7.86 0 01-2-.08c-.71-.05-1.5.46-2.14.24a9.24 9.24 0 01-1.94-.9c-.57-.37-.83-1.19-1.34-1.67a12.33 12.33 0 01-1.2-1.64 17.38 17.38 0 01-1.24-1.62c-.36-.6-1.2-.94-1.49-1.56a18 18 0 01-.85-1.93 17.59 17.59 0 01-.53-2c-.14-.65.21-1.38.19-2a11.74 11.74 0 010-2 11.89 11.89 0 01.76-1.82A9.53 9.53 0 01175 92.3a11.91 11.91 0 011.2-1.56 10 10 0 011.4-1.43 6.45 6.45 0 011.88-.68c.54-.18 1.1.1 1.76.23s1.37-.28 1.95 0 .8 1 1.29 1.45a8.31 8.31 0 011.37 1.22 6.34 6.34 0 011.15 1.88 2.35 2.35 0 01-.23 2 8.73 8.73 0 01-1.24 1.95 7 7 0 01-1.91 1.32c-1.19.59-2.08 1.07-2.18 1.07-.55 0-1.26-.26-1.61.11a2.53 2.53 0 00-.59 1.62 2.58 2.58 0 00.66 1.61 2.84 2.84 0 001.64.73 17.59 17.59 0 002.26-.54 13.57 13.57 0 001.92-1.22 10.35 10.35 0 002-1.07 12.89 12.89 0 001.39-1.75 11.92 11.92 0 001.2-1.86 5.56 5.56 0 00.6-2.11 6.4 6.4 0 00.11-2.23 9 9 0 00-.35-2.34c-.34-.66-1.26-1-1.77-1.62a12.33 12.33 0 00-1.29-1.55 15.13 15.13 0 00-1.53-1.34 13.6 13.6 0 00-1.89-.77 10 10 0 00-1.9-.62 7.72 7.72 0 00-2 0 6.55 6.55 0 00-1.89.34c-.61.2-1.54-.28-2.13 0s-.81 1.16-1.35 1.58a13.23 13.23 0 00-1.28 1.47 16.12 16.12 0 00-1.27 1.44c-.39.52-1.36.67-1.7 1.24s-.22 1.38-.49 2a17.35 17.35 0 00-.39 1.93 15.24 15.24 0 00-.55 1.86 15.77 15.77 0 00-.5 1.91 15 15 0 00-.26 2c0 .65.82 1.19 1 1.84s-.41 1.53-.2 2.19.39 1.37.66 2 .7 1.23 1 1.84 1.19.9 1.56 1.48.77 1.12 1.2 1.65a18.74 18.74 0 001.21 1.67 17 17 0 001.43 1.5 13.65 13.65 0 001.79 1.07 12.29 12.29 0 001.9.83 11.69 11.69 0 002.06.2c.67.1 1.33.67 2 .65a11.72 11.72 0 002.11-.15 11.42 11.42 0 002.12-.62 12.92 12.92 0 001.9-1.09c.59-.38.92-1.13 1.47-1.62s1.37-.64 1.85-1.19a21.73 21.73 0 001.05-1.92c.39-.57.79-1.16 1.15-1.81s.51-1.31.82-2 .62-1.26.87-2 .18-1.41.39-2.11.41-1.29.57-2 .46-1.29.58-2 .67-1.3.75-2-.28-1.42-.24-2.11-.15-1.38-.15-2.06 0-1.37-.09-2 .55-1.47.45-2.14-.73-1.28-.9-1.93a15.31 15.31 0 00-.42-2 11.48 11.48 0 00-1-1.84 8.64 8.64 0 00-1.33-1.6c-.47-.45-1.08-.78-1.62-1.21s-1-.94-1.53-1.32-1.27-.5-1.85-.84-1-.94-1.62-1.24-1.31-.38-1.93-.64-1.23-.55-1.86-.77-1.28-.43-1.93-.6-1.27-.51-1.93-.64-1.39.24-2.06.17-1.31-.37-2-.38-1.39-.42-2.05-.37-1.26.75-1.91.88-1.46-.19-2.09 0a13.76 13.76 0 00-1.66 1.31 19.28 19.28 0 00-1.85 1c-.55.4-.92 1-1.45 1.51s-.92 1-1.4 1.51-1.36.65-1.8 1.2-.59 1.29-1 1.87-.42 1.34-.76 2-.59 1.21-.87 1.86-.73 1.16-1 1.83-.53 1.26-.72 2-.67 1.26-.81 2 0 1.41-.06 2.11-.29 1.36-.33 2.07 0 1.38 0 2.09.46 1.35.5 2.06.14 1.35.22 2-.08 1.39.05 2.07.39 1.32.56 2 .4 1.31.62 2 .17 1.4.43 2 .65 1.22 1 1.85.54 1.27.87 1.88.85 1.1 1.21 1.69.43 1.38.82 1.94 1.24.81 1.66 1.36.68 1.21 1.13 1.74 1 1 1.44 1.47 1.16.78 1.66 1.25.65 1.36 1.18 1.79 1 1 1.55 1.41 1.5.24 2.09.59 1 1 1.65 1.28 1.28.56 1.91.79a16.28 16.28 0 002 .48 15.64 15.64 0 002 .1c.44 0 .84.59 1.3.59a16.67 16.67 0 002-.51 17.29 17.29 0 001.91-.49 17.38 17.38 0 001.92-.48c.61-.23 1.26-.39 1.87-.69a19.9 19.9 0 001.87-.77c.56-.34 1-.87 1.56-1.27s1.19-.64 1.7-1.08.89-1 1.37-1.49.9-1 1.36-1.48 1.12-.8 1.54-1.33.67-1.17 1.06-1.72.78-1.09 1.14-1.66.35-1.33.67-1.92.66-1.14 1-1.75 1.12-1 1.39-1.57-.09-1.47.15-2.11 1.1-1 1.31-1.66.43-1.28.62-1.93.05-1.37.21-2-.18-1.39-.05-2.06.79-1.21.89-1.88.39-1.3.46-2-.56-1.4-.51-2.07 0-1.37 0-2.05.34-1.38.31-2 .36-1.44.29-2.11-.78-1.3-.9-2 .24-1.47.08-2.12-.4-1.35-.6-2-.58-1.28-.83-1.91-1-1.07-1.27-1.68-.2-1.45-.53-2-.6-1.27-1-1.84-.73-1.2-1.14-1.73-1.32-.73-1.76-1.23-.57-1.37-1-1.85-1.34-.62-1.83-1.07-1.08-.88-1.59-1.29-.88-1.16-1.41-1.54-1.16-.85-1.68-1.2-1.06-1.1-1.54-1.41-1.26-.47-1.85-.77-1.1-.8-1.72-1-1.25-.48-1.88-.68-1.35-.11-2-.28-1.37.06-2-.07-1.25-.51-1.88-.62-1.3-.4-1.92-.48c-1-.15-1-1.17 0-1.37.61-.12 1.17-.53 1.76-.61a15.29 15.29 0 011.83-.25c.69 0 1.36.19 2 .25s1.34.26 2 .38 1.48-.31 2.14-.13 1.12 1 1.77 1.27 1.43.09 2.05.37 1.39.33 2 .67 1.08.9 1.66 1.28.94 1 1.49 1.44 1.21.68 1.73 1.14 1 1 1.47 1.44 1 .91 1.49 1.42.69 1.2 1.12 1.74 1.13.87 1.52 1.44.33 1.42.69 2 .78 1.11 1.12 1.72.48 1.27.78 1.89.74 1.15 1 1.79.79 1.15 1 1.8 0 1.43.23 2.09 1.15 1.09 1.33 1.76-.33 1.49-.18 2.17.56 1.28.67 2-.11 1.39 0 2.08.67 1.3.73 2-.29 1.39-.27 2.08 0 1.36 0 2 .36 1.38.34 2.07-.47 1.34-.53 2 .51 1.44.42 2.12-.53 1.32-.65 2-.32 1.34-.47 2-.2 1.37-.37 2-.57 1.27-.78 1.92-.07 1.43-.31 2.08-.45 1.31-.72 1.94-.71 1.2-1 1.81-.53 1.28-.86 1.88-.91 1.07-1.27 1.65-.4 1.39-.79 2-.92 1-1.34 1.59-1.16.83-1.61 1.34-.62 1.31-1.1 1.8-1.41.5-1.92 1-.72 1.3-1.26 1.71-1.42.37-2 .74-1 .94-1.61 1.27-1.24.58-1.86.87-1.13.87-1.78 1.1-1.4.13-2.06.3-1.26.67-1.94.79-1.42-.32-2.1-.26-1.15-.11-1.88-.11zM220.12 72c-.52 0-1.21.23-1.63-.07a3 3 0 01-.8-1.46 15.72 15.72 0 01-1-1.91c-.25-.55-.42-1.26-.79-2s-.19-1.47-.57-2.15-.68-1.24-1.08-1.88-1.25-.88-1.67-1.5-.45-1.42-.89-2-1.2-.87-1.67-1.44-.78-1.21-1.28-1.75-1.22-.8-1.74-1.31a2.9 2.9 0 01-.52-2c0-.64-.08-1.59.4-2.08s1.44-.11 2.08-.11 1.49-.3 2 .19 1 .89 1.45 1.37.3 1.52.72 2 1.49.49 1.89 1 .67 1.18 1.05 1.71.21 1.47.57 2 1 .95 1.32 1.49.54 1.23.86 1.78 1 1 1.28 1.54.49 1.29.75 1.84.53 1.3.75 1.81a11.57 11.57 0 01.6 1.86 2.24 2.24 0 01.12 1.78 2.53 2.53 0 01-1.32 1.4c-.31.09-.61-.11-.88-.11z" class="skeleton-color-alt"/>
  </g>
</svg>
