<svg class="svg-scene" xmlns="http://www.w3.org/2000/svg" viewBox="0 0 588.86 809.87" fill="currentcolor">
  <path class="moon" d="M85.5,127.51c0-.7,0-1.39,0-2.09s.59-1.35.64-2-.38-1.43-.3-2.12,0-1.4.15-2.08.67-1.3.79-2,.13-1.39.27-2.07-.11-1.46.06-2.13.47-1.32.66-2,.52-1.3.73-2,.8-1.2,1-1.85-.39-1.63-.15-2.28.55-1.29.81-1.93.62-1.27.9-1.9.66-1.25,1-1.87,1.14-1,1.45-1.61.54-1.28.87-1.89.47-1.34.8-1.94.92-1.08,1.27-1.67.22-1.52.58-2.1,1-1,1.42-1.58.84-1.12,1.23-1.68.56-1.33,1-1.88,1.33-.77,1.73-1.31l1.28-1.64c.44-.57.2-1.67.62-2.18s1.24-.83,1.68-1.33.79-1.21,1.22-1.69,1-1,1.45-1.51,1.12-1.17.88-1.68a2.36,2.36,0,0,0-1.89-1.07c-.69.05-1.35.43-2,.5s-1.42-.22-2.1-.13-1.24,1-1.91,1.11-1.34.25-2,.4-1.51-.43-2.17-.26-1.09,1.23-1.74,1.42-1.58-.44-2.23-.22-1.18.8-1.82,1-1.39.22-2,.48-1.19.74-1.81,1-1.31.44-1.92.76-1,1-1.62,1.34-1.36.39-1.94.75-.87,1.19-1.44,1.57-1.51.22-2.06.62-.66,1.42-1.2,1.84-1.26.6-1.79,1-1.29.6-1.8,1.06-1.07.88-1.56,1.35-.66,1.29-1.13,1.78-1,.92-1.48,1.43-.89,1-1.33,1.56-1.19.81-1.61,1.35-.24,1.53-.64,2.08-1.56.6-1.94,1.17-.63,1.24-1,1.82,0,1.56-.38,2.16-1.35.82-1.67,1.43-.33,1.37-.62,2-.48,1.28-.74,1.91-.9,1.13-1.14,1.77.13,1.5-.1,2.15-1,1.12-1.17,1.78-.5,1.29-.67,2-.43,1.32-.58,2,.62,1.52.5,2.2-.78,1.25-.88,1.93.23,1.4.16,2.09-.93,1.29-1,2,.16,1.4.13,2.08,0,1.38,0,2.07.61,1.36.63,2-.44,1.39-.39,2.08.42,1.34.5,2-.46,1.45-.36,2.13.17,1.38.29,2.06.94,1.22,1.09,1.89-.08,1.43.09,2.09.38,1.33.58,2,.46,1.3.68,1.95.89,1.14,1.13,1.78-.21,1.57.06,2.2,1.3.93,1.59,1.55-.08,1.57.24,2.18,1.28.87,1.62,1.47.4,1.35.76,1.94,1,1,1.42,1.53.7,1.17,1.1,1.73.9,1,1.32,1.56.78,1.12,1.23,1.65.68,1.21,1.14,1.72.88,1.06,1.36,1.55.86,1.09,1.36,1.57,1.13.81,1.64,1.26,1.06.87,1.59,1.31,1.14.77,1.69,1.19.74,1.31,1.3,1.71,1.56.16,2.13.54.8,1.32,1.38,1.67,1.15.8,1.75,1.13,1.36.39,2,.71,1.33.42,2,.71,1.19.71,1.82,1,1.15.85,1.8,1.09,1.46,0,2.12.22,1.16.91,1.82,1.11,1.47-.15,2.14,0,1.3.45,2,.6,1.43-.24,2.11-.12,1.22,1.11,1.9,1.2,1.45-.5,2.13-.44,1.36.16,2,.21a1.07,1.07,0,0,0,1.18-.75,1.11,1.11,0,0,0-.15-1.4c-.41-.45-1-.81-1.52-1.38s-.47-1.32-.92-1.88-.83-1-1.27-1.58-.81-1-1.23-1.6-1.16-.81-1.56-1.37-.68-1.17-1.08-1.73-.58-1.23-1-1.8-1-.94-1.39-1.52-.43-1.33-.79-1.91-.77-1.11-1.12-1.7-.49-1.27-.82-1.87-.48-1.27-.8-1.88-.81-1.09-1.12-1.7-.46-1.27-.76-1.89-1.25-.9-1.54-1.52-.41-1.3-.68-1.93,0-1.48-.22-2.11-.94-1.08-1.18-1.72-.74-1.18-1-1.82-.07-1.41-.28-2.06-.45-1.27-.64-1.93-.22-1.34-.39-2-.22-1.33-.37-2-.32-1.31-.45-2-.35-1.3-.46-2-.1-1.35-.19-2,0-1.35-.06-2-1-1.28-1-2,.5-1.39.48-2.07S85.49,128.19,85.5,127.51Z" />
  <g class="stars">
    <path d="M16,507.47a3.26,3.26,0,0,0-3.5,3.56c0,2.2,1.31,3.85,3.5,3.85A3.58,3.58,0,0,0,19.66,511,3.36,3.36,0,0,0,16,507.47Z" />
    <path d="M151.67,687.79c3.1.87,3.14.71,6.24,1.58.32.09,1.05.09,1.14.41,1,3.21.3,3.41,1.26,6.62.11.38.55.22.67-.16,1-3.28,1.44-3.15,2.46-6.43.1-.32.32-.29.65-.38,3.19-.86,3.07-1.3,6.26-2.16.28-.07.18.11-.09,0-3.36-1-3.2-1.53-6.56-2.53-.32-.1-1-.17-1.06-.49-.92-3.24-.63-3.32-1.55-6.57-.08-.27-.49-.33-.56-.05-.86,3.17-1.09,3.11-1.95,6.29-.09.32-.08.38-.4.47-3.27,1-3.19,1.26-6.46,2.28C151.35,686.81,151.29,687.68,151.67,687.79Z" />
    <path d="M3.49,270.27C1.3,270.27,0,271.9,0,274.09a3.2,3.2,0,0,0,3.49,3.49c2.19,0,3.78-1.3,3.78-3.49A3.69,3.69,0,0,0,3.49,270.27Z" />
    <path d="M425.75,0a2.82,2.82,0,0,0-2.84,2.81,2.94,2.94,0,0,0,2.84,2.95,3,3,0,0,0,2.93-2.95A2.89,2.89,0,0,0,425.75,0Z" />
    <path d="M338.06,11.92c-2.19-.65-2.43.15-4.62-.5s-2.05-1.13-4.24-1.79a1,1,0,0,1-.71-.79c-.59-2.11-.48-2.15-1.08-4.26s-.58-2.12-1.18-4.24c-.1-.35-1.05-.29-1.15.06-.56,2.07-.86,2-1.41,4.06s0,2.23-.54,4.3c-.11.42-.67.47-1.09.6-2.12.66-2,1.17-4.09,1.83s-2.35,0-4.48.62c-.49.15-.44,1.64,0,1.78,2,.57,2.14.13,4.16.7s2.05.45,4.07,1a1.78,1.78,0,0,1,1.09,1c.63,2.09.34,2.18,1,4.27s.88,2,1.5,4.12c.15.48.44.51.59,0,.66-2.14,1.17-2,1.83-4.12s-.09-2.38.58-4.52a2.25,2.25,0,0,1,1.15-1.2c2.08-.56,2.12-.42,4.2-1s2.28.18,4.36-.39C338.37,13.4,338.41,12,338.06,11.92Z" />
  </g>
  <g class="stars">
    <path d="M49.47,380c-.21-.38.28-.88.49-1.26,1.07-1.92.81-2.06,1.89-4s1.06-1.93,2.13-3.85c.18-.32-.21-.82-.53-.63-1.86,1.06-1.79,1.2-3.65,2.26s-2,.77-3.89,1.84c-.38.22-.78.86-1.17.66-2-1-1.71-1.53-3.68-2.57s-1.91-1.16-3.88-2.2c-.45-.23-1.14.61-.89,1.06,1,1.83,1.27,1.69,2.29,3.52s.39,2.18,1.42,4c.21.38.25.41,0,.79-1,1.93-.59,2.17-1.63,4.09s-1.3,1.78-2.34,3.71c-.24.44.42,1,.87.78,2-1,2-.95,4-2s1.83-1.35,3.81-2.39a2.08,2.08,0,0,1,1.56-.13c1.86,1.08,1.5,1.71,3.37,2.78s2.26.4,4.13,1.47c.31.18.86,0,.69-.3-1.09-2-1.2-2-2.38-3.93S50.55,382,49.47,380Z" />
    <path d="M318,633.18a6.68,6.68,0,0,0,4.71-1.61,6.81,6.81,0,0,0,1.81-4.71,6.55,6.55,0,0,0-2-4.55A6.38,6.38,0,0,0,318,620.6a6.62,6.62,0,0,0-4.71,1.55c-1.15,1.15-1.37,3-1.37,4.71s.15,3.64,1.3,4.79A6.79,6.79,0,0,0,318,633.18Z" />
    <path d="M191.64,292.23c2.19,0,4.37-1.52,4.37-3.71a4.35,4.35,0,0,0-4.37-4,4,4,0,0,0-3.95,4A3.74,3.74,0,0,0,191.64,292.23Z" />
    <path d="M210.61,4.2c-1.76,0-3,1.12-4.19,2.27s-2.25,2.44-2.25,4.19A6.23,6.23,0,0,0,206.26,15c1.15,1.15,2.59,2.37,4.35,2.37s3.08-1.34,4.23-2.49,2.34-2.48,2.34-4.23S216,7.6,214.82,6.45,212.36,4.2,210.61,4.2Z" />
    <path d="M276.28,83.91a4.15,4.15,0,0,0-3.9,4.24c0,2.19,1.71,4.45,3.9,4.45s4-2.26,4-4.45A4.23,4.23,0,0,0,276.28,83.91Z" />
  </g>
  <g class="trees">
    <path d="M588.11,242c-.42.55-.29,1.23-.68,1.78s-1,1-1.35,1.56-1,1-1.35,1.58-.82,1.1-1.18,1.68-.64,1.23-1,1.81-.43,1.35-.78,1.93-1.29.82-1.65,1.4-.76,1.14-1.13,1.71-.07,1.59-.45,2.15-1.18.87-1.57,1.42-.47,1.37-.89,1.9-1.39.63-1.83,1.15-.72,1.18-1.19,1.67-.89,1-1.41,1.49-1,.93-1.55,1.34-1.12.77-1.71,1.12-1.13.78-1.76,1.08-1.37.23-2,.47a18.67,18.67,0,0,1-1.89.77c-.64.18-1.28.46-2,.59s-1.3.5-2,.58-1.4-.56-2.11-.52-1.32.09-2,.09-1.39.46-2,.4-1.44.12-2.08,0a19.26,19.26,0,0,1-2-.58c-.67-.2-1.07-1.05-1.68-1.32a16,16,0,0,1-1.92-.66,13.74,13.74,0,0,1-1.49-1.36,15.35,15.35,0,0,1-1.64-1.2,15.16,15.16,0,0,1-1.37-1.52c-.39-.55-.32-1.37-.65-2s-.88-1.05-1.15-1.68-.53-1.23-.75-1.88-.31-1.31-.48-2-.09-1.35-.22-2-.16-1.32-.25-2-.93-1.25-1-1.93,0-1.37-.08-2,0-1.36,0-2,.07-1.36.08-2-.25-1.38-.22-2.05.05-1.38.1-2,1-1.29,1-2,0-1.36.12-2,.14-1.36.23-2a12.4,12.4,0,0,0-.24-2.11,6.35,6.35,0,0,1-.63-1.72c-.11-.56-.16-1.19-.31-1.77s.23-1.55,0-1.94-1-.89-1.69-1.75a20.41,20.41,0,0,0-1.72-1.61,4.57,4.57,0,0,0-1.74-1.27,15.66,15.66,0,0,0-1.61-.95c-.53-.18-1.23-.06-1.83-.25s-1.14-.51-1.7-.65a6.67,6.67,0,0,0-1.74-.12,6.19,6.19,0,0,0-2,.45c-.66.24-1.65-.19-2.28.09-.9.4-1.73.76-2,.93s-.64,1.11-1.35,1.74c-.5.45-1.31.68-1.79,1.15a17.68,17.68,0,0,0-1.51,1.55c-.23.32.17,1.36,0,2.17-.17.62-.4,1.27-.53,1.89-.18.9-.59,1.62-.6,1.9,0,.44.21,1.49.27,2.53.07,1.28.49,1.24.54,2.5,0,1-.48,1-.45,2.05s.33,1,.36,2,0,1,0,2-.2,1-.18,2-.15,1-.13,2-.3,1-.27,2,.57,1,.6,2,0,1,0,2,0,1,0,2-.45,1-.42,2,.61,1,.64,2-.31,1-.28,2,.35,1,.38,2,.36,1,.38,2-.69,1-.66,2.06-.18,1-.15,2c0,.7.88,1.35.92,2s-.6,1.45-.52,2.14.68,1.31.78,2,.41,1.32.54,2-.12,1.44,0,2.11.41,1.33.59,2,.32,1.35.54,2,.64,1.24.88,1.89.33,1.36.59,2,.63,1.24.93,1.87.13,1.49.45,2.1,1.34.85,1.69,1.45.62,1.23,1,1.82.88,1.05,1.27,1.63.68,1.2,1.1,1.75.45,1.4.89,1.94,1.28.72,1.74,1.24.63,1.29,1.11,1.79,1.11.85,1.61,1.33.84,1.14,1.36,1.6.8,1.21,1.34,1.64,1.26.67,1.82,1.08,1.19.72,1.77,1.12.9,1.1,1.47,1.49,1.2.68,1.76,1.08,1.07.85,1.64,1.26,1.15.74,1.7,1.15,1.53.26,2.08.67.82,1.2,1.36,1.61,1.32.56,1.86,1,.89,1.09,1.43,1.52,1.35.53,1.88,1,.81,1.19,1.33,1.63,1.27.64,1.79,1.09,1.12.83,1.63,1.28.93,1,1.43,1.51.94,1,1.43,1.5,1.19.78,1.67,1.26.43,1.51.9,2,1.55.47,2,1,.36,1.54.79,2.06,1.24.79,1.64,1.32.47,1.39.84,1.94,1.18.91,1.51,1.48a20.53,20.53,0,0,1,.74,2,17.11,17.11,0,0,1,.49,2c.24.67,1,1.17,1.11,1.82a10.35,10.35,0,0,1,0,2.08c0,.69.07,1.39,0,2.08s0,1.39-.06,2.08-.31,1.36-.41,2-.09,1.39-.22,2.07-.46,1.32-.61,2-.76,1.23-.94,1.9-.11,1.39-.3,2.06.19,1.49,0,2.15-1.06,1.12-1.27,1.78,0,1.44-.2,2.11-.14,1.4-.35,2.06-1.18,1.07-1.39,1.73-.29,1.35-.5,2-.3,1.35-.51,2-.44,1.3-.64,2-.62,1.26-.82,1.93.18,1.48,0,2.15-.68,1.24-.85,1.92-.36,1.33-.52,2-.3,1.35-.45,2-.56,1.29-.69,2,.19,1.44.08,2.12.14,1.42,0,2.11-.89,1.27-1,2,.5,1.44.44,2.13-.74,1.33-.78,2,.31,1.4.29,2.1-.6,1.36-.61,2.06.1,1.39.11,2.09.38,1.37.41,2.07.4,1.35.45,2-.1,1.39,0,2.09-.22,1.41-.14,2.1.41,1.36.53,2,.74,1.26.89,1.91-.53,1.6-.33,2.24.71,1.25,1,1.87.4,1.38.7,2,1.3.86,1.66,1.43.28,1.48.69,2,1.25.74,1.72,1.24,1,.85,1.55,1.3.55,1.53,1.11,1.93,1.56.13,2.15.48,1.2.6,1.82.92.87,1.34,1.5,1.62,1.57-.19,2.21.07,1,1.21,1.64,1.45,1.43.13,2.07.36,1.33.4,2,.64,1.06,1.07,1.7,1.32,1.56-.17,2.19.1,1.33.46,1.94.76,1.17,1.07,1.76,1.41a4.37,4.37,0,0,0,.18-2.1c0-1-.08-1-.08-2.05s-.25-1-.25-2.06-.34-1-.34-2.05.38-1,.38-2-.24-1-.24-2.06S588,428,588,427s.83-1,.83-2.06-.55-1-.55-2.05.14-1,.14-2.06,0-1,0-2.05-.14-1-.14-2,0-1,0-2.06.4-1,.4-2.05-.25-1-.25-2.05-.36-1-.36-2.05.1-1,.1-2.05.52-1,.52-2-.14-1-.14-2.05,0-1,0-2.05,0-1,0-2.05.1-1,.1-2.05-.73-1-.73-2v-2.05c0-1,.68-1,.68-2.06s-.21-1-.21-2.05-.07-1-.07-2.06-.28-1-.28-2.05.08-1,.08-2.06v-2.05c0-1,.43-1,.43-2s.21-1,.21-2.06-.56-1-.56-2.05.52-1,.52-2.05-.63-1-.63-2.05.25-1,.25-2.06-.18-1-.18-2-.27-1-.27-2.05.43-1,.43-2.06,0-1,0-2.06,0-1,0-2.05-.28-1-.28-2.06.67-1,.67-2.05,0-1,0-2.06.16-1,.16-2-.56-1-.56-2.05-.36-1-.36-2.06.78-1,.78-2.05-.29-1-.29-2.06,0-1,0-2.06v-2.05c0-1,.23-1,.23-2.06s-.37-1-.37-2.05.1-1,.1-2.06.21-1,.21-2.05.14-1,.14-2.06,0-1,0-2.06-.88-1-.88-2.05,0-1,0-2.06.22-1,.22-2.06.37-1,.37-2.05-.6-1-.6-2.06.16-1,.16-2.06-.12-1-.12-2,.13-1,.13-2.06.33-1,.33-2.06.22-1,.22-2.05.13-1,.13-2.06-.42-1-.42-2.06.18-1,.18-2.06-.09-1-.09-2.05.3-1,.3-2.06-.76-1-.76-2.06.79-1,.79-2.05-.25-1-.25-2.06.26-1,.26-2.06-.57-1-.57-2.05.29-1,.29-2.05-.6-1-.6-2.06.62-1,.62-2.06.09-1,.09-2.06-.14-1-.14-2.06-.27-1-.27-2.06-.23-1-.23-2.05.6-1,.6-2.06,0-1,0-2.06-.34-1-.34-2.06,0-1,0-2.06.48-1,.48-2.06-.33-1-.33-2.06.1-1,.1-2.06,0-1,0-2.06.12-1,.12-2.06-.23-1-.23-2.07-.12-1-.12-2.06.18-1,.19-2.06A5.1,5.1,0,0,0,588.11,242Z" />
    <path d="M527,683.84a13.68,13.68,0,0,1-2,0c-.68-.13-1.46.12-2.1-.11s-1-1-1.63-1.36a14,14,0,0,1-1.72-1.06c-.53-.41-1.3-.57-1.79-1.07s-.52-1.34-1-1.88-1.36-.66-1.77-1.23-.5-1.3-.87-1.9-.77-1.12-1.1-1.73-.74-1.15-1.05-1.78-.22-1.39-.5-2-.4-1.3-.66-1.94-.8-1.14-1.05-1.8-.9-1.12-1.13-1.78.39-1.57.17-2.23-1-1.11-1.19-1.77-.12-1.39-.31-2.05-.43-1.3-.61-2,0-1.41-.2-2.08-1.11-1.11-1.29-1.78-.48-1.29-.65-2,0-1.41-.18-2.08.12-1.44,0-2.11-.22-1.35-.38-2-.94-1.18-1.09-1.85-.49-1.3-.65-2,.08-1.42-.07-2.08.15-1.44,0-2.11-.69-1.24-.85-1.91.06-1.42-.09-2.09-1.12-1.14-1.27-1.81-.41-1.31-.57-2-.26-1.35-.42-2,.21-1.45.05-2.12-.36-1.32-.53-2-.4-1.31-.57-2-.66-1.25-.83-1.91-.16-1.38-.33-2,0-1.43-.15-2.09-.58-1.27-.76-1.93-.35-1.33-.54-2,0-1.43-.17-2.09-1.09-1.11-1.29-1.77-.39-1.31-.6-2,.1-1.47-.11-2.12-.67-1.23-.89-1.88-.08-1.43-.31-2.08-1.2-1-1.44-1.66-.14-1.42-.39-2.05-.86-1.13-1.12-1.77-.37-1.32-.64-1.95-.63-1.22-.91-1.84-.13-1.45-.43-2.07-1.12-1-1.43-1.58-.23-1.42-.56-2-.86-1.09-1.2-1.68-.84-1.1-1.19-1.69-.48-1.31-.84-1.89-.32-1.43-.68-2-1.35-.77-1.72-1.35-.82-1.1-1.2-1.67-.51-1.31-.9-1.88-.47-1.34-.87-1.9-.77-1.14-1.17-1.7-1.2-.83-1.6-1.39-.69-1.19-1.1-1.75-1-1-1.4-1.52-.42-1.41-.84-2-.57-1.3-1-1.84-1.54-.55-2-1.09-.41-1.43-.84-2-.79-1.14-1.23-1.67-.89-1-1.33-1.58-1-.93-1.47-1.46-1.07-.9-1.52-1.42-.5-1.39-.95-1.9-1-1-1.44-1.49-1.16-.81-1.62-1.32-1.11-.85-1.57-1.35-.36-1.54-.83-2.05-1.57-.42-2-.92-.78-1.15-1.25-1.65-.89-1.05-1.37-1.54l-1.43-1.48c-.49-.5-.78-1.17-1.26-1.66s-1.24-.71-1.73-1.19-1.11-.83-1.6-1.31-.38-1.59-.87-2.06-1.5-.44-2-.92-1.06-.89-1.56-1.36-.6-1.38-1.1-1.85-.88-1.08-1.39-1.54-1.66-.23-2.16-.69l-1.53-1.39c-.52-.46-.65-1.34-1.16-1.79s-.83-1.15-1.34-1.6-1.13-.81-1.65-1.25-1.31-.59-1.83-1-.85-1.13-1.37-1.57-1-1-1.52-1.4-1.17-.76-1.7-1.19l-1.59-1.31c-.55-.44-1.22-.69-1.75-1.11s-1.27-.63-1.8-1.05-.66-1.4-1.2-1.81-1.52-.29-2.06-.7-.73-1.34-1.27-1.74-1.49-.32-2-.71-.76-1.31-1.31-1.69-1.44-.36-2-.74-.71-1.38-1.25-1.8-1.55-.33-2.06-.79-.55-1.43-1-1.93-.85-1.07-1.29-1.6-1.48-.61-1.88-1.18-.4-1.4-.75-2-1-1.05-1.29-1.67,0-1.5-.31-2.14-1.23-1-1.46-1.65-.1-1.43-.3-2.1-.46-1.31-.61-2-.19-1.37-.31-2.06.06-1.4,0-2.09-.72-1.31-.78-2,.1-1.39.08-2.09-.34-1.39-.33-2.08.42-1.38.45-2.08-.36-1.41-.3-2.1.6-1.34.68-2,.39-1.34.49-2-.3-1.45-.18-2.13.43-1.33.57-2,.26-1.36.41-2-.09-1.45.08-2.12.85-1.22,1-1.89.5-1.29.7-2,.11-1.42.32-2.08.72-1.22.94-1.87.64-1.24.88-1.89-.11-1.53.14-2.18.64-1.24.9-1.88.9-1.13,1.18-1.76.3-1.39.59-2,.59-1.26.89-1.88.28-1.42.59-2,1.2-.95,1.52-1.56.06-1.56.4-2.16,1-1,1.34-1.63.64-1.25,1-1.79a18.28,18.28,0,0,1,1.46-1.46,16.08,16.08,0,0,1,1.47-1.4,14.69,14.69,0,0,1,1.8-.94c.57-.38.9-1.12,1.5-1.41a14.74,14.74,0,0,1,2-.51,16.37,16.37,0,0,1,1.87-.83c.66-.14,1.38.11,2.06,0s1.33,0,2-.07,1.32-.33,2-.33,1.35.1,2,.12,1.37-.31,2.06-.27,1.33.43,2,.47,1.38-.37,2.07-.33,1.35-.07,2,0,1.33.5,2,.52,1.36.2,2,.2,1.36-.3,2-.33,1.34-.16,2-.22,1.34-.12,2-.21,1.35-.13,2-.26,1.39,0,2.06-.16,1.13-.93,1.79-1.14,1.39-.07,2-.32,1.06-.92,1.68-1.21,1.6.19,2.21-.14,1.08-.86,1.67-1.22.8-1.22,1.36-1.62,1.26-.54,1.81-1,1.29-.56,1.81-1,.83-1.09,1.33-1.57.89-1,1.36-1.52,1.38-.58,1.83-1.1.42-1.42.86-2,1-.93,1.42-1.48.87-1,1.28-1.61.44-1.33.83-1.91.74-1.14,1.09-1.72,1.21-.87,1.55-1.45.22-1.45.53-2,.8-1.13,1.09-1.74,1.06-1,1.33-1.65,0-1.47.27-2.1,1-1.1,1.21-1.74-.46-1.59-.26-2.23.51-1.27.68-1.92.9-1.19,1-1.85-.11-1.42,0-2.09.72-1.27.81-1.94-.44-1.43-.37-2.1.82-1.31.86-2-.8-1.4-.79-2.08.63-1.36.62-2-.14-1.37-.17-2.05-.27-1.35-.33-2,.37-1.41.29-2.09-.6-1.3-.7-2,.17-1.42,0-2.09-.67-1.26-.81-1.92-.24-1.35-.4-2-.71-1.22-.89-1.88-.38-1.3-.57-1.94,0-1.45-.17-2.09-1-1.09-1.24-1.73-.27-1.34-.52-2-.4-1.31-.66-1.93-.31-1.36-.59-2-.71-1.19-1-1.79c-.34-1.2,0-1.26-.3-2.48a11.27,11.27,0,0,0-.75-2.37,14.62,14.62,0,0,0-.89-2.18c-.39-.64-1.34-1-1.76-1.64s-.67-1.76-1.07-2.14a11.41,11.41,0,0,1-1.62-1.45c-.45-.55-.95-1.14-1.43-1.66-.65-.72-1.15-1.64-1.53-1.76s-1.12-.24-2-.55c-.65-.22-1.44-.2-2.11-.39-.83-.24-1.59-.89-2.05-.89s-1.21.52-2.11.69c-.67.12-1.32.62-2,.78-.85.2-1.84-.26-2.26-.07s-.76,1.27-1.44,1.81-1.41.61-1.92,1.07A8,8,0,0,0,448,329.5a5.73,5.73,0,0,0-.66,1.83c-.18.64-1,1.2-1.12,1.85a11.65,11.65,0,0,0-.18,2.09,12.56,12.56,0,0,1,.34,2.4,7.63,7.63,0,0,1-.7,2.39c0,.66.55,1.32.51,2s-.72,1.29-.76,2,.8,1.39.75,2.07-.37,1.31-.43,2-.26,1.32-.32,2-.46,1.3-.53,2,.15,1.36.08,2,.22,1.38.14,2-.56,1.29-.65,1.95-.34,1.31-.44,2-.25,1.32-.36,2-.22,1.32-.35,2-.27,1.31-.42,1.95-.14,1.39-.29,2,0,1.44-.13,2.06-.3,1.37-.47,2-1.14,1.13-1.32,1.74.15,1.52-.06,2.11-1,1.11-1.27,1.68.15,1.66-.15,2.18a9.21,9.21,0,0,1-1.23,1.72,4.92,4.92,0,0,1-1.92.89,6.33,6.33,0,0,1-2,.5q-.93.06-2,0a6.71,6.71,0,0,1-2.13-.13c-.58-.19-.89-1.27-1.58-1.58s-1.47.05-2.12-.27-1.11-.77-1.75-1.09-1.29-.43-1.92-.75-1.27-.45-1.9-.76-1-1-1.64-1.3-1.07-.92-1.7-1.2-1.59.25-2.23,0-1.25-.5-1.89-.74-.95-1.38-1.6-1.61-1.56.39-2.22.19-1.3-.37-2-.54-1.26-.59-1.93-.72-1.37,0-2.05-.06-1.32-.37-2-.42-1.35-.51-2-.51-1.36.45-2,.49-1.37-.3-2-.22-1.33.15-2,.27-1.37,0-2,.17-1.25.65-1.87.83-1.28.44-1.9.66-1.32.32-1.93.56-1.07.89-1.67,1.17-1.21.54-1.81.84-1,.82-1.65,1.13-1.18.14-1.67.46a6.76,6.76,0,0,1-1.78.71,6,6,0,0,1-1.88.16,5.9,5.9,0,0,1-1.78-.45c-.62-.18-1.36,0-1.91-.33s-.65-1.1-1.07-1.61-.94-.81-1.19-1.44c-.39-.94-.21-1-.59-2s-.61-.86-1-1.81-.71-.82-1.09-1.76-.59-.87-1-1.82.41-1.27,0-2.22-.84-.76-1.23-1.71-.09-1.07-.48-2l-.78-1.9c-.38-.95-.44-.93-.82-1.88s-.75-.8-1.14-1.75-.51-.89-.9-1.84-.45-.92-.84-1.87.05-1.13-.34-2.08-.12-1.06-.51-2-.56-.88-.95-1.83-.54-.9-.92-1.85c-.26-.61-.22-1.34-.45-2s-.32-1.29-.54-1.91-1.16-1-1.37-1.63-.5-1.13-.7-1.76c-.16,0,.05,0-.13,0-1.06,0-1.06-.21-2.12-.21s-1.05.26-2.11.26-1.06-.7-2.12-.7-1.06.57-2.12.57c0,0,0,.31-.06.31-.84,0-.84-.6-1.68-.6a1.67,1.67,0,0,1-1.78-1.54A1.35,1.35,0,0,1,342,334c.37-.44.58-.78,1.2-.78,1.22,0,1.22,0,2.44,0a6.52,6.52,0,0,0,2.13-.23c.65-.24,1-1,1.55-1.45a5.2,5.2,0,0,0,1-1.65,4.65,4.65,0,0,0,.87-1.77,5.75,5.75,0,0,0,0-2.3,5.81,5.81,0,0,0-3.05-3.42,6.06,6.06,0,0,0-2.3-.63c-.7,0-.7.24-1.39.24-.12,0-.24.54-.36.54-1.34,0-1.34.13-2.68.13-.06,0-.12-.29-.18-.29-.91,0-.91-.12-1.83-.12s-.92.14-1.84.14-.92-.43-1.84-.43-.92.38-1.84.38a2.71,2.71,0,0,1-2.5-1.83,2.59,2.59,0,0,1,.74-1.81c.37-.43,1-.2,1.66-.2,1,0,1,0,2,0s1-.46,2-.46,1,.18,2,.18,1,.25,2,.25,1-.82,2-.82c.16,0,.15.1.31.09a5.46,5.46,0,0,0,2-.09,5.6,5.6,0,0,0,1.75-1.15,5.49,5.49,0,0,0,.87-1.86c.26-.63,1.12-1.22,1.12-1.94a6.21,6.21,0,0,0-.56-2.15c-.26-.65-1.11-1-1.59-1.46a5.22,5.22,0,0,0-1.62-1.16c-.61-.27-1.22-1-1.93-1.07-1.25,0-1.26.82-2.52.82,0,0-.07-.44-.11-.44-1.09,0-1.09.49-2.17.49s-1.08,0-2.16,0-1.08-.71-2.16-.71-1.09-.13-2.17-.13-1.09.64-2.17.64a2.21,2.21,0,0,1-1.92-2,2.13,2.13,0,0,1,.14-1.72,2.19,2.19,0,0,1,1.67-.57c.95,0,.95.28,1.89.28s.94-.21,1.89-.21.94.37,1.88.37.95-.67,1.89-.67,1,.54,1.89.54.95-.58,1.9-.58c0,0,.07.49.11.49.94,0,.94-.43,1.88-.43.09,0,.16,0,.24,0s.14-.05.28-.05a4.85,4.85,0,0,0,1.87-.61c.65-.28,1.43-.25,1.92-.75s.46-1.27.73-1.92,1.31-1.16,1.31-1.89a6.23,6.23,0,0,0-.53-2.23,6.14,6.14,0,0,0-1.3-1.85c-.5-.5-1.46-.38-2.12-.65s-1.22-.9-1.95-.9c-1,0-1-.19-2-.19s-1,.73-2,.73-1-.13-2-.13-1-.65-2-.65-1,.29-2,.29-1-.14-2-.14-1,.45-2,.45-1,.34-2,.34-1-.45-2-.45a2.13,2.13,0,0,1-2.09-1.73c-.1-.63.4-.94.76-1.37s.6-1.15,1.22-1.15c1,0,1,.09,2,.09s1,0,2,0,1-.31,2-.31,1,0,2,0,1,.13,2,.13,1-.23,2-.23,1,.87,2,.87,1-.2,2-.2c0,0,0-.15,0-.15.6,0,.6-.36,1.2-.36,0,0,.06.27.1.27,1.22,0,1.22.43,2.44.43a6.82,6.82,0,0,0,2.15-.45c.64-.24.86-1.26,1.38-1.69a4.76,4.76,0,0,0,1.22-1.46,4.35,4.35,0,0,0,.66-1.8,4.13,4.13,0,0,0-1.4-3.93,4.86,4.86,0,0,0-1.66-1.33,5,5,0,0,0-2.11-.49c-.94,0-.94-.56-1.88-.56,0,0-.05-.09-.08-.09-1.11,0-1.11.56-2.23.56a2.43,2.43,0,0,1-2.32-1.78,2.26,2.26,0,0,1,.68-1.67c.37-.44.91-.27,1.53-.27.79,0,.79-.61,1.57-.61s.79.29,1.57.29c1.22,0,1.22.31,2.44.31.7,0,1.27-.87,1.9-1.1a5.79,5.79,0,0,0,1.87-.73,5.44,5.44,0,0,0,1.33-1.54,5.35,5.35,0,0,0,.7-2,5.51,5.51,0,0,0-.37-2.26,7,7,0,0,0-3-3.19,5.19,5.19,0,0,0-2.17-.35c-.94,0-.94-.69-1.88-.69,0,0,0,.41,0,.41-1,0-1-.14-2.06-.14s-1,.24-2.07.24-1-.32-2.06-.32-1,.21-2.07.21-1,.53-2.06.53-1,0-2.07,0-1-.94-2.07-.94-2-.22-2.13-1.22c-.1-.62-.21-1.49.16-1.92s1.25-.46,1.87-.46c1.07,0,1.07.31,2.14.31s1.07.14,2.14.14,1.07-.87,2.14-.87,1.07,0,2.14,0,1.07.87,2.14.87,1.07-.3,2.14-.3,1.07.18,2.14.18,1.07-.47,2.14-.47,1.08-.07,2.15-.07,1.07.63,2.14.63a6.65,6.65,0,0,0,2.23-.1,17.88,17.88,0,0,1,1.34-1.87c.4-.54.22-1.62.7-2.14s1.48-.46,2-.93,1-.93,1.56-1.37.85-1.16,1.43-1.56,1.37-.43,2-.81,1-1,1.62-1.34,1.29-.53,1.9-.87,1.21-.67,1.83-1,1.29-.52,1.91-.84,1.33-.42,1.95-.74,1.16-.79,1.78-1.1.93-1.26,1.55-1.57,1.39-.33,2-.64,1.17-.78,1.79-1.1,1.56,0,2.17-.33,1.21-.72,1.81-1.05.86-1.34,1.46-1.67,1.43-.32,2-.67,1-1.11,1.52-1.48,1.25-.63,1.8-1,1.18-.76,1.69-1.2a20.49,20.49,0,0,0,1.69-1.24,11.68,11.68,0,0,0,.92-1.77,14.74,14.74,0,0,0,1.18-1.6c.25-.57.29-1.26.51-1.92s.66-1.15.83-1.81-.3-1.39-.16-2.06,1.2-1.09,1.32-1.76-.39-1.38-.3-2,.64-1.24.71-1.91-.21-1.36-.15-2c-1.2-.33-1.25.1-2.49.1s-1.24-.5-2.49-.5c0,0-.07.06-.11.06-1.35,0-1.35.23-2.69.23,0,0,0-.13-.06-.13-.92,0-.92.55-1.85.55s-.93.07-1.86.07-.94.12-1.87.12-.93-.5-1.86-.5a1.78,1.78,0,0,1-1.76-1.71,1.4,1.4,0,0,1,.37-1.36c.37-.44.66-1.33,1.28-1.33,1,0,1,.14,2.07.14s1,.46,2.07.46,1-.58,2.07-.58,1,.83,2.07.83,1-.54,2.08-.54a4.94,4.94,0,0,0,2.07-.66,4.84,4.84,0,0,0,1.67-1.3,5.09,5.09,0,0,0,1.26-1.76,4.73,4.73,0,0,0,0-4.24,6,6,0,0,0-1.42-1.55,6,6,0,0,0-1.92-.71c-.63-.23-1.23-1-1.92-1s-.82,0-1.64,0c0,0-.07.78-.1.78-1,0-1-.49-2-.49s-1,.43-2,.43-1-.7-2-.7-1,.26-2,.26-1,.12-2,.12-1,.07-2,.07h-2c-1,0-1,.11-2,.11s-1-.36-2-.36a1.81,1.81,0,0,1-2-1.45,2,2,0,0,1,.33-1.65,2.37,2.37,0,0,1,1.57-1c1.06,0,1.06.7,2.13.7s1.07,0,2.14,0,1.07-.49,2.13-.49,1.07-.27,2.14-.27,1.07.1,2.14.1,1.07.66,2.14.66,1.08-.33,2.15-.33,1.07.24,2.14.23c.05,0,.09-.3.14-.3,1.22,0,1.22-.12,2.44-.12.7,0,1.51.35,2.14.12a6.29,6.29,0,0,0,1.68-1.32A5.55,5.55,0,0,0,399,193.4a5.29,5.29,0,0,0,.69-2,6,6,0,0,0,0-2.36,6.2,6.2,0,0,0-1.14-2.12c-.51-.56-1.58-.42-2.28-.74a4.93,4.93,0,0,0-2.06-.51c-1,0-1,0-2,0s-1-.08-2-.08-1,.29-2,.29l-2,0c-1,0-1-.86-2-.86s-1.65-.34-1.81-1.33a1.56,1.56,0,0,1,.36-1.43c.37-.44.73-.93,1.34-.93,1,0,1-.38,2-.38s1,.07,2,.07,1,.64,2,.64,1-.42,2-.42a2.51,2.51,0,0,0,0-.27l1.88,0s.06.38.08.38c1.26,0,1.26-.33,2.52-.33s1.24.52,2.45.16c0-.73-.43-1.22-.49-1.94s-.08-1.46-.14-2.18.65-1.54.59-2.26-.08-1.46-.14-2.18-.62-1.42-.69-2.14c0-1,.43-.88.48-2,0-.65.11-1.38.13-2.06s-.69-1.55-.69-2.06a7,7,0,0,0-.24-1.74c-.15-.55-.06-1.23-.27-1.83s-.62-1.11-.84-1.63a4.8,4.8,0,0,0-1.15-1.34c-.28-.36-.44-1.15-1.13-1.68-.49-.37-1.24-.51-1.84-.91s-1.11-.77-1.69-1.12-1.12-.9-1.67-1.18a5.59,5.59,0,0,0-1.8-.64,18.25,18.25,0,0,0-1.88-.52c-.64,0-1.32.48-1.93.47s-1.4,0-1.89,0a13.49,13.49,0,0,0-2.24.3c-.73.15-1.64-.11-2.34.09a6.52,6.52,0,0,0-1.94,1.31,11,11,0,0,0-2,1.05c-.58.45-1,1.22-1.55,1.7a10.56,10.56,0,0,0-1.4,1.75c-.3.33-1.34.65-1.81,1.54-.35.66-.9,1.34-1.2,2-.35.86.18,1.88.13,2.43s-.88,1.11-1.05,1.9.21,1.47.06,2.1c-.26,1.1-.07,1-.3,2-.14.65-.67,1.23-.82,1.9s-.2,1.34-.34,2-.35,1.31-.49,2-.06,1.37-.2,2-.45,1.29-.58,2-.18,1.35-.32,2-.78,1.23-.91,1.9.51,1.48.38,2.15-.34,1.32-.47,2-.08,1.37-.21,2-.38,1.32-.51,2-.72,1.25-.84,1.92.27,1.44.15,2.11-.63,1.27-.74,1.94,0,1.38-.15,2-.48,1.3-.59,2-.59,1.29-.7,2,.06,1.4,0,2.06-.07,1.38-.16,2-.58,1.31-.66,2,0,1.39-.11,2.05-.23,1.37-.29,2a15,15,0,0,1-.26,2c-.16.7.29,1.57,0,2.17s-1,1-1.4,1.59a11.5,11.5,0,0,1-1.07,1.81,12,12,0,0,1-1.82,1c-.56.37-1,1.09-1.59,1.39s-1.4.18-2.06.42-1.2.75-1.87.93-1.3.46-2,.61-1.37.14-2.05.27-1.36.13-2,.25-1.31.5-2,.61-1.47-.52-2.15-.4-1.2,1-1.88,1.15-1.48-.47-2.15-.33-1.24.74-1.91.91-1.45-.1-2.1.1-1.17.86-1.81,1.09-1.38.23-2,.5-1.41.31-2,.64-.89,1.19-1.45,1.58a16.27,16.27,0,0,0-1.72,1.11c-.53.46-1,1-1.44,1.49s-.85,1.08-1.29,1.61-1,1-1.38,1.54-.66,1.21-1,1.79-.86,1.1-1.19,1.7-1,1-1.33,1.67-.35,1.37-.6,2,.05,1.49-.18,2.14-1.11,1.09-1.31,1.75,0,1.45-.17,2.11-.08,1.41-.24,2.07-1.11,1.16-1.27,1.83-.18,1.38-.33,2.05-.18,1.38-.33,2.05-.34,1.35-.49,2-.54,1.3-.7,2,.23,1.49.05,2.15-.68,1.25-.88,1.9-.44,1.32-.67,2-.47,1.29-.74,1.91-.84,1.11-1.17,1.7-.3,1.42-.7,2a16.46,16.46,0,0,1-1.08,1.84c-.49.48-1.47.39-2,.79s-.82,1.3-1.46,1.6-1.46-.06-2.15.14a14,14,0,0,1-1.93.81c-.68.1-1.39-.39-2.06-.36a19.33,19.33,0,0,1-2,.08,18.68,18.68,0,0,1-4.14,0c-.65-.18-1.26-.59-1.9-.83s-1.11-.84-1.73-1.13-1.31-.4-1.9-.74-1.44-.29-2-.67-.59-1.51-1.14-1.93-1.22-.61-1.75-1-.9-1-1.4-1.48-1.5-.41-2-.9-.52-1.38-1-1.89-1.27-.7-1.71-1.23-1-1-1.39-1.52-.16-1.58-.56-2.13-1.43-.66-1.82-1.22-.83-1.09-1.21-1.67-.05-1.57-.41-2.16-1.4-.74-1.75-1.33,0-1.56-.36-2.16-1-1-1.32-1.6-.71-1.17-1-1.78-.05-1.5-.35-2.11-1.26-.91-1.55-1.53-.69-1.19-1-1.81,0-1.49-.28-2.12-.37-1.32-.63-2-.58-1.23-.83-1.87-.72-1.18-1-1.82-.79-1.17-1-1.81-.09-1.42-.31-2.06-.66-1.23-.87-1.87-.61-1.25-.8-1.9.39-1.55.21-2.2-.9-1.17-1.08-1.82-.21-1.37-.37-2-.3-1.34-.45-2-.44-1.31-.57-2-.32-1.36-.43-2c-.13-1,.32-.92.21-2-.06-.63-.38-1.32-.45-2s-.52-1.43-.58-2c0-.35-.05-1.23-.21-2.24-.11-.72.26-1.61.11-2.32a4.89,4.89,0,0,0-.91-2.14c-.16-.14-.85-.78-1.77-1.47-.58-.43-1.24-.93-1.89-1.33a9.1,9.1,0,0,0-2.1-1.1c-.45-.11-1.24.49-2,.38-.59-.08-1.22-.15-1.87-.22s-1.23-.79-1.83-.82a15,15,0,0,0-1.91.19,9.44,9.44,0,0,0-2.13.58c-.7.24-1.31.79-1.95,1.07-1,.42-1.73.72-2,.88A7.64,7.64,0,0,0,226,207c-.41.54-1.2.9-1.6,1.46A15.41,15.41,0,0,1,223,210c-.22.26.11,1.28,0,2.18-.06.63-.61,1.32-.62,2a5.45,5.45,0,0,0,.62,2,14.52,14.52,0,0,0,0,2.42c.17,1.23.38,1.19.54,2.4.05.66.37,1.32.42,2s-.32,1.37-.26,2,.17,1.32.24,2,.11,1.34.18,2,.43,1.29.51,2-.5,1.41-.4,2.09.16,1.33.26,2,0,1.35.16,2,.77,1.23.88,1.9.59,1.25.72,1.92-.51,1.47-.37,2.13.56,1.26.71,1.92.31,1.31.46,2,.31,1.3.48,2,.1,1.36.27,2,.71,1.2.89,1.86.28,1.32.47,2,.18,1.35.38,2,.27,1.33.48,2,.37,1.3.59,1.95,1.26,1,1.49,1.62.43,1.27.66,1.91.26,1.33.5,2,.14,1.38.39,2,1,1,1.31,1.66.36,1.3.63,1.93.64,1.18.93,1.8.48,1.26.79,1.86.36,1.35.71,1.94.51,1.29.88,1.86.64,1.22,1,1.78,1.14.87,1.55,1.41.68,1.2,1.1,1.73.93,1,1.37,1.52.67,1.22,1.13,1.73,1.47.48,1.94,1,.38,1.53.87,2,1.15.78,1.64,1.25.82,1.12,1.32,1.58,1.39.49,1.9.94.84,1.1,1.37,1.54,1.41.41,1.94.84.67,1.34,1.2,1.76,1,.91,1.56,1.32,1.16.72,1.71,1.13,1.25.59,1.8,1,1.23.61,1.78,1,.76,1.28,1.31,1.68,1.13.75,1.69,1.14,1.31.51,1.87.9,1.1.8,1.66,1.18.85,1.17,1.41,1.55,1.31.5,1.87.89,1.07.84,1.64,1.22l1.69,1.15c.56.39,1.05.87,1.61,1.25s1.26.59,1.81,1,1.2.68,1.75,1.07,1,.93,1.56,1.33,1.35.45,1.9.85.93,1,1.48,1.44,1.13.77,1.67,1.18,1,1,1.51,1.38,1.12.78,1.65,1.21,1.09.81,1.61,1.25,1.07.86,1.57,1.3.86,1.09,1.36,1.55,1.29.63,1.77,1.1.73,1.21,1.19,1.69.72,1.19,1.17,1.7,1.09.85,1.52,1.37,1.07.9,1.47,1.44.57,1.28.94,1.84,1,1,1.36,1.56.4,1.34.7,1.94.74,1.14,1.07,1.78.46,1.28.78,1.91,1.06,1,1.38,1.61.56,1.24.88,1.86.14,1.46.46,2.08,1,1,1.29,1.66.49,1.28.8,1.9,1,1.05,1.27,1.67,0,1.56.27,2.18,1.08,1,1.4,1.6.6,1.23.91,1.85.86,1.1,1.17,1.71.11,1.49.43,2.1,1,1,1.35,1.62.62,1.23.93,1.85.76,1.15,1.08,1.77,0,1.56.28,2.17,1.09,1,1.41,1.6.8,1.13,1.12,1.74.32,1.38.63,2,.85,1.11,1.17,1.72.65,1.22,1,1.83.69,1.19,1,1.81.4,1.34.71,1.95.51,1.3.82,1.91.23,1.44.54,2.05l1,1.84c.32.61.89,1.09,1.21,1.7s1,1,1.32,1.64.67,1.22,1,1.83,0,1.55.32,2.16,1.38.84,1.69,1.45.37,1.36.68,2,.6,1.25.91,1.85.26,1.43.57,2,.95,1.07,1.26,1.67.94,1.07,1.25,1.68.59,1.25.9,1.86.78,1.16,1.09,1.76.63,1.23.94,1.84.36,1.37.66,2,.86,1.12,1.16,1.74.31,1.38.6,2,.32,1.37.6,2,.91,1.1,1.19,1.73.3,1.37.57,2,.84,1.14,1.09,1.78-.19,1.54,0,2.19,1.22,1,1.44,1.67.35,1.34.55,2-.28,1.51-.09,2.17.57,1.26.73,1.93.7,1.24.85,1.91-.09,1.42,0,2.1.46,1.3.57,2,.2,1.35.29,2,.5,1.32.58,2-.24,1.39-.18,2.09-.05,1.37,0,2.06.5,1.34.53,2-.13,1.37-.12,2.07.12,1.37.13,2.07S356,458,356,458.73s.4,1.37.36,2.09-.38,1.34-.45,2,.13,1.4,0,2.1-.38,1.33-.5,2-.46,1.32-.6,2-.09,1.39-.25,2.07-.77,1.21-1,1.88.08,1.46-.14,2.12-.73,1.21-1,1.85-.63,1.23-.9,1.86-.28,1.39-.58,2-.72,1.19-1.06,1.77-.41,1.41-.8,2-.67,1.31-1.12,1.81-1.41.59-1.92,1-.8,1.31-1.38,1.66-1.58,0-2.19.35-.83,1.43-1.45,1.72-1.46.18-2.09.43-1.35.35-2,.56-1.23.72-1.89.9-1.48-.29-2.15-.15-1.24.9-1.92,1-1.39,0-2.08.1-1.39-.13-2.07-.12-1.39.49-2.08.46-1.35-.55-2-.61-1.41.15-2.09,0-1.4-.08-2.08-.22-1.27-.64-1.94-.81-1.37-.24-2-.44-1.25-.59-1.91-.82-1.27-.51-1.92-.77-1.12-.84-1.76-1.12-1.41-.21-2-.51-1.18-.73-1.8-1.06c-.06,0-.21.46-.28.46-1,0-1-.42-2-.42s-1-.08-2-.08-1,.41-2,.41-1,.12-2,.12l-2,0c-1,0-1-.76-2-.76s-1,1-2,1c-.55,0-.91-.9-1.31-1.26a1.46,1.46,0,0,1-.51-1.25c0-.55-.29-1.24.06-1.6a2.71,2.71,0,0,1,1.59-.87s0,.1,0,.1a4,4,0,0,0,2.06-.18A3.34,3.34,0,0,0,294,482a5.47,5.47,0,0,0,.7-2.11s-.55,0-.55-.09c0-.86.27-1.84-.2-2.45s-1.57-.44-2.36-.74a5.81,5.81,0,0,0-2.2-.57c-1.07,0-1.07.23-2.14.23s-1.07-.66-2.14-.66-1.08-.18-2.15-.18-1.07.84-2.14.84-1.07-.17-2.15-.17-1.07-.51-2.14-.51-1.08.27-2.15.27-1.08-.25-2.15-.25-1.47-.55-1.63-1.54c-.1-.63-.32-1.08.05-1.51a1.71,1.71,0,0,1,1.47-.48c.43,0,.43-.79.86-.79.67,0,1.33.48,1.89.26s.91-.89,1.36-1.32,1.07-.75,1.34-1.32a5.51,5.51,0,0,0,.56-1.85,5.29,5.29,0,0,0-.12-2,5.56,5.56,0,0,0-.94-1.8c-.06-.06-.43.26-.49.19-.47-.54-.78-1.47-1.43-1.76a5.77,5.77,0,0,0-2.27-.43c-1,0-1,.66-2.08.66s-1-.57-2.08-.57-1,.43-2.08.43-1,.1-2.08.1-1-.33-2.09-.33-1-.29-2.08-.29-1,0-2.09,0-1,.46-2.08.46-1.05,0-2.09,0-1.57-.85-1.73-1.85a1.59,1.59,0,0,1,.22-1.46c.37-.43.78-1,1.4-1,.91,0,.91-.3,1.83-.3s.91.13,1.83.13.91.74,1.83.74.92-.7,1.84-.7c.67,0,1.47.58,2,.36s.94-1.06,1.41-1.49,1.16-.78,1.45-1.35a5.9,5.9,0,0,0,.54-1.94,8.35,8.35,0,0,0-1.11-3.78c0-.06,0-.07-.06-.12-.49-.64-1.49-.7-2.2-1a4.57,4.57,0,0,0-2.17-.61c-1,0-1,.26-2,.27s-1-.7-2-.7-1,.29-2,.29-1-.37-2.05-.37-1,.41-2,.42-1,.35-2.05.35-1-.48-2.05-.47-1,.07-2,.07-1-.16-2-.15c-.62,0-.8-.46-1.17-.9s-.89-.69-.79-1.32a1.91,1.91,0,0,1,2.06-1.5c1,0,1,0,2.09,0s1-.51,2.09-.51,1,.56,2.09.56,1-.29,2.09-.29a4.57,4.57,0,0,0,2-.74c.66-.31,1.49-.38,1.94-.93a5.52,5.52,0,0,0,1-1.95,5.15,5.15,0,0,0,0-2.21,5.1,5.1,0,0,0-.83-2c0-.07.15-.2.1-.26a3.92,3.92,0,0,0-4.28-2c-1,0-1-.2-2.06-.2s-1,.12-2.06.12-1-.15-2.06-.15-1,.57-2.06.57-1-.18-2.07-.18-1,.25-2.06.25-1-.09-2.07-.09a2.1,2.1,0,0,1-2-1.83,1.86,1.86,0,0,1,.37-1.59c.37-.44.89-1,1.51-1,1.4,0,1.4.22,2.81.22a7,7,0,0,0,2.24,0,6.3,6.3,0,0,0,1.8-1.35,5.74,5.74,0,0,0,1.74-3.88,5.56,5.56,0,0,0-.32-2.07,5.67,5.67,0,0,0-.6-2.06s.25-.25.22-.3c-.37-.5-1.21-.64-1.71-1s-.89-1.12-1.48-1.31-1.34.6-2,.6c-1,0-1-.89-2-.89s-1,.74-2,.74-1-.48-2-.48-1,.42-2,.42-1-.26-2-.26a1.93,1.93,0,0,1-1.94-1.68,1.7,1.7,0,0,1,.46-1.48,1.87,1.87,0,0,1,1.38-.86c1,0,1,.06,2,.06s1-.29,2-.29,1,.7,2,.7,1-.82,2-.82,1.19,1.1,2.13.78c-.42-.53-.82-1.62-1.26-2.14s-1.36-.6-1.81-1.1-.77-1.13-1.24-1.62-.78-1.13-1.26-1.6-1-.94-1.48-1.39-1-.88-1.55-1.32-1.22-.65-1.75-1.07-1.09-.79-1.63-1.2-.8-1.21-1.35-1.59-1.48-.24-2-.61-1.1-.77-1.68-1.13-.85-1.2-1.43-1.54-1.35-.37-1.94-.7-.88-1.24-1.48-1.56-1.45-.15-2.05-.44-1.07-.92-1.69-1.2-1.5.05-2.12-.22-1-1.18-1.6-1.44-1.5.1-2.13-.14-1.32-.32-2-.54-1.11-.92-1.75-1.13-1.43,0-2.07-.21-1.3-.36-1.95-.55-1.06-1.24-1.71-1.41-1.49.3-2.14.14-1.38,0-2-.18-1.26-.59-1.91-.73-1.28-.55-1.93-.67-1.33-.38-2-.5-1.4.08-2.05,0-1.4,0-2-.08c-1.11-.23-.76-1-2.05-1.27-.67-.14-1.63.66-2.42.51s-1.44-.58-2.17-.67a9.63,9.63,0,0,0-1.84-.28c-.61,0-1.25.14-1.86.21s-1.22.6-1.77.7c-.9.15-1.82-.54-2.06-.45s-1.09.38-2.07.68c-.69.21-1.47.4-2.15.63a5.63,5.63,0,0,0-1.85,1.35c-.27.21-1,.75-1.86,1.41-.6.46-1.49.7-2.06,1.22a5.34,5.34,0,0,0-1.14,2.07,5.84,5.84,0,0,0-1,1.87c-.1.66.1,1.42.05,2.08a13.48,13.48,0,0,0,0,2,7.62,7.62,0,0,0,.83,1.82c.29.59.8,1.11,1.12,1.68a4.57,4.57,0,0,1,.32,2.07,7.76,7.76,0,0,0,2.11,1.47c.65.38,1.6.42,2.27.78a10.14,10.14,0,0,1,1.89,1.39,14.82,14.82,0,0,0,1.62.76c.52.25,1.15.35,1.67.57.89.39.91.11,1.71.45.61.28,1.18.67,1.8.95s1.24.48,1.87.74,1,1.19,1.58,1.45,1.4.11,2,.37,1.36.22,2,.48,1.16.71,1.78,1,1.07.95,1.69,1.21,1.23.54,1.85.8,1.57-.25,2.19,0,1,1,1.64,1.31,1.07.89,1.68,1.17,1.23.53,1.84.82,1.52,0,2.12.27,1.1.8,1.69,1.12,1.33.39,1.92.72,1.09.81,1.67,1.16,1,.91,1.58,1.28,1.27.55,1.81.94,1.13.76,1.65,1.18.91,1,1.41,1.47.74,1.17,1.22,1.64,1.07.82,1.52,1.33.65,1.18,1.05,1.72.9,1,1.27,1.54.95,1,1.3,1.64.53,1.26.84,1.91.59,1.22.86,1.88.47,1.29.71,2,.79,1.18,1,1.86.48,1.3.67,2,.11,1.4.27,2.09.53,1.3.67,2,.13,1.38.25,2.07-.25,1.44-.15,2.13.92,1.28,1,2-.08,1.41,0,2.1.33,1.38.36,2.08-.44,1.4-.43,2.1.11,1.39.1,2.08-.5,1.37-.53,2.07.31,1.4.26,2.09,0,1.39-.12,2.08-.08,1.39-.18,2.08-.2,1.38-.32,2.07-.17,1.38-.31,2.07-.1,1.41-.27,2.08-.45,1.33-.65,2-.42,1.33-.64,2-.4,1.34-.64,2-1.11,1.05-1.38,1.7-.58,1.24-.87,1.87-.43,1.33-.75,1.95-.71,1.18-1.06,1.78-.22,1.49-.59,2.08-.93,1.06-1.33,1.63-.89,1.07-1.31,1.63-.91,1.05-1.35,1.59-1,1-1.44,1.5-.82,1.12-1.31,1.62-.79,1.19-1.31,1.66-1,1-1.48,1.49-1,1-1.51,1.48-1.35.58-1.88,1-.84,1.21-1.37,1.63-1.19.78-1.74,1.19-1.53.29-2.09.69-.73,1.41-1.3,1.8-1.27.64-1.84,1-1.14.86-1.73,1.21-1.36.47-2,.81-1.13.87-1.74,1.19-1.52.12-2.13.42-1.22.69-1.84,1-1.27.58-1.9.84-1,1.24-1.68,1.48-1.46.13-2.1.34-1.41.26-2.06.44-1.39.3-2,.45-1.28.88-1.93,1-1.44.19-2.08.29-1.44.27-2.08.35-1.5-.23-2.12-.17c-.82.09-1.53.08-2.08.19a15.37,15.37,0,0,0-1.75.57c-.55.2-1.08.64-1.64.86a6.17,6.17,0,0,0-1.48,1c-.5.35-1.42.52-2,1.17s-1,1.27-1.44,1.84a23,23,0,0,0-1.36,1.88,4.69,4.69,0,0,0-.93,2c-.07.69-.1,1.48-.13,2.17a14.3,14.3,0,0,0,.15,2.16c0,.56.78,1.24,1.06,2.09s0,1.63.3,2.3a11.2,11.2,0,0,0,1.18,1.95,5.62,5.62,0,0,0,1.08,1.82c.49.48,1.08,1,1.58,1.41a6.91,6.91,0,0,0,1.89,1,8,8,0,0,0,1.83,1.13c.61.25,1.32.48,2,.75s1.47.2,2.16.42,1.42.53,2.06.71a8.36,8.36,0,0,0,2.14.31c.77,0,1.56.53,2.25.47,1.26-.1,1.07-.64,2.18-.57a12.54,12.54,0,0,1,2,.16c1,.17,1,0,2,.15s1,.2,2,.37l2,.34c1,.17,1,.33,2,.5s1,.23,2,.4.94.52,1.95.69,1.06-.19,2.07,0c.68.12,1.33.48,2,.56s1.41-.25,2.1-.22,1.38.23,2.07.22,1.35-.43,2-.49,1.43.37,2.11.26,1.41-.07,2.09-.22,1.41-.16,2.08-.35,1.22-.79,1.87-1,1.2-.72,1.84-1,1.21-.63,1.83-.94,1.18-.68,1.78-1,1.5-.23,2.07-.62,1.29-.62,1.84-1.05.82-1.2,1.34-1.66,1.06-.91,1.54-1.4.69-1.24,1.14-1.77,1.4-.68,1.81-1.24.63-1.27,1-1.86.54-1.3.88-1.91c.45-.85.83-1.74,1.22-2.64.27-.62.44-1.3.72-2s1.08-1,1.37-1.65.6-1.24.9-1.87.35-1.35.65-2,.81-1.14,1.12-1.77,0-1.54.3-2.16,1.14-1,1.46-1.59.16-1.47.49-2.09.45-1.33.78-1.94,1.15-1,1.49-1.55.27-1.45.62-2,1.23-.88,1.58-1.47.89-1.08,1.26-1.66.19-1.54.57-2.11,1.07-.95,1.46-1.51.8-1.14,1.21-1.69.87-1.08,1.3-1.62,1-1,1.44-1.49.54-1.39,1-1.89,1.19-.78,1.68-1.25,1-1,1.5-1.43,1.33-.53,1.88-.91,1-1,1.58-1.33a12.43,12.43,0,0,1,1.92-.71,9.84,9.84,0,0,1,2-.4,9.17,9.17,0,0,1,2-.42c.69.07,1.36.21,2,.33s1.26.59,1.91.76,1.54-.31,2.17-.08,1.06,1,1.66,1.33,1.49.13,2.08.48.87,1.17,1.42,1.57,1.46.34,2,.78.66,1.31,1.16,1.78,1.35.57,1.83,1.07.94,1,1.41,1.5.44,1.41.89,1.93,1.27.7,1.71,1.23.69,1.18,1.13,1.72,1.06.87,1.5,1.41.67,1.2,1.1,1.73.47,1.37.91,1.9,1,.94,1.44,1.46,1.23.73,1.68,1.24,1.13.8,1.6,1.31.93,1,1.41,1.47.86,1,1.35,1.53.74,1.17,1.23,1.65.72,1.21,1.23,1.68,1.19.7,1.71,1.16,1,.93,1.51,1.38,1.3.55,1.84,1,.6,1.43,1.15,1.85,1.54.21,2.1.61,1.12.75,1.69,1.14.75,1.36,1.32,1.71,1.35.42,1.93.74,1,1.08,1.61,1.36,1.47.07,2.09.32,1.2.71,1.83.92,1.26.61,1.91.78,1.43-.12,2.09,0,1.29.58,2,.67,1.4-.34,2.07-.29,1.35,0,2,.07,1.35.28,2,.27,1.35-.16,2-.2,1.39.37,2.06.3,1.35-.2,2-.3,1.39,0,2.06-.09,1.3-.44,2-.57,1.36-.18,2-.33,1.22-.75,1.88-.9,1.26-.55,1.91-.72,1.38-.08,2-.26,1.38-.1,2-.28,1.3-.4,1.95-.58,1.18-.87,1.83-1,1.49.29,2.14.12,1.35-.17,2-.33,1.14-1.15,1.79-1.3,1.37-.16,2-.28,1.45.45,2.11.35,1.34-.15,2-.21,1.31-.6,2-.63,1.35.34,2,.36,1.4-.5,2.06-.42,1.33.38,2,.52a19.2,19.2,0,0,1,1.86.83c.66.21,1.25.52,1.88.76s1.25.51,1.87.78,1.34.34,1.94.65,1.21.61,1.8.94,1.39.35,2,.71.84,1.2,1.4,1.59,1.15.71,1.7,1.12,1.41.41,1.94.83l1.59,1.3c.52.44,1.13.78,1.64,1.23s.82,1.13,1.33,1.59,1.07.83,1.58,1.29.65,1.3,1.15,1.77,1.17.73,1.67,1.19l1.52,1.37c.5.45.84,1.1,1.35,1.55s.89,1,1.41,1.49c.78.71,1.25.2,2,.91s.31,1.22,1.09,1.94.93.54,1.71,1.26.87.62,1.64,1.34.84.66,1.61,1.38.61.9,1.38,1.63c.49.49,1.29.66,1.77,1.15s1.08.85,1.56,1.35.35,1.56.83,2.06,1.41.55,1.88,1.05.79,1.13,1.26,1.63,1,.92,1.5,1.42.65,1.27,1.12,1.78,1.21.75,1.67,1.26,1,1,1.45,1.46.67,1.25,1.12,1.77.87,1.07,1.32,1.58.63,1.28,1.08,1.8,1.14.83,1.58,1.35,1,1,1.43,1.49,1.1.87,1.54,1.4.78,1.14,1.22,1.67.49,1.38.92,1.91,1.42.62,1.85,1.16.34,1.49.76,2,1,1,1.43,1.5,1.07.91,1.49,1.45.44,1.4.85,1.95,1.5.59,1.91,1.14.88,1.06,1.29,1.61.34,1.47.74,2,1,1,1.38,1.55.72,1.18,1.11,1.74.88,1.06,1.27,1.63.34,1.44.73,2,1.32.77,1.7,1.34.47,1.34.84,1.92,1.24.84,1.61,1.42.32,1.43.69,2,.41,1.36.77,1.94,1.1,1,1.45,1.54.36,1.38.7,2,1.23.89,1.56,1.49.73,1.18,1.05,1.78,0,1.55.34,2.15.6,1.24.89,1.85.63,1.23.92,1.84,1.17,1,1.44,1.61,0,1.5.27,2.12.78,1.18,1,1.82.42,1.32.63,2,.81,1.21,1,1.85.18,1.4.34,2-.18,1.45-.06,2.11,1,1.27,1.05,1.93-.6,1.43-.52,2.11.93,1.27,1,1.94-.24,1.39-.16,2.07-.14,1.38-.07,2.06.68,1.29.75,2-.62,1.43-.54,2.1.51,1.32.58,2-.27,1.4-.2,2.07.4,1.33.48,2,.67,1.3.75,2,.08,1.36.16,2-.18,1.39-.1,2.06,0,1.37.1,2,.08,1.36.16,2,.56,1.3.65,2-.3,1.42-.2,2.09.74,1.27.83,1.94-.32,1.42-.23,2.09,1.07,1.21,1.17,1.88,0,1.38.09,2,.34,1.32.46,2,.31,1.32.43,2-.45,1.46-.33,2.13.58,1.27.7,1.93,0,1.4.09,2.06.11,1.36.25,2,.72,1.23.87,1.89-.14,1.43,0,2.09.2,1.35.36,2,.44,1.29.61,2,.79,1.19,1,1.85-.13,1.44,0,2.1.24,1.34.42,2,.42,1.29.61,1.94.83,1.17,1,1.82.28,1.33.49,2,.64,1.21.86,1.85.55,1.24.78,1.88.57,1.23.8,1.87.29,1.34.53,2,.18,1.38.43,2,.65,1.19.91,1.83,0,1.45.28,2.08.7,1.18,1,1.81.77,1.14,1.05,1.76.69,1.18,1,1.8.65,1.18,1,1.8,0,1.52.33,2.14.75,1.19,1,1.81.53,1.29.83,1.91.93,1.09,1.23,1.71,1,1.07,1.28,1.68.49,1.31.79,1.92.5,1.31.81,1.91.65,1.23,1,1.83.86,1.13,1.18,1.73.15,1.5.48,2.1.65,1.24,1,1.83.93,1.08,1.27,1.66.87,1.11,1.23,1.68.81,1.13,1.18,1.7.51,1.33.89,1.89.9,1.06,1.3,1.62,1.07.92,1.49,1.46.62,1.26,1.06,1.79.83,1.1,1.29,1.62.95,1,1.42,1.5.68,1.26,1.17,1.75,1,.9,1.55,1.38,1.38.52,1.9,1,.65,1.33,1.19,1.79,1.06.86,1.61,1.3,1.12.79,1.67,1.22,1,1,1.52,1.42,1.28.59,1.84,1,.95,1,1.52,1.44,1.32.5,1.9.91l1.7,1.19c.56.39.85,1.19,1.42,1.57s1.34.45,1.92.82.91,1.15,1.5,1.5,1.6,0,2.19.33,1.11.81,1.71,1.15,1.24.58,1.85.9,1.06.92,1.67,1.23,1.15.79,1.76,1.09,1.09.92,1.71,1.21,1.39.28,2,.56,1.41.2,2,.47,1.25.59,1.88.85,1.16.79,1.8,1,1.34.34,2,.59,1.43.09,2.07.32,1.06,1.12,1.7,1.34,1.53-.2,2.18,0,1,1.29,1.66,1.5,1.55-.32,2.2-.12,1.23.67,1.89.87,1.2.79,1.85,1,1.39.18,2,.36,1.46-.08,2.11.1,1.32.4,2,.57,1.15,1.08,1.81,1.24,1.46-.15,2.12,0,1.34.35,2,.49,1.3.52,2,.66,1.33.44,2,.57,1.44-.11,2.09,0,1.46-.23,2.11-.11,1.29.78,1.93.89,1.44,0,2.07.07,1.42.16,2,.25c.78.11,1.4.67,2,.74a3.92,3.92,0,0,0,1.6,0c0-1,0-1,0-2.07s.27-1,.27-2.07.1-1,.1-2.07.43-1,.43-2.07-.57-1-.57-2.07.42-1,.42-2.07v-2.06c0-1-.32-1-.32-2.07s.32-1,.32-2.07-.34-1-.34-2.06-.15-1-.15-2.07-.2-1-.2-2.07.7-1,.7-2.07-.2-1-.2-2.07,0-1,0-2.07,0-1,0-2.07-.19-1-.19-2.07-.24-1-.24-2.07.42-1,.42-2.07-.08-1-.08-2.06-.33-1-.33-2.07.13-1,.13-2.07.35-1,.35-2.07.21-1,.21-2.07-.4-1-.4-2.07.4-1,.4-2.08.14-1,.14-2.07-.91-1-.91-2.07.06-1,.06-2.06.52-1,.52-2.07-.05-1-.05-2.08-.2-1-.2-2.07-.29-1-.29-2.07.36-1,.36-2.07.29-1,.29-2.07-.11-1-.11-2.07,0-1,0-2.07-.34-1-.34-2.07.44-1,.44-2.08,0-1,0-2.07.11-1,.11-2.07.19-1,.19-2.07-.43-1-.43-2.07.08-1,.08-2.08.09-1,.09-2.07-.29-1-.29-2.07,0-1,0-2.07.14-1,.14-2.07.19-1,.19-2.07-.69-1-.69-2.08.41-1,.41-2.07-.11-1-.11-2.06.53-1,.53-2.07-.19-1-.19-2.08-.37-1-.37-2.07.09-1,.09-2.07-.19-1-.19-2.07-.21-1-.21-2.08.46-1,.46-2.07-.13-1-.13-2.07,0-1,0-2.08,0-1,0-2.07.22-1,.22-2.08.37-1,.37-2.07-.19-1-.19-2.08-.49-1-.49-2.07-.15-1-.15-2.07.22-1,.22-2.08-.22-1-.22-2.08.67-1,.67-2.08-.21-1-.21-2.08a4.74,4.74,0,0,0-.21-2c-.48.47-.8,1-1.31,1.44s-1,1-1.48,1.41-.89,1.06-1.43,1.48-1.43.37-2,.77-.88,1.11-1.44,1.5-1.42.3-2,.67-.85,1.21-1.42,1.56-1.39.32-2,.66-1,.95-1.62,1.28-1.22.59-1.82.91-1.45.13-2.06.44-1,1.13-1.56,1.42-1.15.75-1.77,1-1.3.44-1.92.7-1.17.74-1.8,1-1.4.18-2,.42-1.18.72-1.82,1-1.48-.1-2.11.12-1.13.91-1.77,1.12-1.23.65-1.88.85-1.42,0-2.07.18-1.21.76-1.86.93-1.5-.35-2.15-.19-1.21.83-1.86,1-1.35.26-2,.4-1.47-.4-2.13-.27-1.31.4-2,.51-1.3.54-2,.63-1.35.29-2,.37-1.4-.2-2.06-.14-1.36.12-2,.16-1.35.72-2,.74S527.62,683.86,527,683.84ZM317.38,275.65c0-1,.39-1.66,1.43-1.66s1-.46,2-.46,1,.55,2,.55,1-.08,2-.08,1-.38,2-.38,1,.55,2,.55,1-.66,2-.66,1,.31,2,.31a1.87,1.87,0,0,1,1.92,1.83A2.07,2.07,0,0,1,333,277.7c-1,0-1-.4-2-.4s-1-.14-2-.14-1,.33-2,.33-1,.45-2,.45-1-.87-2-.87-1,.6-2,.6-1-.29-2-.29S317.38,276.68,317.38,275.65ZM264.5,475.81c-1,0-1,.23-2.05.23s-1,.46-2.06.46-1-.55-2.06-.55-1,.08-2.05.08c-.56,0-1.18.11-1.54-.25s-.08-1-.08-1.54-.36-1.24,0-1.61a2.36,2.36,0,0,1,1.61-.36c1,0,1-.09,2.05-.09s1-.13,2.05-.13,1,.4,2.06.4,1,.14,2.06.14c.56,0,1-.12,1.4.25s1,.84,1,1.4-1,.74-1.33,1.11A1.26,1.26,0,0,1,264.5,475.81Z" />
  </g>
  <g>
    <path d="M537,232.59c.07,0,0-.14.12-.15,2.21-.47,2.22-.43,4.44-.9s2.34.09,4.56-.38,2.2-.59,4.42-1.06l4.45-.93c2.22-.47,2.18-.69,4.4-1.16,1.09-.23,1.4-1.18,1.17-2.28s-.91-1.88-2-1.66c-2.54.53-2.6.26-5.14.8L548.31,226c-2.54.54-2.41,1.17-4.95,1.71s-2.54.55-5.08,1.08c0,0,0,0,0,0-1.4.29-1.89.42-2.56-.88-2,0-2.07.88-1.53,2.85S535.1,232.43,537,232.59Z" />
    <path d="M536,227.82a4.14,4.14,0,0,1,0-3.21c1.39-1.89,1.71-1.65,3.11-3.53s1.5-1.82,2.9-3.7,1.22-2,2.62-3.91,1.15-2.07,2.55-4,1.7-1.66,3.1-3.55,1.75-1.62,3.15-3.51,1.34-1.94,2.74-3.82,1-2.23,2.36-4.12a1.57,1.57,0,0,0-.29-2.44,2.1,2.1,0,0,0-2.92.06c-1.52,2-1,2.4-2.56,4.45s-1.51,2.07-3,4.11-1.56,2-3.09,4.07-1.81,1.83-3.34,3.88-1.64,2-3.17,4-1,2.4-2.57,4.45-2.17,1.58-3.69,3.63l.1.06c-1.15,1.45-1.07,2.34-2.8,1.77-2,1.45-1.63,2.56.23,4S534,229.1,536,227.82Z" />
    <path d="M531.37,222.31a3.41,3.41,0,0,1-2-2.46c.3-2.4,1.06-2.31,1.37-4.71s.48-2.38.78-4.78-.09-2.45.21-4.85-.21-2.47.09-4.88.7-2.35,1-4.75.77-2.34,1.07-4.74-.3-2.48,0-4.89.83-2.34,1.14-4.74-.12-2.46.19-4.87a2.21,2.21,0,0,0-1.64-2.51,2.38,2.38,0,0,0-2.42,2c-.3,2.33-.35,2.33-.64,4.66s-.26,2.34-.55,4.67-.26,2.34-.56,4.68-.52,2.3-.82,4.63-.13,2.36-.43,4.69-.61,2.29-.91,4.63.37,2.42.07,4.75-.29,2.34-.59,4.68-.56,2.3-.86,4.64l.58.09c-.28,1.58-.82,2.12-2.44,2.12-1.43,2.49-.67,4.06,2.52,4.65S531.31,225.05,531.37,222.31Z" />
    <path d="M523.6,220.5c-1.41,0-.81-.86-1.18-2.33l-.39.1c-.56-2.36-.73-2.32-1.29-4.68s-.64-2.33-1.2-4.69.06-2.5-.5-4.86-.9-2.28-1.46-4.64-.93-2.26-1.49-4.62.12-2.52-.44-4.87-.73-2.32-1.29-4.68-.78-2.31-1.34-4.67-.22-2.44-.78-4.8a2.53,2.53,0,0,0-2.79-1.72,2.28,2.28,0,0,0-1.42,2.71c.56,2.39.92,2.3,1.49,4.68s0,2.53.52,4.91,1.24,2.23,1.8,4.61-.33,2.6.23,5,1.41,2.18,2,4.57-.21,2.56.36,4.94.63,2.37,1.2,4.76,1.12,2.25,1.69,4.64.72,2.35,1.29,4.74l-.16,0s0,.08,0,.1c.06.23-.2.29-.15.52a2.75,2.75,0,0,1-.74,2.53c.88,2.17,2.22,2.15,4.35,1.54S524.6,222.74,523.6,220.5Z" />
    <path d="M517.7,222.82c-.73.46-1.65-.36-2.15-.78-1.67-1.57-1.82-1.42-3.49-3s-1.47-1.78-3.14-3.36-1.25-2-2.91-3.6-2.11-1.11-3.78-2.69-1.3-2-3-3.55-2.08-1.14-3.75-2.73-1.77-1.48-3.44-3.06c-.8-.76-1.85-1.07-2.62-.26a2.41,2.41,0,0,0-.12,3.16c1.67,1.58,2,1.25,3.65,2.83s1.52,1.74,3.19,3.32,2,1.27,3.63,2.85,1.12,2.17,2.78,3.75,2.33.89,4,2.47,1.51,1.75,3.18,3.34,1.56,1.7,3.23,3.3c.31.31,1.2,1.09.63,1.92,1.41,1.66,2.56,1.89,4.15.47S519.11,224.63,517.7,222.82Z" />
    <path d="M513.44,226.84c-.65.94-.88.64-1.9.27v-.05c-2.48-.85-2.7-.24-5.18-1.09s-2.26-1.48-4.75-2.33-2.59-.53-5.07-1.38-2.61-.52-5.09-1.37-2.43-1-4.92-1.87a2,2,0,0,0-2.72,1.36,2.53,2.53,0,0,0,1.47,2.58c2.13.73,2.15.68,4.28,1.41s2.13.71,4.26,1.44,2.29.25,4.42,1,1.92,1.34,4.05,2.07,2.41-.06,4.54.67,2.11.79,4.24,1.53a2,2,0,0,1,.9,1.51c1.91.51,3,.11,3.48-1.76S515.51,227.57,513.44,226.84Z" />
    <path d="M512.27,238.07c-2.56.38-2.65-.1-5.24-.09s-2.59-.67-5.18-.66l-5.18,0c-2.59,0-2.59.52-5.18.53v-.22a2.11,2.11,0,0,1-2.2-1.92,2.51,2.51,0,0,1,2.19-2.39c2.44,0,2.44.85,4.88.84s2.44-.46,4.88-.47,2.45.38,4.89.37,2.44-.74,4.89-.75c0,0-.1.38-.07.38.8,0,1.05.22,1.1-.76,1.52-.3,1.42.29,1.57,1.87C513.79,236.65,514,237.81,512.27,238.07Z" />
  </g>
  <g class="fingers">
    <path d="M474.63,341.12c2.32-.08,2.23-.81,4.53-1.22s2.27-.53,4.56-.94,2.41.22,4.7-.19,2.26-.65,4.55-1.06,2.28-.56,4.57-1a1.87,1.87,0,0,0,1.64-2.19c-.2-1.1-1.3-2.29-2.41-2.12-2.65.47-2.64.52-5.29,1s-2.58.94-5.23,1.41-2.67.42-5.32.9-2.64.61-5.29,1.08c0,0,0-.22,0-.22-1.19.22-1.72.9-2.18.07-2.12.1-2.76.48-2.56,2.13S472.18,341.21,474.63,341.12Z" />
    <path d="M473.55,336.35c-.53-1-.14-1,.56-1.67l-.41-.42c1.9-1.52,1.95-1.45,3.85-3s1.69-1.76,3.59-3.29,1.93-1.47,3.82-3,2-1.36,3.92-2.88,1.85-1.59,3.74-3.12,2.29-1,4.19-2.56a2.67,2.67,0,0,0,.15-3.35,2.45,2.45,0,0,0-3.18-.41c-1.76,1.42-1.88,1.27-3.65,2.69s-1.75,1.44-3.52,2.86-1.29,2-3.05,3.45-2.11,1-3.87,2.44-1.83,1.36-3.6,2.78-1.58,1.66-3.36,3.08c0,0-.06-.12-.07-.11-1.38,1.06-1.7,2-2.86.89-2.35,1.66-3.23,3.91-1.32,5.24S471.6,337.81,473.55,336.35Z" />
    <path d="M469.5,330.36c-.6-.57.51-2.24.78-2.83,1.18-2.21,1.22-2.18,2.42-4.37s1-2.31,2.19-4.51,1-2.28,2.24-4.47,1.58-2,2.78-4.18.53-2.56,1.73-4.76,1.3-2.14,2.5-4.34,1.3-2.15,2.5-4.34c.54-1,.55-2.4-.42-2.93a2.37,2.37,0,0,0-2.94,1.08c-1.16,2.11-1.43,2-2.58,4.07s-1.2,2.09-2.36,4.2-.87,2.26-2,4.37-1.44,1.95-2.59,4.06-.43,2.51-1.58,4.62-1.62,1.86-2.78,4-1.46,1.95-2.62,4.05c0,0,.36.19.35.2-.64,1.15-.81,1.89-1.85,1.57-1.95,2.12-2.61,4.09-.37,5.49C466.88,332.57,468,332.22,469.5,330.36Z" />
    <path d="M465.34,325.7c-.83-.25-.79-1.71-.77-2,.21-2.35-.36-2.41-.15-4.76s.18-2.35.39-4.71.73-2.3.94-4.66.4-2.34.61-4.69-.25-2.4,0-4.75.72-2.31.93-4.66-.44-2.41-.23-4.77.47-2.33.68-4.69,0-2.37.22-4.73,1-2.29,1.17-4.65a2.82,2.82,0,0,0-2.29-2.59,2.45,2.45,0,0,0-2.29,2.18c-.21,2.29.16,2.32,0,4.61s-1,2.22-1.18,4.51-.08,2.3-.29,4.6-.29,2.28-.5,4.57.65,2.37.44,4.66-1,2.22-1.2,4.51.15,2.32-.06,4.61-.29,2.29-.5,4.58.34,2.35.13,4.64-.67,2.25-.88,4.55l-.34,0c0,1.31.59,2-.76,2-.79,2.78-.25,4.51,2.19,4.71S465.12,328.17,465.34,325.7Z" />
    <path d="M459,323.94c-1.09,0-.75-.66-.94-1.88l-.7.13c-.5-2.22.2-2.38-.3-4.6s-1.11-2.08-1.61-4.3-.7-2.18-1.2-4.4-.19-2.29-.7-4.51-.93-2.12-1.44-4.34,0-2.35-.47-4.57-.08-2.32-.58-4.54a3,3,0,0,0-2.61-2,2.73,2.73,0,0,0-2.19,3c.49,2.2,1,2.09,1.46,4.29s0,2.32.46,4.51,1,2.09,1.46,4.28.91,2.11,1.4,4.3.08,2.29.58,4.49.68,2.16,1.18,4.35-.18,2.35.31,4.55l.46-.1c.3,1.48.41,2.14-.81,2.7.33,2.56,1.69,2.83,4,2.51S459.69,326.4,459,323.94Z" />
    <path d="M452.65,325.42c-1.4.63-1.24-.31-2.12-1.61v0c-1.36-2.14-1.57-2-2.93-4.16s-1.51-2.05-2.86-4.19-1.05-2.34-2.4-4.49-1.86-1.83-3.21-4-1.22-2.23-2.58-4.37-1.63-2-3-4.13-.93-2.42-2.29-4.57-1.15-2.28-2.5-4.43c-.59-.93-1.89-.74-2.85-.14a1.45,1.45,0,0,0-.54,2.27c1.25,2,.71,2.33,1.95,4.31s1.14,2.06,2.38,4.05,1.92,1.56,3.17,3.54.93,2.19,2.18,4.17,1.14,2.05,2.39,4,1.22,2,2.47,4,1.72,1.69,3,3.67.61,2.39,1.86,4.38,1.42,1.88,2.66,3.87c.26.44.83,1.12.4,1.66,1.75,1.55,3,1.94,4.68.69C454.39,328.58,454.46,327,452.65,325.42Z" />
    <path d="M447.82,329.23c-.84,1-1,.52-2.14-.06l-.38.75c-2.29-1.15-2.24-1.24-4.53-2.4s-2.16-1.41-4.44-2.56-2.5-.74-4.79-1.9-2.23-1.27-4.52-2.42-2.26-1.22-4.55-2.37-2-1.76-4.28-2.92a2.47,2.47,0,0,0-2.22,4.41c2.08,1.05,2.32.58,4.4,1.63s2.11,1,4.19,2,2,1.24,4.06,2.29l4.16,2.1c2.08,1.05,2.31.6,4.39,1.65s1.74,1.74,3.83,2.79l4.17,2.1.16-.32a2,2,0,0,1-.13.34c.1.05.36-.47.45-.43.27.15.73.3.73.9,1.73.65,1.83.48,3-1.13C450.67,331.89,450.22,330.23,447.82,329.23Z" />
    <path d="M448.61,337.86c-.06-1.92-.55-2.17-2.38-2.19,0,.7-.69.32-1,.34v.05c-.12,0-.1,0-.19,0s0-.14,0-.14c-2.6.08-2.59.5-5.19.58s-2.62-.61-5.23-.53-2.6.23-5.2.3-2.6.53-5.2.6c-1.12,0-2.49.8-2.46,1.91s1.42,1.52,2.51,1.52c0,0,0,.4.06.4,2.68-.08,2.69.22,5.37.14s2.67-.75,5.35-.82,2.7.13,5.38.05,2.68-.35,5.37-.42c.1,0,.23.63.33.62C447.92,340.05,448.66,339.75,448.61,337.86Z" />
  </g>
  <g class="fingers">
    <path d="M398.3,170.69c2.17.39,2.27-.14,4.44.27s2.12.67,4.29,1.07,2.19.3,4.36.71,2.18.36,4.36.77,2.14.54,4.32,1,2.21.23,4.38.64c.13,0,.19.14.32.14a1.79,1.79,0,0,0,1.9-1.48,2.11,2.11,0,0,0-1.5-2.52c-2.3-.44-2.27-.64-4.57-1.07s-2.32-.39-4.63-.82-2.28-.58-4.59-1-2.47.4-4.78,0-2.21-1-4.53-1.42h.1s-.12.08-.15.07c-.32-.06-.43.43-.74.37-1-.24-2.79-1.07-2.81-2.79-2.33-.93-3.26.07-3.26,2.5C395.21,169.89,395.66,170.21,398.3,170.69Z" />
    <path d="M398.49,164.25c0-1.48,1.39-1.73,2.24-2,.36-.12.28-.36.64-.46,0,0,.13.34.14.33l-.06-.16c2.34-.65,2.14-1.37,4.48-2s2.47-.2,4.81-.85,2.41-.42,4.75-1.06,2.23-1.07,4.58-1.72,2.48-.16,4.82-.81a2.42,2.42,0,0,0,1.49-2.8,2.46,2.46,0,0,0-2.73-1.68c-2.5.7-2.45.86-4.95,1.55s-2.55.49-5.05,1.18-2.48.78-5,1.47-2.37,1.14-4.87,1.83-2.67.09-5.18.78c0,0,.1.32.09.32s-.13-.09-.2-.07,0,.21-.06.23a2.08,2.08,0,0,1-2.31-.73c-2.89.47-3.66,1.71-3,4.53S395.59,165.5,398.49,164.25Z" />
    <path d="M396.38,157.63a3.44,3.44,0,0,1-.25-3c1.47-1.81,1.86-1.49,3.33-3.29s1.27-2,2.74-3.77,1.37-1.89,2.84-3.7,1.79-1.54,3.26-3.34,1.21-2,2.68-3.83,1.31-1.93,2.78-3.74,2-1.35,3.49-3.16,1.61-1.69,3.08-3.49.72-2.42,2.19-4.23,1.84-1.51,3.31-3.32c.7-.87.87-2.48,0-3.18a2.57,2.57,0,0,0-3.22.56c-1.46,1.79-1.19,2-2.65,3.8s-2,1.35-3.46,3.14-1.27,1.94-2.73,3.73-1.19,2-2.65,3.8-1.22,2-2.67,3.78-1.95,1.39-3.41,3.18-1.29,1.92-2.75,3.71-1.76,1.55-3.22,3.34-.78,2.35-2.24,4.14-2,1.39-3.42,3.18l-.17-.15c-1.48,1.73-1.39,2.34-3.77,1.12-2.35,2.57-1.15,4.86,1.46,6S395.13,160.32,396.38,157.63Z" />
    <path d="M389.68,152.88a3,3,0,0,1-1.63-2.85c.43-2.48.95-2.39,1.39-4.86s.38-2.5.82-5,.25-2.52.7-5,.15-2.53.59-5,.88-2.4,1.33-4.88-.31-2.61.14-5.09,1.13-2.35,1.58-4.83-.17-2.59.28-5.07.74-2.43,1.18-4.91c.2-1.1-.5-1.72-1.6-1.92s-2.11.12-2.3,1.22c-.41,2.3-.84,2.22-1.25,4.53s-.19,2.34-.6,4.64.31,2.44-.11,4.74-.7,2.25-1.11,4.56-.6,2.27-1,4.57-.55,2.28-1,4.58-.06,2.37-.47,4.68-.31,2.32-.73,4.63-.32,2.32-.74,4.63-1.14,2.17-1.56,4.48a2,2,0,0,1,.24.05c-.17,1.31.29,1.49-1.55,1.56-1.22,2.78-.35,3.57,3,3.87S390,155.91,389.68,152.88Z" />
    <path d="M381.7,152.27a2,2,0,0,1-2.1-1.13c-.56-2.24-.43-2.27-1-4.5s0-2.37-.58-4.61-1.41-2-2-4.25-.14-2.34-.7-4.58-.12-2.34-.68-4.58-1.16-2.09-1.72-4.32-.43-2.27-1-4.5-.81-2.18-1.36-4.41-.52-2.25-1.07-4.49-.37-2.29-.93-4.53-.51-2.25-1.07-4.49a2.17,2.17,0,0,0-2.42-1.71c-1.09.27-1.22,1.47-.95,2.55.56,2.25.28,2.32.84,4.56s.38,2.29.94,4.53.16,2.35.71,4.59.63,2.23,1.19,4.48.48,2.26,1,4.5.51,2.26,1.06,4.51,1.34,2.05,1.89,4.29.34,2.3.9,4.55.9,2.16,1.46,4.41.11,2.36.67,4.61.91,2.16,1.47,4.41l-.33.08c.28.89.28,1-.7,1.59.1,2.36,1.15,2.81,3.75,2.53S382.62,154.78,381.7,152.27Z" />
    <path d="M375,154.1a1.3,1.3,0,0,1-1.84-.24c-1.26-1.88-.82-2.17-2.08-4s-1.46-1.74-2.71-3.62-1.21-1.9-2.47-3.78-1.46-1.73-2.72-3.6-.91-2.11-2.16-4-1.59-1.65-2.84-3.53-1.15-1.95-2.41-3.83-1.47-1.73-2.73-3.61a1.41,1.41,0,0,0-2.25-.47c-.93.62-1.33,1.52-.71,2.44,1.26,1.89,1,2,2.28,3.93s1.63,1.64,2.88,3.52l2.52,3.77c1.25,1.88.78,2.2,2,4.08s1.25,1.89,2.5,3.78,1.64,1.63,2.9,3.51,1.13,2,2.38,3.87,1.18,1.94,2.44,3.82c0,.06,1,1,.15,2,1.39,2.21,2.69,2.28,4.55.94S376.73,156.37,375,154.1Z" />
    <path d="M370,158.36c-.8.89-1,.76-2.09.39l0-.15c-2.3-1-2.44-.73-4.74-1.78s-2.2-1.27-4.51-2.31-2.22-1.21-4.52-2.26-2.48-.67-4.78-1.72l-4.61-2.11c-2.3-1-2.2-1.27-4.51-2.32a1.69,1.69,0,0,0-2.33,1.06,1.66,1.66,0,0,0,.75,2.43c2.27,1,2.42.7,4.69,1.73s2.15,1.31,4.42,2.34,2.34.88,4.62,1.91,2,1.54,4.31,2.58,2.37.84,4.64,1.87,2.4.76,4.68,1.79a3.31,3.31,0,0,1,1,2.71c1.85,2,3.19,1.37,4.9-1.2S372.82,159.5,370,158.36Z" />
    <path d="M369.45,166.77c-.08-1.92-.77-3.17-2.29-2.38-.15,1.56-.45,1.56-1.85,1.88l.06.23c-2.26.42-2.29.24-4.55.66s-2.19.84-4.44,1.26-2.29.3-4.55.72-2.23.58-4.5,1-2.31.16-4.57.58a1.68,1.68,0,0,0-1.4,2.13c.18,1,.78,1.92,1.74,1.92.12,0,.32.22.45.2,2.24-.41,2.18-.72,4.42-1.13s2.13-1.05,4.37-1.46,2.33.09,4.57-.32,2.33.05,4.58-.37a25.52,25.52,0,0,0,4.47-1.07C368.5,169.83,369.53,168.69,369.45,166.77Z" />
  </g>
  <g>
    <path d="M248.73,220c2.43.5,2.51,0,5,.32s2.41.76,4.88,1.08,2.52-.07,5,.25,2.46.36,4.93.68,2.39,1,4.86,1.29c.09,0,.24-.66.32-.66,1.06,0,1.58-.64,1.62-1.75a1.79,1.79,0,0,0-1.49-2.09c-2.33-.29-2.39.15-4.71-.15s-2.33-.31-4.65-.61-2.3-.53-4.63-.83-2.36,0-4.69-.34-2.31-.46-4.64-.77c0,0,0,0,0,0-1.74-.25-2.08-1.05-2.31-2.94-2.28-.46-3.29,1.59-3.22,3.44S246.23,219.5,248.73,220Z" />
    <path d="M248.33,213.93a3.2,3.2,0,0,1,.62-2.59c2-1.53,2.53-.83,4.54-2.35s1.85-1.73,3.86-3.25,2.14-1.35,4.16-2.86,1.73-1.89,3.74-3.41,2-1.56,4-3.08,2-1.59,4-3.11,2.28-1.17,4.29-2.69a2.45,2.45,0,0,0,.61-3.13c-.67-.89-2.12-.73-3-.06-1.92,1.43-2.16,1.11-4.07,2.55s-1.77,1.62-3.68,3.06-1.93,1.42-3.84,2.86-1.59,1.87-3.5,3.31-2.44.73-4.35,2.17-2,1.36-3.89,2.8-1.57,1.91-3.49,3.35v0c-.72.4-1,.26-1.67-.29-3,1.12-4.86,2.84-3.74,4.78" />
    <path d="M246.47,207.25c-.38-.31.1-.89.21-1.23.9-2.16.9-2.16,1.81-4.3s1.08-2.08,2-4.23.27-2.42,1.18-4.57,1.61-1.85,2.52-4,.94-2.14,1.85-4.29.24-2.43,1.15-4.58.95-2.13,1.87-4.28,1.54-1.88,2.45-4,.95-2.14,1.86-4.29.82-2.19,1.73-4.34.79-2.21,1.7-4.36a2.6,2.6,0,0,0-1.05-3.13,2.78,2.78,0,0,0-3.15,1.35c-.95,2.25-.55,2.42-1.51,4.68s-1.4,2.07-2.35,4.32l-1.92,4.52c-1,2.25-.32,2.52-1.28,4.78s-.9,2.28-1.86,4.54S252,181.76,251,184s-.79,2.33-1.74,4.59-.68,2.38-1.64,4.64-1.26,2.13-2.21,4.4-.86,2.3-1.82,4.56l-.13-.07c-.71,1.59-.52,2.07-2.53,1.57-2.16,2.35-1.72,4.33.82,5.46S245,209.76,246.47,207.25Z" />
    <path d="M240.76,203.67c-1.59-.4-1-1-.79-2.54l-.52-.06c.24-2.36.69-2.31.94-4.68s-.43-2.43-.18-4.79.21-2.37.45-4.73.51-2.34.75-4.71.73-2.31,1-4.68-.48-2.43-.24-4.8.48-2.34.72-4.7.66-2.33.9-4.69-.37-2.44-.13-4.8,1-2.3,1.24-4.66c.11-1.11-1.12-2.16-2.22-2.29a2.19,2.19,0,0,0-2.51,1.71c-.24,2.37,0,2.4-.21,4.77s-.41,2.36-.65,4.73-.41,2.36-.65,4.74.52,2.45.28,4.82-.51,2.35-.75,4.73-.59,2.34-.83,4.71-.4,2.36-.64,4.73,0,2.41-.2,4.79-.44,2.35-.68,4.73-.29,2.37-.54,4.75l.34,0c-.21,1.65-.35,2-2.26,2.13-.95,2.35.66,3,3.4,3.24S240.87,206.29,240.76,203.67Z" />
    <path d="M233.55,202.77a3.67,3.67,0,0,1-3.06-1.44c-.67-2.37.11-2.59-.56-5s-1.45-2.15-2.12-4.52-.21-2.49-.88-4.86-.48-2.42-1.15-4.79-1.23-2.21-1.9-4.58-.44-2.44-1.12-4.81-.69-2.36-1.37-4.73a2,2,0,0,0-2-1.66,2.16,2.16,0,0,0-1.81,2.66c.62,2.18.43,2.24,1.05,4.42s1.34,2,2,4.16.2,2.3.81,4.49.17,2.31.79,4.49,1.41,2,2,4.14.23,2.3.85,4.48.39,2.25,1,4.44.48,2.23,1.1,4.41l.33-.08c.24.65.09.94-.58,1.34,1.13,2.51,2.68,3.25,5.07,1.86S235.24,204.44,233.55,202.77Z" />
    <path d="M227.24,205.15a.56.56,0,0,1-.89-.34c-1.26-1.9-1.42-1.79-2.68-3.69s-1.65-1.64-2.91-3.54-1.38-1.82-2.64-3.72-1.08-2-2.33-3.93-1.44-1.78-2.69-3.68-.7-2.28-2-4.18-1.43-1.78-2.69-3.68-1.43-1.79-2.69-3.69-1.26-1.91-2.52-3.81-1.34-1.85-2.6-3.76c-.62-.93-1.42-.91-2.35-.29s-1.54,1.52-.92,2.45c1.27,1.93,1.6,1.71,2.87,3.64s.81,2.23,2.08,4.16,1.74,1.62,3,3.55.9,2.17,2.17,4.1,1.53,1.76,2.81,3.69,1.22,2,2.49,3.89.82,2.22,2.09,4.15,1.77,1.6,3.05,3.53,1.43,1.82,2.71,3.75,1.17,2,2.44,3.94c.14.21,1.14,1.46.47,2.25,1.82,1.5,2.53,1.3,4-.51S229.09,206.54,227.24,205.15Z" />
    <path d="M223.26,210.4c-.61.71-1.11.69-2.15.32l-.08.19c-2.11-.86-1.85-1.51-4-2.37s-2.18-.68-4.29-1.54-2.1-.89-4.21-1.75-2.13-.82-4.24-1.68-2.18-.69-4.29-1.55-2.2-.64-4.31-1.5-1.95-1.24-4.06-2.1-2.15-.8-4.26-1.66-2.24-.55-4.35-1.41a1.49,1.49,0,0,0-2.23.84,1.87,1.87,0,0,0,.83,2.6c2.2.9,2.12,1.1,4.32,2s2.36.52,4.56,1.42,2.05,1.26,4.26,2.16,2.14,1,4.35,1.93,2.54.06,4.75,1,2.18.94,4.38,1.84,2,1.39,4.21,2.29,2.23.84,4.44,1.74,2.28.71,4.49,1.62c.34.15,1.4.36,1.42,1,2.26.54,3.06.57,3.57-1.66S225.88,210.91,223.26,210.4Z" />
    <path d="M226.93,217.25c-.57-2.2-1.78-2-4-.78,0,.85-1.27.78-1.3.78-2.54.47-2.57.29-5.12.76s-2.61.12-5.15.6-2.49.79-5,1.26-2.48.85-5,1.32-2.56.43-5.11.9-2.6.19-5.14.66a2.07,2.07,0,0,0-1.54,2.46c.17,1,1,1.18,1.92,1.18.12,0,.28.67.41.64,2.25-.41,2.13-1.1,4.38-1.52s2.42.47,4.68.05,2.11-1.19,4.37-1.61,2.3-.15,4.56-.57,2.33,0,4.59-.43,2.22-.62,4.48-1a36.34,36.34,0,0,0,4.41-1.28C226,219.89,227.5,219.46,226.93,217.25Z" />
  </g>
  <g class="fingers">
    <path d="M184,385.45c.79-2.39.91-2.35,1.68-4.74s.91-2.36,1.68-4.76.75-2.4,1.53-4.8.54-2.48,1.31-4.88c.34-1.06.33-2.26-.71-2.64a2.28,2.28,0,0,0-2.81,1.35c-.69,2.14-.43,2.22-1.12,4.36s-.53,2.2-1.22,4.34-.6,2.17-1.29,4.32-1,2.05-1.67,4.19c0,.09.18-.26.16-.17-.48,2.3-.42,3-3.43,2.65-1.71,1.43.06,2.08,2.08,3C183.3,389.1,183.11,388.13,184,385.45Z" />
    <path d="M178.08,384.14a4.2,4.2,0,0,1-3.56-2.71c-.16-2.5.23-2.52.09-5s.15-2.52,0-5-.67-2.47-.81-5,.62-2.54.48-5-.51-2.48-.65-5,.28-2.53.13-5-.39-2.49-.53-5-.66-2.48-.81-5a1.62,1.62,0,0,0-1.84-1.71,2,2,0,0,0-2,1.93c.13,2.34,0,2.34.11,4.68s0,2.34.18,4.68.52,2.31.65,4.65-.34,2.37-.21,4.7.7,2.31.83,4.64-.39,2.37-.25,4.71,1,2.29,1.14,4.63-.09,2.35,0,4.69.26,2.33.39,4.67c0,.21.1,1.22-.57,1.47-.25,2.42-.09,2.69,3.19,2.8S179.32,386.62,178.08,384.14Z" />
    <path d="M170.64,385c-.77.28-1.74-.52-1.8-.57-1.55-1.71-1.94-1.36-3.48-3.07l-3.08-3.44c-1.55-1.71-1.65-1.62-3.19-3.34s-1.31-1.92-2.85-3.64-1.62-1.65-3.17-3.36-1.15-2.07-2.7-3.79-1.72-1.55-3.27-3.27-1.55-1.7-3.09-3.42-1.36-1.89-2.9-3.6-1.4-1.85-3-3.56-2.07-1.25-3.61-3-1-2.18-2.58-3.9-1.73-1.56-3.27-3.29a2.17,2.17,0,0,0-3-.06,2,2,0,0,0-.09,2.82c1.6,1.79,1.41,2,3,3.75s1.94,1.48,3.55,3.27,1.73,1.67,3.33,3.45,1,2.35,2.59,4.13,2.09,1.36,3.69,3.15,1.46,1.92,3.06,3.71,1.71,1.7,3.31,3.48,1.32,2.05,2.93,3.83,1.9,1.53,3.5,3.31,1.68,1.73,3.28,3.52,1.36,2,3,3.8,1.57,1.83,3.17,3.62a1.64,1.64,0,0,1-.32,1.9c1,2.28,2.9,2.81,4.79,2S171.16,387.41,170.64,385Z" />
    <path d="M159.26,392.53c2.66,1.2,4,2.24,5.41.17s1.05-3.07-.84-5.14c-.7.54-1.66-.5-1.77-.55-2.17-1.11-2.41-.65-4.58-1.76L153.14,383c-2.17-1.11-1.89-1.65-4.06-2.76s-2.41-.66-4.58-1.78-2.07-1.31-4.24-2.42-2.3-.88-4.47-2-2.06-1.33-4.23-2.44-1.93-1.58-4.11-2.69-2.24-1-4.41-2.1-2.39-.7-4.56-1.82-2.32-.84-4.49-1.95a1.31,1.31,0,0,0-2.07.69c-.51,1-.38,1.63.62,2.14,2.07,1.06,1.93,1.34,4,2.4s1.89,1.4,4,2.46,2.2.81,4.27,1.87,2,1.11,4.12,2.18,2.25.7,4.33,1.76,1.73,1.73,3.8,2.79,2.42.39,4.49,1.45,2.1,1,4.17,2.08,1.75,1.68,3.83,2.75,2.22.77,4.3,1.83,1.85,1.51,3.92,2.57c0,0,1.92.45,1.27,1.92" />
    <path d="M161.18,395.44c.14-2.62.14-3.38-2.2-3.17-.52,1.19-1.08.85-2.29.5,0,0,0,0,0,0-2.45-.5-2.38-.86-4.83-1.36s-2.53-.15-5-.66-2.4-.77-4.85-1.28-2.52-.15-5-.65-2.41-.7-4.86-1.21-2.53-.14-5-.65-2.35-1-4.81-1.51-2.42-.66-4.88-1.16-2.42-.66-4.87-1.18c-1.1-.26-2.28.89-2.51,2a1.87,1.87,0,0,0,1.65,2.17c2.27.47,2.29.39,4.56.86s2.29.42,4.57.89,2.16,1.06,4.44,1.53,2.23.71,4.5,1.18,2.36.07,4.64.54,2.27.54,4.55,1,2.34.14,4.62.61,2.15,1.12,4.43,1.59,2.32.25,4.61.72,2.32.25,4.6.74a1.1,1.1,0,0,1,.82,1.06C160.29,398.4,161.05,397.88,161.18,395.44Z" />
    <path d="M161.41,399.69c-.76-2-1.29-2.42-3.06-1.38.06,1.18-.31,1.14-1.22,1.21h0c-2.36.34-2.35.39-4.71.73s-2.45-.3-4.81,0-2.37.31-4.72.65-2.34.54-4.7.88-2.37.27-4.73.61-2.28.9-4.64,1.24-2.38.14-4.74.48-2.38.24-4.74.58-2.37.27-4.73.62-2.38.23-4.74.58-2.34.51-4.71.85a1.87,1.87,0,0,0-1.46,2.3,1.56,1.56,0,0,0,1.76,1.43c.1,0,.13-.12.23-.13,2.44-.35,2.51.08,5-.28s2.38-.75,4.82-1.11,2.46-.23,4.9-.59,2.54.32,5,0,2.33-1.07,4.78-1.43,2.47-.18,4.91-.54,2.43-.46,4.87-.82,2.48-.06,4.93-.41,2.41-.56,4.86-.92,2.53.24,5-.12,2.43-.46,4.88-.81c.37,0,1.18-.13,1.38.34C162.52,402.45,162.17,401.7,161.41,399.69Z" />
    <path d="M164.85,403.45c-2.07-1.28-2.78-1.8-4.2-.14.31.74.26.91-.34,1.26l.08.15c-2.11,1-2,1.25-4.12,2.28s-2.17.92-4.28,1.95-2.09,1.08-4.2,2.11-2.43.38-4.54,1.41-1.93,1.42-4,2.44-2,1.31-4.1,2.34-2.22.82-4.34,1.85-2.33.6-4.44,1.62a2.7,2.7,0,0,0-1.12,3.18c.35.71,1.4.51,2.15.51.3,0,.64.48.92.34,2.29-1.11,2.45-.77,4.73-1.88s2.27-1.14,4.55-2.25,2-1.73,4.27-2.84,2.37-.91,4.66-2,2.15-1.37,4.43-2.48,2.35-1,4.64-2.08,2.39-.9,4.67-2,2.17-1.36,4.46-2.46a1.69,1.69,0,0,1,1.84.23C167.44,405,166.92,404.73,164.85,403.45Z" />
    <path d="M170.16,405.42c-2.24-1-2.67-.56-3,1.71.8.67-.18,1.43-.3,1.94-.77,2.58-.14,2.77-.93,5.34s-.5,2.66-1.29,5.24-1.06,2.49-1.85,5.06-1.05,2.5-1.84,5.07a2.33,2.33,0,0,0,1.38,2.78c.19.06.46-.21.66-.21a1.74,1.74,0,0,0,1.66-1.44c.65-2.17,1.39-1.94,2.05-4.11s-.28-2.44.38-4.61,1-2.07,1.63-4.23.88-2.1,1.54-4.27.61-2.18,1.28-4.34S172.41,406.47,170.16,405.42Z" />
  </g>
  <g class="fingers">
    <path d="M160.74,523.2c-.37-2.23.56-2.37.23-4.6s-1.06-2.13-1.39-4.36.15-2.3-.18-4.53-.75-2.17-1.07-4.41-.08-2.27-.4-4.5-.2-2.26-.52-4.49a2.37,2.37,0,0,0-2.48-1.9,2.21,2.21,0,0,0-1.67,2.5c.37,2.49.31,2.49.67,5s.66,2.43,1,4.91-.33,2.59,0,5.07,1.17,2.36,1.54,4.85-.42,2.6-.07,5.08c.07.62.43,2.63-.62,3.36.14,1.92,1.43,1.73,3.29,1.45C161.79,526.21,161.15,525.63,160.74,523.2Z" />
    <path d="M156.31,524.72c-1.58,1.1-2.3,1-3.66-.34l.1-.1c-1.81-1.86-1.77-1.89-3.59-3.76s-2.17-1.51-4-3.37-1.41-2.26-3.23-4.12-2-1.67-3.83-3.53a1.76,1.76,0,0,0-2.63.18,1.9,1.9,0,0,0-.37,2.73c1.55,1.6,1.52,1.63,3.07,3.22s1.63,1.52,3.19,3.12,1.52,1.62,3.07,3.22,1.39,1.76,2.94,3.36,1.46,1.69,3,3.29c.31.37,1.34,1.19.92,1.86,1.82,1.83,3.5,2.16,5.19.61C158.8,529,159,526.32,156.31,524.72Z" />
    <path d="M151.45,530.24c-.52.82-1.17,1-2.24.54l.12-.31c-2.07-.9-2-1-4.11-1.89s-2-1.05-4.09-2-2-1-4.11-1.87-2.28-.45-4.35-1.35-1.86-1.41-3.93-2.31-2.11-.84-4.19-1.74-2.34-.29-4.42-1.19c-1-.45-2.41-.34-2.85.69a2.22,2.22,0,0,0,1.39,2.68c2.17,1,2.21.86,4.39,1.8s2,1.25,4.22,2.19,2.07,1.21,4.24,2.15,2.19.92,4.37,1.86,2.36.52,4.54,1.46,2.19.92,4.37,1.87,2,1.36,4.17,2.32c.55.29,1.69.79,1.69,1.68,2.05,1.25,2.84.66,3.87-2.08C155.77,531.52,154.59,530.49,151.45,530.24Z" />
    <path d="M155.83,539.2c-.86-3.23-2.15-3.78-4.92-2.21,0,1.71-.38,1.37-1.62,1.3,0,0,0,.14,0,.15-2.34.11-2.35-.07-4.68,0s-2.34.06-4.68.17-2.36-.24-4.69-.14-2.33.5-4.67.6-2.34,0-4.69.08-2.32.54-4.66.64a2,2,0,0,0-2.12,1.89,2.44,2.44,0,0,0,2.2,2.19s0-.41.09-.42c2.46-.11,2.45-.22,4.91-.33s2.47-.14,4.93-.25,2.49.65,4.95.54,2.42-1.07,4.89-1.18,2.5.63,5,.52,2.47,0,4.93-.15c.44,0,1.59-.52,2,.23C155.71,542.84,156.66,542.35,155.83,539.2Z" />
    <path d="M157.6,542.19c-2.08-1.15-3.49-1.12-4.82.81.51,1,.46,1.47-.4,2.15,0,0-.19-.3-.2-.29-2,1.31-1.92,1.48-4,2.78l-4.07,2.6c-2,1.3-1.86,1.57-3.89,2.88s-2.25,1-4.28,2.27-2.12,1.18-4.16,2.48-1.81,1.66-3.85,3a1.81,1.81,0,0,0,.88,3.46c.37,0,.87.23,1.21,0,2.16-1.38,1.93-1.75,4.09-3.13s2.32-1.14,4.48-2.52,2-1.61,4.17-3,2.27-1.22,4.43-2.6,2.29-1.2,4.45-2.58,2-1.59,4.22-2.94a2.43,2.43,0,0,1,2,.19C159.55,545.37,159.67,543.34,157.6,542.19Z" />
    <path d="M162.11,545.59c-3.59-1.05-4.09-.94-4.21,1.88.91.64.3,1.21-.21,2.39l.22.11c-1,2-1,2.06-2,4.11s-.95,2.08-2,4.12-1.24,1.94-2.25,4-1.14,2-2.16,4c-.49,1-.27,2.66.73,3.15a2.93,2.93,0,0,0,3.35-1.14c1-2,.72-2.12,1.7-4.11s.6-2.18,1.58-4.17,1-2,1.93-4,1.6-1.69,2.6-3.67a3.15,3.15,0,0,1,3.95-2C167.74,547.94,165.85,546.69,162.11,545.59Z" />
    <path d="M168.83,547.27c-3.21.2-4.49.93-3.09,3.2a4.43,4.43,0,0,1,3.16,3.46s-.16.07-.15.11.08,0,.09,0h.06c.35,2.25.38,2.25.73,4.5s.12,2.3.48,4.55.77,2.2,1.12,4.45,0,2.32.37,4.57a2.3,2.3,0,0,0,2,2c.17,0,.36-.29.55-.34a1.83,1.83,0,0,0,1.2-2.25c-.41-2.63-.12-2.67-.53-5.3s-.73-2.58-1.14-5.21-.09-2.68-.5-5.31a38.5,38.5,0,0,0-1-5.23C171.6,548.08,171,547.14,168.83,547.27Z" />
  </g>
</svg>