<?xml version="1.0" standalone="no"?>
<!DOCTYPE svg PUBLIC "-//W3C//DTD SVG 20010904//EN"
 "http://www.w3.org/TR/2001/REC-SVG-20010904/DTD/svg10.dtd">
<svg version="1.0" xmlns="http://www.w3.org/2000/svg"
 width="183.000000pt" height="183.000000pt" viewBox="0 0 183.000000 183.000000"
 preserveAspectRatio="xMidYMid meet">
<metadata>
Created by potrace 1.11, written by Peter Selinger 2001-2013
</metadata>
<g transform="translate(0.000000,183.000000) scale(0.100000,-0.100000)"
fill="#000000" stroke="none">
<path d="M1380 1623 c-41 -17 -54 -85 -22 -121 29 -33 66 -36 101 -6 55 46 36
117 -35 128 -16 3 -36 2 -44 -1z"/>
<path d="M677 1528 c-9 -8 -19 -34 -22 -63 -10 -80 -24 -134 -44 -173 -10 -21
-24 -56 -31 -78 l-12 -41 -108 -32 c-98 -29 -232 -80 -246 -94 -11 -10 31 -25
106 -36 50 -8 101 -25 154 -52 85 -42 79 -35 152 -179 12 -24 19 -62 20 -119
2 -57 7 -87 16 -92 32 -20 45 -2 69 91 23 95 84 258 103 278 7 7 28 16 47 18
95 14 171 35 233 65 63 29 67 33 50 46 -10 7 -25 13 -33 14 -53 2 -304 69
-323 86 -9 8 -22 38 -29 66 -6 29 -20 77 -30 107 -9 30 -20 82 -24 115 -7 70
-22 92 -48 73z"/>
<path d="M1499 753 c-1 -41 -5 -56 -31 -123 -21 -56 -26 -61 -63 -71 -72 -18
-155 -54 -152 -64 2 -5 25 -13 51 -17 81 -11 131 -42 162 -101 15 -29 28 -72
29 -97 4 -62 3 -60 20 -60 8 0 19 17 25 43 20 75 22 81 43 129 20 44 25 48 72
58 77 18 146 43 142 53 -1 5 -49 21 -107 36 l-104 26 -22 70 c-13 39 -23 87
-23 108 -1 30 -5 37 -21 37 -15 0 -20 -7 -21 -27z"/>
<path d="M41 635 c-16 -22 -18 -31 -9 -56 19 -55 73 -62 104 -13 21 32 11 72
-22 84 -38 15 -51 12 -73 -15z"/>
</g>
</svg>
